<svg aria-hidden="true" style="position:absolute;width:0;height:0;overflow:hidden" xmlns="http://www.w3.org/2000/svg">
  <defs>
    <symbol id="cart-icon" viewBox="0 0 33 32">
      <path fill="#686870" style="fill:var(--color1, #686870)" d="M7.6 1.867a1.333 1.333 0 0 1 1.067-.533h16c.42 0 .815.198 1.067.533l4 5.333c.173.231.267.511.267.8v18.667a4.001 4.001 0 0 1-4 4H7.334a4.001 4.001 0 0 1-4-4V8c0-.288.094-.569.267-.8l4-5.333zM9.333 4 6 8.444v18.222A1.335 1.335 0 0 0 7.334 28h18.667a1.334 1.334 0 0 0 1.334-1.334V8.444L24.002 4H9.335z"/>
      <path fill="#686870" style="fill:var(--color1, #686870)" d="M3.333 8c0-.736.597-1.333 1.333-1.333h24a1.333 1.333 0 0 1 0 2.666h-24A1.333 1.333 0 0 1 3.333 8zM11.333 12c.736 0 1.333.597 1.333 1.333a4.003 4.003 0 0 0 4 4 4.001 4.001 0 0 0 4-4 1.333 1.333 0 0 1 2.666 0 6.67 6.67 0 0 1-11.381 4.714 6.668 6.668 0 0 1-1.953-4.714c0-.736.597-1.333 1.333-1.333z"/>
    </symbol>
    <symbol id="phone" viewBox="0 0 32 32">
      <path fill="#f63" style="fill:var(--color2, #f63)" d="M28.537 16.297c.554 0 1.003-.449 1.003-1.003 0-7.205-5.625-12.83-12.83-12.83a1.003 1.003 0 1 0 0 2.006c6.096 0 10.823 4.726 10.823 10.823 0 .554.449 1.003 1.003 1.003zm-15.374-3.606a3.01 3.01 0 0 0 0-4.257l-2.838-2.838a3.01 3.01 0 0 0-4.257 0L3.346 8.318a3.008 3.008 0 0 0-.879 2.249c.17 4.248 2.335 8.428 6.439 12.532s8.284 6.27 12.532 6.439a3.01 3.01 0 0 0 2.249-.879l2.722-2.722a3.01 3.01 0 0 0 0-4.257l-2.838-2.838a3.01 3.01 0 0 0-4.257 0l-1.53 1.53a.334.334 0 0 1-.442.027l-1.196-.931a20.535 20.535 0 0 1-3.608-3.608l-.931-1.196a.334.334 0 0 1 .027-.442l1.53-1.53zM4.765 9.737l2.722-2.722a1.003 1.003 0 0 1 1.419 0l2.838 2.838a1.003 1.003 0 0 1 0 1.419l-1.53 1.53a2.341 2.341 0 0 0-.193 3.093l.931 1.196a22.59 22.59 0 0 0 3.96 3.96l1.196.931a2.341 2.341 0 0 0 3.093-.193l1.53-1.53a1.003 1.003 0 0 1 1.419 0l2.838 2.838a1.003 1.003 0 0 1 0 1.419l-2.722 2.722c-.198.198-.47.304-.75.293-3.69-.147-7.419-2.079-11.193-5.853S4.617 14.175 4.47 10.485c-.011-.28.095-.552.293-.75zm20.518 6.029a1.003 1.003 0 1 1-2.007 0c0-3.51-3.528-7.038-7.038-7.038a1.003 1.003 0 1 1 0-2.006c4.618 0 9.045 4.427 9.045 9.045z"/>
    </symbol>
    <symbol id="ninja-sushi-logo-desktop" viewBox="0 0 147 32">
      <path fill="#1d1d1f" style="fill:var(--color3, #1d1d1f)" d="M30.403 11.133c-.409-.957-.863-2.021-2.758-1.37V4.597c0-2.668-4.498-4.598-9.978-4.598s-9.978 1.93-9.978 4.598v22.805c0 2.668 4.498 4.598 9.978 4.598s9.978-1.93 9.978-4.598V13.64c1.69.222 2.055 1.551 1.739 2.925l1.739.276c.39-2.52-.467-4.196-3.478-4.327v-1.051c1.157-.557 1.865.354 2.59 1.288.595.766 1.202 1.547 2.078 1.547 1.282 0 2.288-.644 3.021-1.931l-1.556-2.115c-.305 1.41-1.037 2.115-2.197 2.115-.651 0-.905-.593-1.178-1.234zm-10.075 6.025c-.887-.216-1.799-.438-2.697-.438-.912 0-1.834.227-2.727.446-2.332.573-4.469 1.099-5.74-2.58-1.55-4.488 1.988-3.499 5.214-2.597 1.252.35 2.456.687 3.298.685.809-.001 1.972-.317 3.187-.647 3.198-.868 6.763-1.836 5.234 2.559-1.276 3.666-3.437 3.14-5.77 2.572zm-7.15-3.327c-.393-.18-.782-.346-1.149-.465-.051.65.229 1.254.855 1.843.546.514 1.06.574 1.612.13.182-.2.339-.426.472-.678a18.931 18.931 0 0 1-.697-.313.734.734 0 0 1-.723.854.734.734 0 0 1-.732-.736c0-.271.145-.507.362-.635zm-3.291.175c.236-.712.76-.898 1.423-.812-.112.916.251 1.778 1.073 2.552.237.223.476.386.717.491a5.072 5.072 0 0 1-1.29.252c1.861.35 3.195-.162 4.003-1.536.776.188 1.306.004 1.306-1.038-.27 1.086-1.501.34-2.875-.492-1.885-1.142-4.039-2.447-4.357.584zm11.172.327c-.241.124-.477.241-.705.338.134.254.292.481.475.683.552.444 1.066.384 1.612-.13.655-.617.931-1.25.845-1.935-.395.118-.807.307-1.22.516a.736.736 0 0 1-.29 1.412.734.734 0 0 1-.717-.884zm-2.677.148c.277.407.661.516 1.112.454.806 1.399 2.147 1.922 4.022 1.569a5.072 5.072 0 0 1-1.29-.252c.241-.105.48-.268.717-.491.835-.787 1.196-1.665 1.067-2.598.559-.013 1.055.213 1.429.858-.356-3.294-2.394-1.96-4.296-.715-1.071.701-2.1 1.374-2.759 1.175zm-.366-1.379c0 .513.275.92.732 1.012-.458.092-1.007-.276-.732-1.012zm8.348-8.504c0 1.801-3.863 3.494-8.696 3.494S8.972 6.399 8.972 4.598s3.863-3.494 8.696-3.494 8.696 1.693 8.696 3.494z"/>
      <path fill="#f63" style="fill:var(--color2, #f63)" d="M21.969 4.597c0 1.016-1.926 1.839-4.302 1.839s-4.302-.823-4.302-1.839 1.926-1.839 4.302-1.839 4.302.823 4.302 1.839z"/>
      <path fill="#1d1d1f" style="fill:var(--color3, #1d1d1f)" d="M53.911 21.336v-.141l.072-.725c-.048 0-.072-.025-.072-.074.127-.143.269-.215.427-.215l.354-.577.282-2.316v-.148l-.144-.215v-.074c.048 0 .072.025.072.074.096 0 .144-.047.144-.141v-.074a.577.577 0 0 0-.072-.289.577.577 0 0 0 .072-.289V14.83l-.072-.51c.109 0 .249-.891.42-2.672a.528.528 0 0 0-.066-.215.636.636 0 0 0 .066-.296v-.792c0-.175.024-.391.072-.651l-.21-1.517c.048 0 .072-.025.072-.074s-.024-.074-.072-.074c-.122-.676-.216-1.013-.282-1.013-.035-.672-.153-1.007-.354-1.007v.141h-.145c0-.063-.046-.423-.138-1.081h-.072l-.138.067a.84.84 0 0 1-.144-.429c-.267-.403-.573-.645-.919-.725-.057-.241-.221-.363-.492-.363-.219 0-.431.193-.636.578.188 1.24.282 2.253.282 3.041 0 .712-.024 1.676-.072 2.894a.53.53 0 0 0-.072.215c.048 0 .072.024.072.074-.035.117-.083.502-.144 1.155.048 0 .072.025.072.074h-.072l-.065 1.732c0 .054.022.128.065.222-.044 0-.065.022-.065.067v.651l.065.362c-.044 0-.065.025-.065.074 0 .193.022.289.065.289 0 3.231.354 5.232 1.063 6.002.284.098.426.195.426.289h.42zm4.855 2.559c2.256.823 3.807 1.257 4.653 1.302 0 0 2.379.535 3.483-.111 1.991-1.164 1.481-9.054 1.481-9.054l.155-2.255c.023-1.588-.125-3.29-.443-5.104l-.031-.084c-.191-.506-.73-1.935-.669-2.245.102-.225.194-.33.275-.313l.206.042c.018-.092.051-.133.098-.124l.347.072.015-.072.468.171-.013.066c-.138-.029-.215.006-.235.102l.156-.043.064.013-.014.072-.177.183c-.014.07.041.154.165.253l.141.029c.025-.127.112-.207.261-.241l.013-.066.277.057c-.015.074.239.371.762.89.412.514.795 1.257 1.148 2.229.341 1.444.479 2.333.413 2.667l-.071-.015c.083.803.139 1.747.166 2.835a.529.529 0 0 0-.113.203c.141.029.179.454.111 1.276l-.098.123-.087 1.906c-.159.333-.245.534-.259.604l-.013.443.064.013.156-.043-.029.145-.097.124c.047.01.066.039.057.087-.047-.01-.076.009-.085.058l.139.029c.597-.867 1.029-1.566 1.295-2.097 0-.103.142-.271.427-.503l1.056-2.383c-.048-.027-.072-.197-.072-.51.333-.72.545-1.081.637-1.081.345-.77.912-2.41 1.699-4.921l.636-1.517a.535.535 0 0 1-.072-.215c.175 0 .433-.217.775-.651h.289l.065.289h.072c.097 0 .145-.049.145-.148l.702.074h.144c0 .143.046.215.138.215h.073c0-.143.048-.215.144-.215h.072c.092.013.138.063.138.148l.144-.074h.066v.289h.144c.092 0 .138-.049.138-.148v-.067l-.065-.148.354-.074h.138l-.072.148v.215c.096 0 .144.096.144.289h.565c0 .049-.025.074-.073.074.022.242.094.362.217.362v.429c.026.515.166.877.42 1.088 0 .022.072.264.217.725l.138-.074h.072l.282 1.087c.14 0 .21.143.21.43-.048 0-.072.025-.072.074l.144.074v-.074c-.048 0-.072-.024-.072-.074h.217c.004.273.144.803.42 1.591a3.55 3.55 0 0 0-.073.577l.145.074c0-.049.024-.074.072-.074 0 .099.14.412.42.94 1.457-.143 2.329-.215 2.618-.215v.148h-.145l.073.356-1.411.436.065.148c0 .228-.21.372-.63.43v.074h.138v.148l-.138.215v.141c.377 1.222.683 2.307.919 3.256 0 .076.046.172.138.289v.074c0 .049-.024.074-.073.074l.637 1.88c-.044 0-.066.024-.066.074.201 0 .411.745.63 2.236-.157 0-.273.121-.348.362h-.427c0 .148-.118.222-.354.222-.166-.166-.591-.36-1.273-.584 0-.076-.353-.219-1.057-.429 0-.054-.142-.175-.427-.363v-.148l.492.074h.217c.092 0 .138-.047.138-.141 0-.152-.446-1.334-1.339-3.544 0-.296-.237-1.043-.709-2.242-.905.291-1.894.508-2.966.651 0-.049-.024-.074-.072-.074 0 .143-.142.239-.427.289-.8.188-1.201.454-1.201.799-.297.967-.579 1.64-.847 2.021v.221c.141 0 .211.047.211.141v.074l-.138-.074h-.145c-.139.376-.209.617-.209.725l-.145-.074c0 .125-.142.271-.427.436 0 .09-.258.524-.774 1.302l-.145.067h-.137l-.283-.215H74.1c-.092.013-.137.063-.137.148a.535.535 0 0 1 .065.215l-.138.074c-.061-.049-.179-.074-.354-.074 0 .143-.095.215-.283.215l-1.135-.792c-.291 0-.574-.349-.85-1.047-.023.315-.098.794-.224 1.436l-.111.566c-.065.329-.142.484-.232.466l-.069.725-.083.421c-.253.788-.563 1.265-.931 1.431-.097.078-.273.137-.523.178l-.016.006-.009.003-.005.002c-.105.088-.114.116-.124.149-.009.028-.019.059-.093.135-.054.024-.178.037-.369.038v.002a.79.79 0 0 1-.442.038c-.215.258-.379.413-.496.465l-.699-.008c-.636.076-1.428.091-2.376.043-.729-.362-1.592-.63-2.591-.807-.497-.388-.938-.582-1.326-.584-.093-.217-.757-.683-1.992-1.399-.412-.235-.66-.334-.744-.296-.311-.334-.526-.475-.647-.42l-.113-.264c1.178.472 1.811.688 1.899.649l-.029-.067-.591-.292-.026-.061.066-.03c.012.029.387.179 1.126.45s1.361.408 1.868.409c.411.079.675.092.791.04l.066-.03c.072-.032.096-.094.071-.186-1.735-.446-2.657-.796-2.767-1.05l-.097.124c-.132.06-.264-.064-.396-.372l-.126.057.055.129-.066.03a2.263 2.263 0 0 0-.293-.499l.132-.059.029.067zm12.749-3.647-.002-.002-.003-.003.009.001-.003.004zm-25.11 2.199a.552.552 0 0 1-.354-.148c0 .049-.024.074-.072.074 0-.059-.188-.251-.564-.578 0-.206-.188-.423-.564-.651-.433-.26-1.022-1.295-1.765-3.108-.154-.222-.246-.245-.275-.069.044.367.066.788.066 1.262 0 .072-.022.107-.066.107l.066.148v.436c0 .094-.046.333-.138.718l.138-.067c.048.497.072.785.072.866h-.072l.072.141v.51l.072.363c-.096 0-.144.072-.144.215 0 .04.024.233.072.577l-.774.289c-.284 0-.426-.24-.426-.718h-.144a2.238 2.238 0 0 0-.066.504h-.072c0-.305-.236-.497-.708-.578 0-.322-.118-.709-.354-1.161a.51.51 0 0 1-.21.074v.074h.144v.074c0 .045-.024.067-.072.067l.072.148v.148c-.381-.349-.571-1-.571-1.954.096-.993.144-1.705.144-2.135 0-.505-.048-.951-.144-1.336 0-.045.024-.237.072-.577 0-.063-.024-.304-.072-.725l.072-.363c-.048-.081-.072-.202-.072-.363h.072c-.092-.255-.162-.615-.21-1.081h.072c-.582-3.039-1.1-4.558-1.555-4.558l-.144-.504v-.074c.013-.098.061-.147.144-.147h.065l.144.074c0-.049.024-.074.072-.074l-.072-.141c.013-.099.059-.148.138-.148a.51.51 0 0 0 .216.074c0-.072.07-.143.21-.215.284.201.426.418.426.651.136 0 .348-.121.636-.362l.199-.007c0 .192.188.289.564.289v.148h-.144v.067c.254 0 .442.074.564.222l-.066-.148v-.074h.138c0 .085.142.302.426.652.277.697.724 1.548 1.242 2.534 1.063 2.023 2.424 4.613 3.218 7.591.101 0 .195.217.282.651.473-.524.897-2.139 1.273-4.847 0-.045-.024-.067-.072-.067.083-1.159.201-1.739.354-1.739 0 .054.024.125.072.215-.096.192-.144.459-.144.799a.58.58 0 0 0 .072.289c-.048.56-.118.993-.21 1.302.048.335.118.503.21.503h.072c0-.192.046-.289.138-.289v-.718a.496.496 0 0 0 .217-.074c-.048-.103-.096-.32-.144-.651a.51.51 0 0 1 .21-.074l-.066-.363c.044 0 .066-.024.066-.074h-.138v-.141c.188 0 .282-.555.282-1.665.066-.327.136-.544.21-.651-.092 0-.138-.072-.138-.215v-.799h-.072v-.067c0-.049.024-.074.072-.074l-.072-.148c.11-.107.203-.42.282-.94l-.072-.141c.096-.179.144-.372.144-.577l-.072-.148h.144v-.074h-.144v-.141c.223-.492.553-.88.991-1.162.424.081.636.177.636.289v.148c-.525.215-.949.624-1.273 1.229l.072.148-.217 1.591h.145l-.145.215a.58.58 0 0 0 .072.289l-.138.362.065.363-.065.141.065.436v.215c-.092.47-.138.736-.138.799a.58.58 0 0 0 .072.289c-.096.242-.168.363-.217.363l.072.141c0 .242-.046.363-.138.363l.065.148-.138.215c.048.264.072.456.072.577-.048 0-.072.025-.072.074h.138c0-.483.118-.942.354-1.376l-.072-.43v-.074c.193 0 .289-.192.289-.577h.066l-.066-.148c.109-.157.179-.374.21-.651-.048-.08-.072-.201-.072-.363h.072l-.072-.141.145-.221v-.067a.55.55 0 0 0-.072-.288c.092-.34.162-.51.21-.51-.048-.063-.072-.184-.072-.363.048 0 .072-.022.072-.067l-.072-.296c.066-.219.16-.338.282-.356l-.065-.148a.618.618 0 0 0 .065-.289h.144c-.048.649-.072 1.13-.072 1.443v.51c-.14 0-.21.047-.21.141.14 0 .21.242.21.725h.072c.188-.372.282-.589.282-.651a.535.535 0 0 1-.072-.215l.072-.725a.535.535 0 0 1-.072-.215c.144 0 .216-.096.216-.289h.138v.067c-.188.994-.282 2.634-.282 4.921h-.072c0 .049.024.074.072.074l-.072.362v.141l.282-.141v.067c-.092.98-.304 2.475-.636 4.485 0 .577-.352 1.374-1.056 2.39 0 .295-.424.463-1.273.503-.849-.049-1.273-.241-1.273-.577zm18.504.744.354-.201c.043-.009.219-.443.528-1.304.402-1.406.672-2.481.811-3.226.135-2.003.186-3.765.156-5.286l-.011-.059c-.124.025-.199-.028-.224-.159l-.035-1.191c-.043.009-.098-.046-.164-.164l.002-.334c-.052-.167-.13-.24-.235-.218.078-.497.108-.791.09-.883l-.128.026c-.058.81-.212 1.241-.464 1.291-.024.713-.084 1.079-.181 1.098l-.064.013c.034-.517.082-.947.145-1.289l-.013-.065a.25.25 0 0 0-.075.032l-.015-.081a.524.524 0 0 1-.19-.296l-.064.013c-.066.013-.103.109-.111.287l-.07.014-.205.974c-.006.705-.091 1.278-.256 1.719l-.058.012-.013-.065c.185-2.182.347-3.59.487-4.223-.011-.055.106-.233.35-.533l-.025-.131-.25.05-.013-.065.192-.039.135.041.44-.755-.049-.256-.064.013c-.248.05-.47.36-.666.931-.039.008-.062-.008-.07-.048-.088.104-.166.163-.232.176.009.043.034.061.077.052l.013.065-.135-.041.013.065c-.091.595-.205.906-.34.933l-.003-.333-.122.025a.524.524 0 0 1-.015.268c.043-.009.068.009.077.052l.013.066-.04.137.128-.026.012.065-.064.013-.14-.04.04-.137-.025-.131-.064.013c-.195.265-.388.837-.582 1.716-.028.607-.079 1.014-.152 1.222.086 1.708.045 2.737-.125 3.088l.037.19.089.118-.064.013c-.017.58-.069.878-.154.895l-.122.024-.025-.131a1.838 1.838 0 0 0-.434-.907c.082-.477.103-.815.065-1.013l-.088-.112c.043-.008.06-.035.051-.078l-.062-.321c-.378-1.299-.631-1.936-.759-1.91l-.172-.898a6.828 6.828 0 0 0-1.092-2.639 5.436 5.436 0 0 1-.77-1.309l-.013-.065.186-.037-.082-.113-.766-.247-.622.125.034-.136-.013-.066-.186.038-.115.091c-.065-.337-.329-.594-.794-.773l-.115.091c-.008-.044-.034-.061-.076-.053l-.186.038a1.057 1.057 0 0 0-.476.225 27.74 27.74 0 0 1 .137 3.764l.089.118-.064.013a.492.492 0 0 0 .1.178c-.063.28-.121.426-.176.437.1.313.182.519.245.618a.483.483 0 0 0-.175.097.471.471 0 0 0 .102.183 4.343 4.343 0 0 0-.021.931c.043-.009.068.009.077.052-.042.009-.071.081-.085.215l.108.25c.03.303-.004.464-.1.483l.086.446c.051.389.004.598-.139.627l.074.387-.141-.04.001.667c.043-.008.068.009.076.053-.241 2.37-.268 4.039-.083 5.006.209-.042.334.042.374.252l.074.386c.167-.033.27.057.311.271l-.002.334c.388-.012.6.077.637.267l.302-.123.128-.026c.062-.013.14.06.235.218.194-.039.336-.313.428-.821l.186-.037c.043-.008.085-.239.127-.693.022-.996.095-1.631.22-1.903a.472.472 0 0 0-.095-.178c.051-.175.06-.576.028-1.204-.043.009-.068-.009-.077-.052.079-.132.13-.319.152-.562l-.125-.308c-.084-.605-.058-.921.077-.948-.008-.044-.032-.062-.071-.054-.023-.119-.018-.431.013-.935l-.128.026c.105-.355.148-.583.128-.686l.256-.051.18.624.222 1.154.089.118-.064.013.349 1.128-.04.138c.192.538.369 1.124.531 1.758.112.583.589 1.485 1.431 2.708.011.059.195.222.552.488l-.025-.131.058-.012c.141.042.217.093.228.152.257.08.482.235.675.464.41-.107.605-.212.585-.315.215-.01.332.032.35.127zm.225-11.686-.035-.182c.022 0 .045.002.067.005l.032.164-.064.013zm-.016-.769a.483.483 0 0 0-.1-.177c.128-.026.179-.104.154-.235l.058-.012.038.196c-.081.017-.11.088-.086.215l-.064.013zm-17.238 2.62c-.065 0-.135-.072-.21-.215V13c0-.049.024-.074.072-.074l-.072-.148a.84.84 0 0 0 .144-.429h.138v.067l-.072.363c.048.188.072.381.072.577h-.072zm28.799-1.751c.101-.022.195-.143.282-.363a.618.618 0 0 1-.065-.289c.109 0 .321-.41.636-1.228l-.072-.148v-.074c.258-.3.398-.709.42-1.229h-.282v.148h.144c-.709 1.535-1.063 2.596-1.063 3.182zm-12.742 7.341c.001.235-.042.463-.128.686-.074.015-.124-.018-.152-.099l-.061-.321.064-.013.278-1.254a.483.483 0 0 0-.1-.177c.066-.013.141-.074.225-.181l.013.065-.086.215.025.131.122-.024-.036-.191.064-.013.073.38c-.119.514-.219.779-.3.795zm14.732-3.352c.241 0 1.019-.192 2.336-.577v-.074c0-.103-.331-1.139-.991-3.109v-.067c-.223.3-.459.83-.708 1.591a8.084 8.084 0 0 1-.565 1.947h-.072v.289zm6.325 3.584c0-.058-.024-.298-.073-.718l.073-.362c-.048 0-.073-.025-.073-.074l-.137.074h-.145c0-.34-.094-.51-.282-.51.285 1.11.497 1.665.637 1.665v-.074zm-20.815-2.986c-.039.008-.062-.008-.069-.048l-.019.014.008.04c.006.032-.038.483-.132 1.354l-.064.013-.011-.06-.01-.399c.095-.461.143-.761.145-.9l-.032.023-.064.013-.049-.255.192-.039c.08-.633.146-.956.201-.967l.064-.013.024.125a.669.669 0 0 1-.002.334c-.151.347-.21.602-.179.765zM99.545 23.384l.073-.145.139.073a.55.55 0 0 0 .283-.073l.145.073a.557.557 0 0 1 .283-.073h.138l.429.073c.364-.07.623-.213.777-.428.097 0 .145.072.145.217.901-.32 1.351-.652 1.351-.994l.139.072h.072c0-.088.071-.16.211-.217.615-.474.922-.757.922-.849.759-.426 1.139-.757 1.139-.994.427-.32.639-.557.639-.711.567-.207.85-.489.85-.85l-.073-.639c0-.079.048-.125.145-.138-.237-.364-.356-.577-.356-.638-.448-.18-.779-.56-.995-1.139v-.066h.145c.519.347.777.582.777.705h.145c0-.377-.712-.919-2.135-1.626-.444-.474-1.649-.948-3.617-1.422-2.174-.426-3.735-.852-4.684-1.277 0-.088.143-.347.429-.777.474-.395.711-.632.711-.711.575-.342.883-.625.922-.849.176-.141.672-.378 1.489-.711.553.378.907.566 1.061.566l.356-.066-.073-.145v-.072h.145v-.566c0-.509-.545-1.053-1.633-1.633-.492-.268-1.272-.456-2.339-.566-.127 0-.553.261-1.278.783-.061.246-.204.481-.428.705-.378.32-.709.722-.995 1.205-.471.584-.705 1.271-.705 2.061 0 .474.095.711.283.711.123.33.242.494.356.494.395.601.654.909.777.922.509.474.865.711 1.067.711.272.356 1.241.733 2.905 1.132.097 0 .145-.049.145-.145.207.145 1.625.5 4.256 1.066 0 .224-.119.461-.355.711-.277.513-.56.891-.85 1.132-1.019.742-1.871 1.168-2.557 1.277l-.494-.072a5.918 5.918 0 0 1-.922.217v-.072l-1.206.138c-.421-.14-.683-.211-.784-.211v-.072c.334-.566.501-.944.501-1.132v-.073c-.307 0-.876.307-1.706.922l.073.355c-.33.237-.494.38-.494.428v.211c.219.378.36.566.421.566l-.073.145v.066c.097.338.145.529.145.573 0 .25.307.628.922 1.133.272.281.698.494 1.278.638l.139-.073 1.423.145zm13.696-.783c0-.105.165-.294.494-.566.536-.128.868-.27.995-.428l-.073-.138c.382-.522.619-.783.711-.783.123-.426.217-.639.283-.639h.138c.189.759.356 1.279.501 1.56.048 0 .072-.022.072-.066l.139.066v-.211l-.073-.138c.048 0 .073-.024.073-.072h-.139v-.428h-.145v-.073l.073-.138h.072c.255.992.419 1.488.495 1.488 0-.048.023-.118.072-.211a14.985 14.985 0 0 1-.355-1.494c.048 0 .072-.022.072-.066h.066c.132.469.251.704.356.704a.512.512 0 0 0-.073-.211.547.547 0 0 0 .073-.283v-.356l-.073-.138h.073c-.189-.887-.283-1.407-.283-1.56h.073c0-.382.094-.573.283-.573l-.072-.705v-.639c0-.048.024-.072.072-.072.273-.641.556-1.918.85-3.832l-.073-.349c.049-.641.073-1.185.073-1.633v-.994c0-.079.049-.127.145-.145l.138.428h.073c0-.22.07-.384.211-.494 0-.079-.046-.127-.139-.145 0-.048.025-.072.073-.072 0-.447-.167-.825-.501-1.132a.517.517 0 0 0-.211.072.517.517 0 0 1-.211-.072v.145h-.283v-.217l-.428-.283-.356.072h-.073v-.211h-.138l-.145.066-.073-.138c-.184 0-.397.165-.639.494h-.211v-.138h-.139v.211a2.137 2.137 0 0 0-.639.566c0 .369.07 1.479.211 3.331a.56.56 0 0 0-.073.289l.073.138h-.073l.073.494v.995c-.519 2.146-1.039 3.66-1.561 4.543-.901 1.132-1.467 1.699-1.7 1.699-.114-.281-.211-.422-.289-.422 0-.474-.117-.711-.349-.711l.065-.145a.833.833 0 0 0-.138-.421l.073-.356c-.145-.65-.242-1.029-.29-1.139h.072c-.14-1.979-.211-3.349-.211-4.108v-.073l-.072-.145h.072l-.072-.704v-.072c0-.25.024-.652.072-1.205-.079 0-.127-.048-.145-.145l.217-1.06-.217-.145.145-.211v-.5h-.211c-.334.096-.525.145-.573.145h-.066c0-.096-.048-.145-.145-.145l.073-.138v-.072c-.286-.031-.429-.101-.429-.211-.171 0-.29.024-.355.072-.044 0-.066-.072-.066-.217l-.356.073v-.145a.52.52 0 0 1-.217.072c-.18.285-.321.428-.421.428l-.211-.145h-.073v.072c0 .096-.095.145-.283.145-.057.426-.13.639-.217.639l.428 2.054c-.061 0-.109.143-.145.428 0 .088.048.252.145.494h-.073c.11 1.369.183 2.054.218 2.054 0 2.124.401 4.016 1.205 5.675 0 .272.496.816 1.489 1.633h.139l.145-.072c.286.492.593.775.923.85l.145-.066c.207.189.347.283.422.283l.283-.072c.176.14.508.211.995.211h.145zm4.184 1.139v-.073c0-.079-.046-.127-.138-.145l.138-.211v-.073a.522.522 0 0 1-.211-.072l.073-.138v-.283h-.145c0 .158-.024.277-.072.355.048.079.096.292.145.639h.211zm16.628 1.474-.283-.138a.553.553 0 0 1-.217.066l-.283-.066a.55.55 0 0 1-.211.066c0-.123-.167-.217-.5-.283a1.53 1.53 0 0 0-.567-.705c-.281-.509-.494-1.218-.639-2.127l.073-.145a.503.503 0 0 1-.073-.211h.073c-.084-.154-.178-.816-.283-1.988h.072c-.087-.285-.325-2.506-.711-6.663-.048 0-.119-.38-.211-1.139 0-.048.024-.119.073-.211 0-.491-.286-1.036-.857-1.633 0-.031-.119-.362-.356-.995.053-.211.22-.375.501-.493h.073v.138c.334-.092.523-.138.567-.138h.073v.428h.138l-.072.138v.072c.096 0 .145.024.145.072l.567-.356h.072v.073a.48.48 0 0 0-.072.211c.048 0 .072.024.072.072a.522.522 0 0 1 .211-.072c.413.027.839.404 1.278 1.133 0 .312.165.786.494 1.422.333 3.033.501 4.688.501 4.964h.073c1.076-.145 1.88-.217 2.411-.217h.283c.426 0 .639-.259.639-.777h.073l-.073-.145v-.066c.237 0 .475-1.42.712-4.26-.097 0-.145-.046-.145-.138v-.428c.255 0 .444-.07.567-.211h.145l.066.356c-.044 0-.066.022-.066.066l.139.072c0-.048.024-.072.072-.072l-.072-.138v-.072c.311 0 .501-.142.566-.428h.145c0 .053.024.125.073.217l.138-.072h.073c0 .158.024.276.073.355l.138-.072c.097.013.145.062.145.145v.066h-.145v.072h.217l.066-.138a.548.548 0 0 1-.066-.217h.139c.285.25.428.463.428.638h.211l.145-.072-.073-.138c.013-.096.059-.145.138-.145.352 0 .543.072.574.217v.138c0 .097-.073.145-.218.145.189.492.283.799.283.922-.233.939-.349 2.12-.349 3.542l.138.073c0-.049.024-.073.073-.073 0 .096.024.144.073.144l.283-.144v.073c0 .14-.189.235-.566.283v.428h.494l.922-.211c0 .044.025.066.073.066 0-.092.189-.162.567-.211v.072c0 .061-.308.226-.923.494 0 .189-.426.402-1.278.639v.145l.356-.072c.048 0 .073.024.073.072a.513.513 0 0 1 .211-.072h.145v.072c-.571.07-.857.165-.857.283 0 .141-.024.211-.073.211l.073.145c-.092.4-.138.634-.138.705l.065.428c0 .435-.14 1.521-.421 3.259h-.145v-.138h-.066v.921h-.217l-.283-.211c0 .079-.119.292-.356.639 0 .505-.141.788-.421.85 0 .14-.237.211-.711.211h-.073c0-.14-.071-.211-.211-.211h-.073v-.566a.525.525 0 0 0-.073-.283c0-.048.024-.073.073-.073 0-.096-.024-.145-.073-.145.11-1.795.205-2.692.283-2.692l-.066-.145c.093-.325.139-.608.139-.849v-.566l.073-.356c-.115-.092-.209-.138-.283-.138-.699.14-1.173.257-1.423.349v.428c-.123 0-.287.261-.494.784l-.639 1.415a.513.513 0 0 1-.211.072v.566c0 .114-.119.327-.356.638 0 .281-.048.422-.145.422l.073.145c-.378.404-.567.641-.567.711v.355l.073.138c-.159 0-.253.094-.283.283zm3.406-9.36c.224-.715.389-1.095.494-1.139a1.656 1.656 0 0 0-.211-.494l.138-.211h-.065c-.079 0-.176.165-.291.494l.073.356c-.022.189-.092.283-.211.283v.072l.073.139h-.145v.355c.018.097.066.145.145.145zm1.772 5.814c.114 0 .185-.237.211-.711a.54.54 0 0 1-.065-.211h.138v-.283c0-.097-.046-.145-.138-.145l.065-.356v-.705c0-.048.025-.072.073-.072l-.073-.145c0-.048.025-.119.073-.211l-.138-.639c.043 0 .065-.024.065-.072h-.138v.501a.56.56 0 0 1-.073.283c0 .048.024.072.073.072l-.073.349v.145l.073.494h-.073l.073.145v.138c0 .096-.049.145-.145.145a.813.813 0 0 1 .145.428v.349l-.073.501zm-.494.638c.092-.356.138-.568.138-.639 0-.048-.024-.072-.072-.072l.072-.356v-.777l-.072-.856h.072l-.072-.138v-.494c0-.048.024-.072.072-.072-.048-.061-.072-.228-.072-.5-.093.018-.139.066-.139.145v.494c0 .272-.024.439-.073.5.049.255.073.467.073.639v2.127h.073zm-3.195-1.778c0-.154.165-.483.494-.988l.356-.711v-.145h-.073a3.226 3.226 0 0 0-.639 1.139c-.031 0-.125.118-.283.356v.349h.145zm-1.634 1.14c.281-.308.801-1.089 1.561-2.344 0-.044.025-.066.073-.066v.211h.139c0-.197.048-.434.145-.711h-.073v.073c-.048 0-.072-.024-.072-.073-.778.285-1.226.428-1.344.428-.321-.14-.509-.211-.567-.211v.211c0 .105.022.2.065.283 0 .048-.021.073-.065.073.044.215.09.924.138 2.127zm11.202 3.062v-.138l.073-.711c-.049 0-.073-.024-.073-.072.128-.141.271-.211.429-.211l.355-.566.283-2.272v-.145l-.145-.211v-.072c.048 0 .072.024.072.072.097 0 .145-.046.145-.138v-.072c0-.106-.024-.2-.073-.283a.547.547 0 0 0 .073-.283v-1.277l-.073-.5c.11 0 .251-.874.422-2.621a.526.526 0 0 0-.066-.211.623.623 0 0 0 .066-.29v-.777c0-.171.024-.384.072-.639l-.211-1.488c.048 0 .073-.024.073-.072s-.025-.072-.073-.072c-.123-.663-.217-.994-.283-.994-.035-.659-.154-.988-.356-.988v.138h-.145c0-.061-.046-.415-.138-1.06h-.073l-.139.066a.814.814 0 0 1-.145-.421c-.268-.395-.575-.632-.923-.711-.057-.237-.221-.356-.494-.356-.219 0-.433.189-.639.566.189 1.216.283 2.21.283 2.982 0 .698-.024 1.644-.073 2.838a.503.503 0 0 0-.073.211c.049 0 .073.024.073.072-.035.114-.083.492-.145 1.132.048 0 .072.024.072.072h-.072l-.066 1.699c0 .053.022.125.066.217-.044 0-.066.022-.066.066v.639l.066.355c-.044 0-.066.024-.066.073 0 .189.022.283.066.283 0 3.169.355 5.131 1.067 5.886.286.096.429.191.429.283h.421zm-22.895-14.554a25.077 25.077 0 0 1 1.851-.613h.063v.12c-.207.012-.309.054-.309.126-.371.023-.557.105-.557.246h-.183c-.137 0-.281.061-.429.183h-.436v-.063zm7.054 9.367h.063c0-.088-.061-.212-.183-.372v-.183l.057-.126-.367-.618a12.484 12.484 0 0 0-2.35-1.85c-.86-.508-1.292-.796-1.295-.865-.34-.145-1.246-.699-2.717-1.661-.806-.455-1.36-.928-1.662-1.421.019-.164.08-.246.183-.246 0-.275 1.259-.72 2.329-1.159.619-.168.929-.311.929-.43 1.066-.355 1.662-.582 1.788-.681.619-.138.929-.241.929-.309.092 0 .174.145.247.436l-.063.12c0 .084.061.126.183.126v.063c-.122 0-.183.061-.183.184.042.206.167.473.373.802h.183l-.063-.126h.183c.179-.535.325-.802.435-.802v-.12c0-.202.061-.408.183-.619a.482.482 0 0 1-.063-.246c-.019-.141-.348-.409-.986-.802l-1.049-.309h-.063c-.283 0-.59.063-.923.189-1.158.244-1.899.491-2.224.739l-.126-.063h-.121c-.21.164-.477.267-.802.309l-2.161.985c-.89.458-1.385.932-1.485 1.421 0 .061.103.328.309.802l-.063.126c0 .035.082.218.247.55 0 .111.103.235.309.372 0 .118.185.365.556.739.463.279.812.546 1.049.802.413.072.619.176.619.309.81.443 1.263.731 1.359.865a33.427 33.427 0 0 1 3.209 2.034c.699.359 1.049.607 1.049.745-.424.34-1.679.607-3.766.802 0-.042-.021-.063-.063-.063a.484.484 0 0 1-.246.063h-2.407c-.657 0-.986.246-.986.739v.183c.157 0 .26.145.309.435l.367.247c.176.122.3.183.373.183.233.164.397.246.493.246 0 .21.391.356 1.175.436v.057l-.063.126c.336 0 .542.04.619.12h.183l.373-.057.121.057a19.4 19.4 0 0 0 1.542-.183c0 .042.021.063.063.063a10.652 10.652 0 0 0 2.471-.619c.263-.061.491-.328.682-.802h.43l.126-.43v-.189c0-.096.508-.85.382-1.121z"/>
    </symbol>
  </defs>
</svg>
