<svg aria-hidden="true" style="position:absolute;width:0;height:0;overflow:hidden" xmlns="http://www.w3.org/2000/svg">
  <defs>
    <symbol id="categori-icon6-mobile" viewBox="0 0 32 32">
      <path fill="#9e9e9e" style="fill:var(--color1, #9e9e9e)" d="M13.747 5.786v1.261c0 .388-1.051 1.1-2.798 1.1s-2.798-.712-2.798-1.1V5.786c.744.372 1.698.598 2.798.598 1.1.016 2.07-.21 2.798-.598z"/>
      <path fill="#86868b" style="fill:var(--color2, #86868b)" d="M17.189 8.859h-1.455v5.385h1.455V8.859zM10.963 26.935c-3.493 0-6.242-1.585-6.242-3.59V8.855h1.455v14.49c0 1.003 2.038 2.135 4.787 2.135v1.455z"/>
      <path fill="#86868b" style="fill:var(--color2, #86868b)" d="M10.963 12.449c-3.509 0-6.242-1.569-6.242-3.59 0-1.148.889-2.199 2.426-2.862l.582 1.342c-.97.42-1.552.986-1.552 1.536 0 1.003 2.038 2.135 4.787 2.135s4.787-1.132 4.787-2.135c0-.534-.582-1.116-1.552-1.536l.582-1.342c1.536.663 2.426 1.714 2.426 2.862-.016 2.021-2.749 3.59-6.242 3.59z"/>
      <path fill="#86868b" style="fill:var(--color2, #86868b)" d="M15.201 3.842V7.06c0 .129-.016.259-.049.388-.291 1.261-2.005 2.151-4.188 2.151-2.021 0-3.622-.76-4.108-1.86a1.73 1.73 0 0 1-.146-.695V3.842h1.455V7.06c0 .388 1.067 1.1 2.798 1.1s2.798-.712 2.798-1.1V3.842H15.2z"/>
      <path fill="#86868b" style="fill:var(--color2, #86868b)" d="M14.828 2.761c-.647-.889-2.102-1.472-3.881-1.472-1.536 0-2.83.437-3.574 1.132-.437.404-.679.889-.679 1.423 0 .809.55 1.488 1.455 1.957.744.372 1.698.598 2.798.598 1.084 0 2.054-.226 2.798-.598.906-.453 1.455-1.148 1.455-1.957 0-.404-.129-.76-.372-1.083zm-3.865 2.183c-1.73 0-2.798-.712-2.798-1.1s1.067-1.1 2.798-1.1c1.73 0 2.798.712 2.798 1.1-.016.388-1.067 1.1-2.798 1.1z"/>
      <path fill="#9e9e9e" style="fill:var(--color1, #9e9e9e)" d="M13.747 3.846c0 .388-1.051 1.1-2.798 1.1s-2.798-.712-2.798-1.1c0-.388 1.067-1.1 2.798-1.1s2.798.712 2.798 1.1z"/>
      <path fill="#86868b" style="fill:var(--color2, #86868b)" d="M17.967 13.516c-5.628 0-10.043 2.442-10.043 5.563s4.415 5.563 10.043 5.563S28.01 22.2 28.01 19.079c0-3.121-4.399-5.563-10.043-5.563zm7.698 7.359c-1.423 1.358-4.366 2.313-7.698 2.313s-6.275-.954-7.698-2.329c-.566-.534-.889-1.148-.889-1.779 0-2.215 3.93-4.108 8.587-4.108 4.641 0 8.587 1.876 8.587 4.108 0 .631-.323 1.245-.889 1.795z"/>
      <path fill="#86868b" style="fill:var(--color2, #86868b)" d="M17.962 30.546c-4.059 0-6.824-1.504-7.617-4.108l-1.569-5.143 1.391-.42 1.569 5.143c.582 1.957 2.846 3.073 6.21 3.073v1.455h.016zM17.967 30.545v-1.456c3.364 0 5.628-1.116 6.21-3.073l1.569-5.159 1.391.42-1.569 5.143c-.776 2.62-3.542 4.124-7.601 4.124z"/>
      <path fill="#9e9e9e" style="fill:var(--color1, #9e9e9e)" d="M25.665 20.873c-1.423 1.358-4.366 2.313-7.698 2.313s-6.275-.954-7.698-2.329c1.035-1.375 3.914-2.604 7.698-2.604 3.8.016 6.679 1.229 7.698 2.62z"/>
    </symbol>
    <symbol id="categori-icon5-mobile" viewBox="0 0 32 32">
      <path fill="#86868b" style="fill:var(--color2, #86868b)" d="M8.458 10.515A.728.728 0 0 1 9 10.273h14a.728.728 0 0 1 .723.807l-2 18a.727.727 0 0 1-.723.647H11a.727.727 0 0 1-.723-.647l-2-18a.725.725 0 0 1 .181-.565zm1.355 1.213 1.838 16.545h8.698l1.838-16.545H9.812z"/>
      <path fill="#86868b" style="fill:var(--color2, #86868b)" d="M6.273 6c0-.402.326-.727.727-.727h18c.402 0 .727.326.727.727v5a.727.727 0 0 1-.727.727H7A.727.727 0 0 1 6.273 11V6zm1.455.728v3.545h16.545V6.728H7.728z"/>
      <path fill="#9e9e9e" style="fill:var(--color1, #9e9e9e)" d="M22 19a6 6 0 1 1-12 0 6 6 0 0 1 12 0z"/>
      <path fill="#86868b" style="fill:var(--color2, #86868b)" d="M8.295.824a.726.726 0 0 1 .882-.529l4 1c.206.052.379.19.474.38l2 4a.728.728 0 0 1-1.301.651L12.5 2.625l-3.675-.919a.726.726 0 0 1-.529-.882z"/>
    </symbol>
    <symbol id="categori-icon4-mobile" viewBox="0 0 32 32">
      <path fill="#9e9e9e" style="fill:var(--color1, #9e9e9e)" d="M12 11.5a3.5 3.5 0 1 0-7 0zM27 11.5a3.5 3.5 0 1 0-7 0z"/>
      <path fill="#86868b" style="fill:var(--color2, #86868b)" d="M9.283 12.044a6.73 6.73 0 0 1 13.285-.216l-1.433.252a5.274 5.274 0 0 0-10.413.169l-1.44-.205zM23.671 11.89a5.727 5.727 0 0 1 7.192 8.517l-1.169-.866a4.273 4.273 0 0 0-5.366-6.354l-.658-1.297zM.273 17a5.727 5.727 0 0 1 8.55-4.984l-.718 1.265a4.273 4.273 0 0 0-5.495 6.321l-1.153.886A5.702 5.702 0 0 1 .273 17z"/>
      <path fill="#86868b" style="fill:var(--color2, #86868b)" d="M.273 24.862c0-8.057 6.532-14.589 14.589-14.589h2.277c8.057 0 14.589 6.532 14.589 14.589a.866.866 0 0 1-.866.866H1.139a.866.866 0 0 1-.866-.866zm1.468-.589h28.52c-.308-6.981-6.065-12.545-13.121-12.545h-2.277c-7.057 0-12.813 5.565-13.121 12.545z"/>
      <path fill="#9e9e9e" style="fill:var(--color1, #9e9e9e)" d="M14 16a1 1 0 1 1-2 0 1 1 0 0 1 2 0zM18 20a1 1 0 1 1-2 0 1 1 0 0 1 2 0zM25 19a1 1 0 1 1-2 0 1 1 0 0 1 2 0zM8 21a1 1 0 1 1-2 0 1 1 0 0 1 2 0z"/>
    </symbol>
    <symbol id="categori-icon3-mobile" viewBox="0 0 32 32">
      <path fill="#86868b" style="fill:var(--color2, #86868b)" d="M16.859 4.092c-1.425.838-2.131 1.891-2.131 2.909s.706 2.07 2.131 2.909c1.408.828 3.401 1.364 5.642 1.364s4.234-.536 5.642-1.364c1.425-.838 2.131-1.891 2.131-2.909s-.706-2.07-2.131-2.909c-1.408-.828-3.401-1.364-5.642-1.364s-4.234.536-5.642 1.364zm-.738-1.254c1.668-.981 3.925-1.565 6.379-1.565s4.711.584 6.379 1.565c1.651.971 2.848 2.419 2.848 4.162s-1.197 3.191-2.848 4.162c-1.668.981-3.925 1.565-6.379 1.565s-4.711-.584-6.379-1.565C14.47 10.191 13.273 8.743 13.273 7s1.197-3.191 2.848-4.162z"/>
      <path fill="#9e9e9e" style="fill:var(--color1, #9e9e9e)" d="M27 7c0 1.105-2.015 2-4.5 2S18 8.105 18 7s2.015-2 4.5-2 4.5.895 4.5 2z"/>
      <path fill="#86868b" style="fill:var(--color2, #86868b)" d="M13.273 7h1.454v10c0 1.018.706 2.07 2.131 2.909 1.408.828 3.401 1.364 5.642 1.364s4.234-.536 5.642-1.364c1.425-.838 2.131-1.891 2.131-2.909V7h1.455v10c0 1.744-1.197 3.191-2.848 4.162-1.668.981-3.925 1.565-6.379 1.565s-4.711-.584-6.379-1.565c-1.651-.971-2.848-2.419-2.848-4.162V7zM2.787 19.305a.727.727 0 0 1 .909.481l1.434 4.66a2.907 2.907 0 0 0 1.925 1.925l9.668 2.975a2.911 2.911 0 0 0 2.282-.245l6.64-3.735a.726.726 0 1 1 .713 1.267l-6.64 3.735a4.364 4.364 0 0 1-3.423.367L6.627 27.76a4.363 4.363 0 0 1-2.887-2.887l-1.434-4.66a.727.727 0 0 1 .481-.909z"/>
      <path fill="#9e9e9e" style="fill:var(--color1, #9e9e9e)" d="M27.456 27.578c-1.795-2.055-9.141-4.342-15.07-5.528-7.5-1.5-15 0-11.5-5.5 3.364-5.287 23.638-6.602 27.584 9.935.322 1.348-.625 1.538-1.013 1.093z"/>
      <path fill="#86868b" style="fill:var(--color2, #86868b)" d="M14.246 12.824a.728.728 0 0 1-.529.882c-1.054.264-2.081 1.033-2.997 2.172-.911 1.133-1.668 2.577-2.194 4.081-.526 1.505-.808 3.031-.797 4.317.011 1.316.324 2.232.814 2.698a.727.727 0 1 1-1.003 1.053c-.918-.874-1.253-2.283-1.265-3.74-.012-1.487.31-3.182.879-4.809.569-1.628 1.399-3.227 2.433-4.513 1.029-1.279 2.305-2.303 3.778-2.672.39-.097.785.14.882.529zm6.011 2.047a.727.727 0 0 1-.586.845c-.804.145-1.733.677-2.658 1.553-.916.867-1.778 2.027-2.457 3.335-1.372 2.644-1.907 5.718-.85 8.101a.728.728 0 0 1-1.33.59c-1.309-2.952-.586-6.519.889-9.361.744-1.435 1.701-2.73 2.747-3.721 1.037-.982 2.212-1.714 3.4-1.929a.727.727 0 0 1 .845.586z"/>
    </symbol>
    <symbol id="categori-icon2-mobile" viewBox="0 0 32 32">
      <path fill="#86868b" style="fill:var(--color2, #86868b)" d="M4.514 13.305a.727.727 0 0 1 .909.481l1.434 4.66a2.907 2.907 0 0 0 1.925 1.925l9.668 2.975a2.911 2.911 0 0 0 2.282-.245l6.64-3.735a.727.727 0 1 1 .713 1.267l-6.64 3.735a4.364 4.364 0 0 1-3.423.367L8.354 21.76a4.363 4.363 0 0 1-2.887-2.887l-1.434-4.66a.727.727 0 0 1 .481-.909z"/>
      <path fill="#9e9e9e" style="fill:var(--color1, #9e9e9e)" d="M29.183 21.578c-1.795-2.055-9.141-4.342-15.07-5.528-7.5-1.5-15 0-11.5-5.5 3.364-5.287 23.638-6.602 27.584 9.935.322 1.348-.625 1.538-1.013 1.093z"/>
      <path fill="#86868b" style="fill:var(--color2, #86868b)" d="M15.972 6.824a.727.727 0 0 1-.529.882c-1.054.263-2.081 1.033-2.998 2.172-.911 1.133-1.668 2.577-2.194 4.081-.526 1.505-.808 3.031-.797 4.317.011 1.316.324 2.232.814 2.698a.727.727 0 1 1-1.003 1.053c-.918-.874-1.253-2.283-1.265-3.74-.012-1.487.31-3.182.879-4.809.569-1.628 1.399-3.227 2.433-4.513 1.029-1.279 2.305-2.303 3.778-2.672a.727.727 0 0 1 .882.529zm6.012 2.047a.727.727 0 0 1-.586.845c-.804.145-1.733.677-2.658 1.553-.916.867-1.778 2.027-2.457 3.335-1.372 2.644-1.907 5.718-.85 8.101a.728.728 0 0 1-1.33.59c-1.309-2.952-.586-6.519.888-9.361.745-1.435 1.701-2.73 2.748-3.721 1.037-.982 2.212-1.714 3.399-1.929a.727.727 0 0 1 .845.586z"/>
    </symbol>
    <symbol id="categori-icon1-mobile" viewBox="0 0 32 32">
      <path fill="#86868b" style="fill:var(--color2, #86868b)" d="M9.303 6.381C7.61 7.397 6.727 8.699 6.727 10s.883 2.603 2.576 3.619c1.679 1.007 4.045 1.654 6.697 1.654s5.018-.646 6.697-1.654c1.693-1.016 2.576-2.318 2.576-3.619s-.883-2.603-2.576-3.619C21.018 5.374 18.652 4.727 16 4.727s-5.018.647-6.697 1.654zm-.748-1.247C10.496 3.97 13.13 3.273 16 3.273s5.505.697 7.445 1.861C25.371 6.29 26.727 7.988 26.727 10s-1.356 3.711-3.282 4.866C21.504 16.03 18.87 16.727 16 16.727s-5.505-.697-7.445-1.861C6.629 13.71 5.273 12.012 5.273 10s1.356-3.711 3.282-4.866z"/>
      <path fill="#9e9e9e" style="fill:var(--color1, #9e9e9e)" d="M22 10c0 1.657-2.686 3-6 3s-6-1.343-6-3 2.686-3 6-3 6 1.343 6 3z"/>
      <path fill="#86868b" style="fill:var(--color2, #86868b)" d="M5.273 10h1.454v12c0 1.301.883 2.603 2.576 3.619 1.679 1.007 4.045 1.654 6.697 1.654s5.018-.647 6.697-1.654c1.693-1.016 2.576-2.318 2.576-3.619V10h1.455v12c0 2.013-1.356 3.711-3.282 4.866-1.941 1.164-4.575 1.861-7.445 1.861s-5.505-.697-7.445-1.861C6.63 25.71 5.274 24.012 5.274 22V10z"/>
    </symbol>
    <symbol id="menu-btn-mobile" viewBox="0 0 32 32">
      <path fill="#f5f5f7" style="fill:var(--color3, #f5f5f7)" d="M9.6 0h12.8A9.6 9.6 0 0 1 32 9.6v12.8a9.6 9.6 0 0 1-9.6 9.6H9.6A9.6 9.6 0 0 1 0 22.4V9.6A9.6 9.6 0 0 1 9.6 0z"/>
      <path style="fill:var(--color4, #000)" d="M9.334 16.001c0-.368.298-.667.667-.667h12a.667.667 0 1 1 0 1.334h-12a.667.667 0 0 1-.667-.667zM9.334 12.001c0-.368.298-.667.667-.667h12a.667.667 0 1 1 0 1.334h-12a.667.667 0 0 1-.667-.667zM9.334 20.001c0-.368.298-.667.667-.667h12a.667.667 0 1 1 0 1.334h-12a.667.667 0 0 1-.667-.667z"/>
    </symbol>
    <symbol id="user-mobile" viewBox="0 0 32 32">
      <path fill="#686870" style="fill:var(--color5, #686870)" d="M10.976 18.311a3.333 3.333 0 0 1 2.357-.976h5.333a3.333 3.333 0 0 1 3.333 3.333v1.333a.667.667 0 1 1-1.334 0v-1.333a2 2 0 0 0-2-2h-5.333a2 2 0 0 0-2 2v1.333a.667.667 0 1 1-1.334 0v-1.333c0-.884.351-1.732.976-2.357zM15.999 10.668a2 2 0 1 0-.001 3.999 2 2 0 0 0 .001-3.999zm-3.333 2a3.333 3.333 0 1 1 6.665 0 3.333 3.333 0 0 1-6.665 0z"/>
      <path fill="none" stroke="#d2d2d7" style="stroke:var(--color6, #d2d2d7)" stroke-width=".8" d="M9.6.4h12.8a9.2 9.2 0 0 1 9.2 9.2v12.8a9.2 9.2 0 0 1-9.2 9.2H9.6a9.2 9.2 0 0 1-9.2-9.2V9.6A9.2 9.2 0 0 1 9.6.4z"/>
    </symbol>
    <symbol id="favourite-mobile" viewBox="0 0 32 32">
      <path fill="#686870" style="fill:var(--color5, #686870)" d="M10.447 12.589c.436-.738 1.147-1.256 2.218-1.256s1.724.521 2.133 1.067a3.625 3.625 0 0 1 .532 1.023l.019.062.003.013a.667.667 0 0 0 1.292-.001s0 0 0-.001v.001l.003-.012.019-.062a3.625 3.625 0 0 1 .532-1.023c.409-.545 1.062-1.067 2.133-1.067s1.782.518 2.218 1.256c.453.766.602 1.771.458 2.635-.283 1.699-1.756 3.229-3.319 4.387a18.631 18.631 0 0 1-2.69 1.649 18.78 18.78 0 0 1-2.69-1.649c-1.563-1.158-3.036-2.688-3.319-4.387-.144-.864.005-1.868.458-2.635zm5.551.744-.647.162v.002zm0-1.546a4.308 4.308 0 0 0-.133-.187c-.591-.788-1.605-1.6-3.2-1.6s-2.718.815-3.366 1.911c-.63 1.067-.815 2.396-.625 3.532.375 2.247 2.235 4.05 3.841 5.239a20.054 20.054 0 0 0 3.131 1.889l.056.026.015.007.006.003.276-.607-.275.607a.668.668 0 0 0 .55 0L15.999 22l.275.607.002-.001.004-.002.015-.007.056-.026.203-.098a20.054 20.054 0 0 0 2.928-1.791c1.606-1.189 3.466-2.992 3.841-5.239.189-1.136.005-2.465-.625-3.532-.647-1.096-1.77-1.911-3.366-1.911s-2.609.812-3.2 1.6a5.022 5.022 0 0 0-.133.187z"/>
      <path fill="none" stroke="#d2d2d7" style="stroke:var(--color6, #d2d2d7)" stroke-width=".8" d="M9.6.4h12.8a9.2 9.2 0 0 1 9.2 9.2v12.8a9.2 9.2 0 0 1-9.2 9.2H9.6a9.2 9.2 0 0 1-9.2-9.2V9.6A9.2 9.2 0 0 1 9.6.4z"/>
    </symbol>
    <symbol id="bell-mobile" viewBox="0 0 32 32">
      <path fill="#686870" style="fill: var(--color1, #686870)" d="M12.606 9.94c-0.9 0.9-1.406 2.121-1.406 3.394 0 2.215-0.474 3.581-0.902 4.367-0.215 0.395-0.424 0.652-0.566 0.802-0.071 0.075-0.126 0.124-0.158 0.15-0.015 0.013-0.025 0.020-0.029 0.023l0.007-0.005 0.002-0.001c-0.003 0.002-0.006 0.004-0.009 0.006-0.285 0.197-0.412 0.557-0.311 0.89 0.102 0.337 0.413 0.568 0.766 0.568h12c0.352 0 0.664-0.231 0.766-0.568 0.101-0.333-0.025-0.693-0.311-0.89-0.003-0.003-0.013-0.010-0.029-0.023-0.032-0.026-0.087-0.075-0.158-0.15-0.142-0.15-0.35-0.407-0.566-0.802-0.429-0.786-0.902-2.151-0.902-4.367 0-1.273-0.506-2.494-1.406-3.394s-2.121-1.406-3.394-1.406c-1.273 0-2.494 0.506-3.394 1.406zM20.335 18.534h-8.669c0.012-0.022 0.025-0.044 0.037-0.067 0.571-1.047 1.098-2.682 1.098-5.133 0-0.849 0.337-1.663 0.937-2.263s1.414-0.937 2.263-0.937c0.849 0 1.663 0.337 2.263 0.937s0.937 1.414 0.937 2.263c0 2.451 0.526 4.086 1.098 5.133 0.012 0.023 0.025 0.045 0.037 0.067zM22.445 18.669l-0.001-0.001-0.444 0.666c0.444-0.666 0.445-0.665 0.445-0.665z"></path>
      <path fill="#686870" style="fill: var(--color1, #686870)" d="M14.449 21.308c0.382-0.222 0.872-0.092 1.093 0.291 0.047 0.081 0.114 0.148 0.195 0.195s0.173 0.071 0.266 0.071c0.093 0 0.185-0.024 0.266-0.071s0.148-0.114 0.195-0.195c0.222-0.382 0.711-0.512 1.093-0.291s0.512 0.711 0.291 1.093c-0.188 0.323-0.457 0.592-0.781 0.778s-0.691 0.285-1.065 0.285c-0.374 0-0.741-0.098-1.065-0.285s-0.593-0.455-0.781-0.778c-0.222-0.382-0.092-0.872 0.291-1.093z"></path>
      <path fill="none" stroke="#d2d2d7" style="stroke: var(--color2, #d2d2d7)" stroke-linejoin="miter" stroke-linecap="butt" stroke-miterlimit="4" stroke-width="0.8" d="M9.6 0.4h12.8c5.081 0 9.2 4.119 9.2 9.2v12.8c0 5.081-4.119 9.2-9.2 9.2h-12.8c-5.081 0-9.2-4.119-9.2-9.2v-12.8c0-5.081 4.119-9.2 9.2-9.2z"></path>
    </symbol>
    <symbol id="ninja-sushi-logo-mobile" viewBox="0 0 77 32">
      <path fill="#1d1d1f" style="fill:var(--color9, #1d1d1f)" d="M30.484 11.133c-.41-.957-.865-2.021-2.765-1.37V4.597c0-2.668-4.51-4.598-10.004-4.598S7.711 1.929 7.711 4.597v22.805c0 2.668 4.51 4.598 10.004 4.598s10.004-1.93 10.004-4.598V13.64c1.695.222 2.06 1.551 1.744 2.925l1.744.276c.391-2.52-.468-4.196-3.488-4.327v-1.051c1.16-.557 1.869.354 2.597 1.288.596.766 1.205 1.547 2.084 1.547 1.285 0 2.295-.644 3.029-1.931l-1.56-2.115c-.306 1.41-1.04 2.115-2.203 2.115-.653 0-.907-.593-1.181-1.234zm-10.103 6.025c-.889-.216-1.804-.438-2.704-.438-.915 0-1.838.227-2.734.446-2.338.573-4.481 1.099-5.755-2.58-1.554-4.488 1.993-3.499 5.228-2.598 1.255.35 2.463.687 3.307.685.812-.001 1.977-.317 3.195-.647 3.207-.868 6.782-1.836 5.248 2.559-1.279 3.666-3.446 3.14-5.786 2.572zm-7.168-3.327c-.394-.18-.784-.346-1.152-.465-.051.65.23 1.254.857 1.843.547.514 1.063.574 1.616.13.182-.2.34-.426.474-.678a18.98 18.98 0 0 1-.699-.313.736.736 0 0 1-.725.854.735.735 0 0 1-.371-1.371zm-3.3.175c.237-.712.762-.898 1.427-.812-.112.916.252 1.778 1.075 2.552.237.223.478.386.719.491a5.105 5.105 0 0 1-1.294.252c1.866.35 3.203-.162 4.014-1.536.778.188 1.31.004 1.31-1.038-.271 1.086-1.505.34-2.882-.492-1.89-1.142-4.05-2.447-4.369.584zm11.201.327c-.241.124-.478.241-.706.338.134.254.293.481.476.683.553.444 1.069.384 1.616-.13.657-.617.934-1.25.847-1.935-.396.118-.809.307-1.223.516a.736.736 0 0 1-.291 1.412.735.735 0 0 1-.719-.884zm-2.684.148c.277.407.663.516 1.115.454.808 1.399 2.152 1.922 4.033 1.569a5.113 5.113 0 0 1-1.294-.252 2.56 2.56 0 0 0 .719-.491c.838-.787 1.2-1.665 1.07-2.598.56-.013 1.058.213 1.433.858-.357-3.294-2.401-1.96-4.308-.715-1.074.701-2.105 1.374-2.767 1.175zm-.367-1.379c0 .513.275.92.734 1.012-.459.092-1.01-.276-.734-1.012zm8.371-8.504c0 1.801-3.874 3.494-8.719 3.494s-8.72-1.693-8.72-3.494c0-1.801 3.874-3.494 8.72-3.494s8.719 1.693 8.719 3.494z"/>
      <path fill="#f63" style="fill:var(--color7, #f63)" d="M22.029 4.598c0 1.016-1.931 1.839-4.314 1.839s-4.314-.823-4.314-1.839 1.931-1.839 4.314-1.839 4.314.823 4.314 1.839z"/>
      <path fill="#1d1d1f" style="fill:var(--color9, #1d1d1f)" d="M52.6 3.045c.362.138.568.337.619.598l.09-.07.145-.029.01.051-.027.105.485-.097.596.191.064.088-.145.029.01.05c.133.333.334.671.6 1.013a5.26 5.26 0 0 1 .851 2.042l.134.695c.1-.02.297.473.591 1.478l.048.249c.007.034-.007.054-.04.06l.069.087c.029.153.013.415-.051.784.171.189.284.423.338.702l.02.101.095-.019c.066-.013.106-.244.12-.693l.05-.01-.069-.091-.029-.147c.132-.272.165-1.068.098-2.389.056-.161.096-.476.118-.946.151-.68.302-1.123.453-1.328l.05-.01a.403.403 0 0 0 .012-.208L58 5.312l.003.257c.106-.021.194-.262.265-.722l-.01-.051.105.032-.01-.051c-.033.007-.053-.007-.06-.041.051-.01.112-.056.181-.136.006.031.024.043.054.037.153-.441.326-.681.519-.72l.05-.01.038.198-.343.584-.105-.032-.149.03.01.051.195-.039.019.101c-.19.232-.281.37-.273.413-.109.49-.236 1.579-.379 3.267l.01.051.045-.009c.129-.341.195-.784.199-1.33l.16-.753.054-.011c.006-.138.035-.212.087-.222l.05-.01a.401.401 0 0 0 .148.229l.012.063a.215.215 0 0 1 .059-.025l.01.051a8.74 8.74 0 0 0-.113.997l.05-.01c.076-.015.123-.298.141-.85.196-.039.317-.372.362-.999l.1-.02c.014.071-.01.298-.07.683.081-.016.142.04.183.169l-.002.258c.052.091.095.134.128.127l.027.921c.02.101.078.142.174.123l.009.046a47.53 47.53 0 0 1-.121 4.09c-.108.576-.319 1.408-.632 2.496-.241.666-.378 1.002-.411 1.009l-.276.155c-.014-.074-.105-.107-.273-.098.015.08-.137.161-.456.244a1.115 1.115 0 0 0-.526-.359c-.009-.046-.068-.085-.178-.118l-.045.009.02.101c-.278-.206-.422-.331-.43-.377-.656-.946-1.028-1.644-1.115-2.095a15.364 15.364 0 0 0-.413-1.36l.031-.106-.272-.873.05-.01-.069-.091-.173-.893-.14-.483-.199.04c.016.08-.018.257-.099.531l.099-.02c-.025.39-.028.631-.01.724.03-.006.048.008.055.042-.106.021-.126.265-.06.733l.098.239a1.016 1.016 0 0 1-.118.434c.006.034.026.047.06.04.025.486.017.796-.022.931a.376.376 0 0 1 .074.138c-.097.211-.154.701-.171 1.472-.033.351-.066.529-.099.536l-.145.029c-.071.393-.183.605-.334.635-.074-.122-.135-.179-.183-.169l-.1.02-.236.095c-.029-.147-.194-.216-.496-.207l.002-.258c-.032-.166-.113-.235-.243-.21l-.058-.299c-.031-.163-.128-.228-.291-.195-.145-.748-.123-2.039.064-3.873-.006-.034-.026-.047-.06-.041l-.001-.516.109.031-.058-.299c.112-.022.148-.184.108-.485l-.067-.345c.075-.015.102-.14.078-.374l-.084-.193c.011-.104.033-.159.066-.166-.006-.034-.026-.047-.06-.041-.02-.28-.014-.52.016-.72a.363.363 0 0 1-.079-.142.402.402 0 0 1 .136-.075c-.049-.076-.113-.235-.191-.478.042-.009.088-.121.137-.338a.353.353 0 0 1-.078-.137l.05-.01-.069-.091c.034-.879-.002-1.85-.107-2.912a.812.812 0 0 1 .371-.174l.145-.029c.033-.007.053.007.06.041l.09-.07zm6.141 2.701.029.152c-.063.013-.086.068-.067.166l-.05.01a.367.367 0 0 0-.078-.137c.1-.02.14-.081.12-.182l.045-.009zm-.849-.208.02.101-.031.106.109.031.05-.01-.01-.051-.1.02.031-.106-.01-.051c-.007-.034-.026-.047-.06-.041z"/>
      <path fill="#1d1d1f" style="fill:var(--color9, #1d1d1f)" d="m60.873 2.376.27.056.011-.056.365.133-.01.051c-.107-.022-.168.004-.183.079l.121-.034.05.01-.011.056-.138.142c-.011.054.032.119.128.196l.11.022c.02-.099.088-.16.204-.186l.01-.051.216.044c-.011.058.186.287.594.688.321.398.619.972.895 1.724.266 1.117.373 1.805.322 2.063l-.055-.011c.065.621.108 1.352.129 2.193a.404.404 0 0 0-.088.157c.11.022.139.351.086.987l-.076.095-.068 1.475c-.124.257-.191.413-.202.467l-.01.342.05.01.121-.034-.022.112-.076.096c.037.007.051.03.044.067-.037-.007-.059.007-.066.045l.108.022c.465-.671.802-1.212 1.009-1.623 0-.08.111-.209.332-.39l.823-1.844c-.037-.021-.056-.152-.056-.395.259-.557.424-.836.496-.836.269-.596.711-1.865 1.324-3.807l.496-1.174a.417.417 0 0 1-.056-.166c.136 0 .337-.168.603-.504h.225l.051.223h.056c.075 0 .112-.038.112-.114l.547.057h.112c0 .111.036.166.107.166h.056c0-.111.037-.166.113-.166h.056c.072.01.107.048.107.114l.112-.057h.051v.223h.112c.072 0 .107-.038.107-.114v-.052l-.051-.114.276-.057h.107l-.056.114v.166c.075 0 .112.074.112.223h.44c0 .038-.019.057-.056.057.017.187.073.28.169.28v.332c.02.398.129.679.327.842 0 .017.056.204.169.561l.107-.057h.056l.22.841c.101 0 .155.094.162.283l.001.049h.169c.003.211.113.622.327 1.231a2.722 2.722 0 0 0-.056.446l.112.057c0-.038.019-.057.056-.057 0 .076.109.319.327.727 1.135-.111 1.815-.166 2.04-.166v.114h-.113l.056.275-1.099.337.051.114c0 .177-.164.287-.491.332v.057h.107v.114l-.107.166v.109c.293.945.532 1.785.716 2.519 0 .059.036.133.107.223v.057c0 .038-.019.057-.056.057l.496 1.454c-.034 0-.051.019-.051.057.157 0 .32.577.491 1.73-.123 0-.213.093-.271.28h-.332c0 .114-.092.172-.276.172-.129-.128-.46-.279-.992-.452 0-.059-.275-.17-.823-.332 0-.042-.111-.135-.332-.281v-.114l.384.057h.169c.072 0 .107-.036.107-.109 0-.118-.347-1.032-1.043-2.742 0-.229-.184-.807-.552-1.735a13.4 13.4 0 0 1-2.311.504c0-.038-.019-.057-.056-.057 0 .111-.111.185-.332.223-.624.145-.936.351-.936.618-.232.748-.452 1.269-.66 1.564v.171c.109 0 .164.036.164.109v.057l-.107-.057h-.112c-.109.291-.164.478-.164.561l-.112-.057c0 .097-.111.209-.332.338 0 .069-.201.405-.603 1.008l-.113.052h-.107l-.22-.166h-.056c-.072.01-.107.048-.107.114a.404.404 0 0 1 .051.166l-.107.057c-.048-.038-.14-.057-.276-.057 0 .111-.073.166-.22.166l-.884-.613c-.227 0-.447-.27-.662-.81-.018.244-.076.614-.175 1.111l-.087.438c-.05.255-.111.375-.181.361l-.054.561-.064.326c-.197.61-.439.979-.725 1.107-.076.06-.212.106-.407.138l-.024.008c-.153.128-.044.093-.169.22-.042.019-.139.028-.288.03v.001a.622.622 0 0 1-.345.029c-.167.199-.296.319-.386.36l-.545-.006c-.496.059-1.113.07-1.851.033-.568-.28-1.241-.488-2.018-.624-.387-.3-.731-.451-1.033-.452-.073-.168-.59-.529-1.552-1.082-.321-.182-.514-.259-.58-.229-.242-.259-.41-.367-.504-.325l-.088-.204c.918.366 1.411.533 1.479.502l-.023-.052-.461-.226-.021-.047.052-.023c.01.022.302.138.877.348s1.06.316 1.455.317c.32.061.526.071.616.031l.051-.023c.056-.025.074-.073.055-.144-1.352-.345-2.07-.616-2.156-.812l-.076.096c-.103.046-.206-.05-.309-.288l-.098.044.043.1-.052.023a1.76 1.76 0 0 0-.228-.386l.103-.046.023.052c1.758.637 2.966.973 3.625 1.007 0 0 1.853.414 2.714-.086 1.551-.901 1.153-7.005 1.153-7.005l.121-1.745c.017-1.229-.098-2.545-.345-3.949-.118-.314-.596-1.547-.545-1.802.08-.174.151-.255.215-.242l.16.033c.014-.071.04-.103.076-.096zm12.764 9.004c.222.859.387 1.288.496 1.288v-.057c0-.045-.019-.23-.056-.556l.056-.28c-.037 0-.056-.019-.056-.057l-.107.057h-.113c0-.263-.073-.395-.22-.395zm-3.384-4.502c-.174.232-.358.642-.552 1.231a6.211 6.211 0 0 1-.44 1.506h-.056v.223c.188 0 .794-.149 1.82-.447v-.057c0-.08-.257-.881-.772-2.405v-.052zM68.59 4.176h-.22v.114h.113c-.552 1.188-.828 2.008-.828 2.462.078-.017.152-.111.22-.28a.479.479 0 0 1-.051-.223c.085 0 .25-.317.496-.95l-.056-.114v-.057c.201-.232.31-.549.327-.95zM45.067 15.586c-.661-.038-.992-.187-.992-.446a.434.434 0 0 1-.276-.114c0 .038-.019.057-.056.057 0-.045-.147-.194-.44-.447 0-.159-.147-.327-.44-.504-.337-.201-.796-1.002-1.375-2.405-.12-.172-.192-.19-.214-.054.034.284.051.61.051.977 0 .055-.017.083-.051.083l.051.114v.338c0 .073-.036.258-.107.556l.107-.052c.038.384.056.608.056.67h-.056l.056.109v.395l.056.28c-.075 0-.112.055-.112.166 0 .031.019.18.056.447l-.603.223c-.222 0-.332-.185-.332-.556h-.113a1.727 1.727 0 0 0-.051.39h-.056c0-.236-.184-.385-.552-.447 0-.249-.092-.549-.276-.898a.396.396 0 0 1-.164.057v.057h.112v.057c0 .035-.019.052-.056.052l.056.114v.114c-.296-.27-.445-.774-.445-1.512.075-.769.113-1.319.113-1.652a4.26 4.26 0 0 0-.113-1.034c0-.034.019-.184.056-.447 0-.048-.019-.236-.056-.561l.056-.28a.551.551 0 0 1-.056-.28h.056c-.072-.197-.126-.476-.164-.836h.056c-.453-2.351-.857-3.527-1.211-3.527l-.113-.39v-.057c.01-.076.048-.114.113-.114h.051l.113.057c0-.038.019-.057.056-.057l-.056-.109c.01-.076.046-.114.107-.114a.4.4 0 0 0 .169.057c0-.055.054-.111.164-.166.221.156.332.324.332.504.106 0 .271-.093.496-.28l.155-.005c0 .149.146.223.44.223v.114h-.112v.052c.198 0 .344.057.44.172l-.051-.114v-.057h.107c0 .066.111.234.332.504.658 1.645 2.554 4.406 3.475 7.834.078 0 .152.168.22.504.368-.405.699-1.655.992-3.75 0-.035-.019-.052-.056-.052.065-.897.157-1.345.276-1.345 0 .042.019.097.056.166-.075.149-.113.355-.113.618 0 .083.019.158.056.223-.037.433-.092.769-.163 1.008.037.26.092.389.163.389h.056c0-.149.036-.223.107-.223v-.556a.4.4 0 0 0 .169-.057c-.038-.079-.075-.247-.113-.504a.396.396 0 0 1 .164-.057l-.051-.28c.034 0 .051-.019.051-.057h-.107v-.109c.147 0 .22-.43.22-1.288.051-.253.106-.421.164-.504-.071 0-.107-.055-.107-.166v-.618h-.056v-.052c0-.038.019-.057.056-.057l-.056-.114c.085-.083.158-.325.22-.727l-.056-.109a.922.922 0 0 0 .113-.447l-.056-.114h.113v-.057h-.113V4.4c.174-.381.431-.681.772-.899.331.063.496.137.496.224v.114c-.409.166-.74.483-.992.95l.056.114-.169 1.231h.113l-.113.166c0 .083.019.158.056.223l-.107.28.051.28-.051.109.051.338v.166c-.071.364-.107.57-.107.618 0 .083.019.158.056.223-.075.187-.131.28-.169.28l.056.109c0 .187-.036.28-.107.28l.051.114-.107.166c.037.204.056.353.056.446-.038 0-.056.019-.056.057h.107c0-.374.092-.729.276-1.065l-.056-.332v-.057c.15 0 .225-.149.225-.447h.051l-.051-.114c.085-.121.14-.289.164-.504a.549.549 0 0 1-.056-.28h.056l-.056-.109.112-.171v-.052a.43.43 0 0 0-.056-.223c.072-.263.126-.395.164-.395-.038-.049-.056-.142-.056-.28.038 0 .056-.017.056-.052l-.056-.229c.051-.17.125-.261.22-.275l-.051-.114a.479.479 0 0 0 .051-.223h.112c-.037.502-.056.874-.056 1.117v.395c-.109 0-.164.036-.164.109.109 0 .164.187.164.561h.056c.147-.287.22-.455.22-.504a.402.402 0 0 1-.056-.166l.056-.561a.402.402 0 0 1-.056-.166c.112 0 .169-.074.169-.224h.107v.052c-.147.769-.22 2.038-.22 3.807h-.056c0 .038.019.057.056.057l-.056.28v.109l.22-.109v.052c-.072.758-.237 1.915-.496 3.47 0 .447-.274 1.063-.823 1.849 0 .228-.331.358-.992.389zM49.922 14.279h-.327c0-.073-.111-.147-.332-.223-.552-.596-.828-2.143-.828-4.644-.034 0-.051-.074-.051-.223 0-.038.017-.057.051-.057l-.051-.28v-.504c0-.035.017-.052.051-.052a.444.444 0 0 1-.051-.172l.051-1.34h.056c0-.038-.019-.057-.056-.057.048-.505.085-.803.113-.894 0-.038-.019-.057-.056-.057 0-.038.019-.094.056-.166.038-.942.056-1.688.056-2.239 0-.609-.073-1.394-.22-2.353.16-.298.325-.447.496-.447.211 0 .339.094.384.281.269.063.508.249.716.561 0 .1.037.211.112.332l.108-.052h.056c.072.509.107.788.107.836h.112V2.42c.157 0 .249.26.276.779.051 0 .125.261.22.784.038 0 .056.019.056.057s-.019.057-.056.057l.164 1.174a2.882 2.882 0 0 0-.056.504v.613a.492.492 0 0 1-.051.229.408.408 0 0 1 .051.166c-.133 1.378-.242 2.067-.327 2.067l.056.395v1.007a.445.445 0 0 1-.056.223c.038.066.056.14.056.224v.057c0 .073-.038.109-.112.109 0-.038-.019-.057-.056-.057v.057l.112.166v.114l-.22 1.792-.276.447a.437.437 0 0 0-.332.166c0 .038.019.057.056.057l-.056.561v.109z"/>
      <path fill="#1d1d1f" style="fill:var(--color9, #1d1d1f)" d="m40.93 30.063.054-.108.103.054a.417.417 0 0 0 .211-.054l.108.054a.412.412 0 0 1 .211-.054h.103l.319.054c.271-.052.464-.158.578-.318.072 0 .108.054.108.161.669-.238 1.004-.485 1.004-.739l.103.054h.054c0-.065.052-.119.157-.162.457-.352.686-.563.686-.631.565-.316.847-.563.847-.739.317-.238.475-.414.475-.529.421-.154.632-.364.632-.632l-.054-.475c0-.059.036-.093.108-.103-.176-.271-.265-.429-.265-.475-.333-.134-.58-.416-.74-.847v-.049h.108c.385.258.578.432.578.524h.108c0-.28-.529-.684-1.587-1.209-.33-.352-1.226-.705-2.689-1.057-1.616-.317-2.777-.633-3.482-.95 0-.065.106-.258.318-.578.353-.294.529-.47.529-.529.428-.254.656-.465.686-.631.131-.105.5-.281 1.107-.529.411.281.674.421.789.421l.264-.049-.054-.108v-.054h.108v-.421c0-.378-.405-.783-1.215-1.214-.366-.199-.945-.339-1.739-.421-.094 0-.411.194-.95.582a1.135 1.135 0 0 1-.319.524 3.497 3.497 0 0 0-.74.896 2.372 2.372 0 0 0-.524 1.532c0 .352.07.529.211.529.092.245.18.367.264.367.294.447.487.676.578.685.379.353.643.529.793.529.203.264.923.545 2.16.842.072 0 .108-.036.108-.108.153.108 1.208.372 3.164.793 0 .166-.088.343-.264.529-.206.382-.416.662-.632.842-.758.551-1.391.868-1.9.949l-.367-.054a4.363 4.363 0 0 1-.686.162v-.054l-.897.103c-.313-.104-.508-.157-.583-.157v-.054c.248-.421.372-.702.372-.842v-.054c-.228 0-.651.228-1.269.685l.054.264c-.245.176-.367.282-.367.318v.157c.163.281.268.421.313.421l-.054.108v.049c.072.251.108.393.108.426 0 .186.228.467.686.842.202.209.519.367.95.475l.103-.054 1.058.108zm10.188-.584c0-.078.122-.218.367-.421.398-.095.645-.201.74-.318l-.054-.103c.284-.388.46-.582.529-.582.092-.317.162-.475.211-.475h.103c.141.565.265.951.372 1.16.036 0 .054-.016.054-.049l.103.049v-.157l-.054-.103c.036 0 .054-.018.054-.054h-.103v-.318h-.108v-.054l.054-.103h.054c.189.737.312 1.106.368 1.106 0-.036.018-.088.054-.157a11.263 11.263 0 0 1-.265-1.111c.036 0 .054-.016.054-.049h.049c.098.349.186.524.265.524a.384.384 0 0 0-.054-.157.41.41 0 0 0 .054-.21v-.264l-.054-.103h.054c-.14-.659-.211-1.046-.211-1.16h.054c0-.284.07-.426.211-.426l-.054-.524v-.475c0-.036.018-.054.054-.054.203-.476.413-1.426.632-2.849l-.054-.259c.036-.476.054-.881.054-1.214v-.739c0-.059.036-.095.108-.108l.103.318h.054c0-.163.052-.285.157-.367 0-.059-.034-.095-.103-.108 0-.036.018-.054.054-.054a1.1 1.1 0 0 0-.372-.842.384.384 0 0 0-.157.054.384.384 0 0 1-.157-.054v.108h-.211v-.162l-.318-.21-.265.054h-.054v-.157h-.103l-.108.049-.054-.103c-.137 0-.295.122-.475.367h-.157v-.103h-.103v.157a1.59 1.59 0 0 0-.475.421c0 .274.052 1.1.157 2.477a.421.421 0 0 0-.054.215l.054.103h-.054l.054.367v.739c-.385 1.595-.772 2.721-1.161 3.378-.669.842-1.091 1.263-1.264 1.263-.085-.209-.157-.313-.215-.313 0-.352-.087-.528-.26-.528l.049-.108a.614.614 0 0 0-.103-.313l.054-.264c-.108-.483-.18-.765-.216-.847h.054c-.104-1.472-.157-2.49-.157-3.054v-.054l-.054-.108h.054l-.054-.524v-.054c0-.186.018-.485.054-.896-.059 0-.095-.036-.108-.108l.161-.788-.161-.108.108-.157v-.372h-.157c-.248.072-.39.108-.426.108h-.049c0-.072-.036-.108-.108-.108l.054-.103v-.054c-.212-.023-.318-.075-.318-.157-.127 0-.216.018-.264.054-.033 0-.049-.054-.049-.162l-.265.054v-.108a.387.387 0 0 1-.162.054c-.134.212-.238.318-.313.318l-.157-.108h-.054v.054c0 .072-.07.108-.211.108-.042.317-.096.475-.162.475l.318 1.527c-.046 0-.081.106-.108.318 0 .065.036.188.108.367h-.054c.082 1.018.136 1.527.162 1.527 0 1.579.299 2.986.896 4.219 0 .202.369.607 1.107 1.214h.103l.108-.054c.212.366.441.576.686.632l.108-.049c.153.14.258.211.313.211l.211-.054c.131.104.377.157.74.157h.108zm3.102.849v-.054c0-.059-.034-.095-.103-.108l.103-.157v-.054a.384.384 0 0 1-.157-.054l.054-.103v-.21h-.108a.51.51 0 0 1-.054.264c.036.059.072.217.108.475h.157zm12.362 1.097-.211-.103a.41.41 0 0 1-.162.049l-.211-.049a.4.4 0 0 1-.157.049c0-.091-.124-.162-.372-.21a1.136 1.136 0 0 0-.421-.524c-.209-.378-.367-.906-.475-1.581l.054-.108a.384.384 0 0 1-.054-.157h.054c-.062-.114-.132-.607-.211-1.478h.054c-.065-.212-.242-1.863-.529-4.954-.036 0-.088-.282-.157-.847 0-.036.018-.088.054-.157 0-.365-.212-.77-.637-1.214 0-.023-.088-.27-.265-.739.039-.157.163-.279.372-.367h.054v.103c.248-.069.389-.103.421-.103h.054v.318h.103l-.054.103v.054c.072 0 .108.018.108.054l.421-.264h.054v.054a.35.35 0 0 0-.054.157c.036 0 .054.018.054.054a.384.384 0 0 1 .157-.054c.307.02.624.3.95.842 0 .232.123.584.368 1.057.248 2.255.372 3.485.372 3.691h.054c.8-.108 1.398-.162 1.793-.162h.211c.317 0 .475-.192.475-.578h.054l-.054-.108v-.049c.176 0 .353-1.056.529-3.167-.072 0-.108-.034-.108-.103v-.318c.189 0 .33-.052.421-.157h.108l.049.264c-.033 0-.049.016-.049.049l.103.054c0-.036.018-.054.054-.054l-.054-.103v-.054c.232 0 .372-.106.421-.318h.108c0 .039.018.093.054.162l.103-.054h.054c0 .117.018.205.054.264l.103-.054c.072.01.108.046.108.108v.049h-.108v.054h.162l.049-.103a.422.422 0 0 1-.049-.162h.103c.212.186.318.344.318.475h.157l.108-.054-.054-.103c.01-.072.044-.108.103-.108.261 0 .403.054.426.162v.103c0 .072-.054.108-.162.108.141.366.211.594.211.685-.173.698-.259 1.576-.259 2.634l.103.054c0-.036.018-.054.054-.054 0 .072.018.107.054.107l.21-.107v.054c0 .104-.14.174-.421.21v.318h.367l.686-.157c0 .033.018.049.054.049 0-.068.141-.12.421-.157v.054c0 .046-.229.168-.686.367 0 .14-.317.299-.95.475v.108l.265-.054c.036 0 .054.018.054.054a.384.384 0 0 1 .157-.054h.108v.054c-.424.052-.637.122-.637.21 0 .105-.018.157-.054.157l.054.108a4.063 4.063 0 0 0-.103.524l.049.318c0 .323-.104 1.131-.313 2.423h-.108v-.103h-.049v.685h-.162l-.211-.157c0 .059-.088.217-.264.475 0 .375-.104.586-.313.632 0 .104-.176.157-.529.157h-.054c0-.104-.052-.157-.157-.157h-.054v-.421a.393.393 0 0 0-.054-.21c0-.036.018-.054.054-.054 0-.072-.018-.108-.054-.108.082-1.335.152-2.002.211-2.002l-.049-.108c.069-.242.103-.452.103-.631v-.421l.054-.264c-.085-.068-.155-.103-.21-.103-.519.104-.872.191-1.058.259v.318c-.091 0-.214.194-.367.583l-.475 1.052a.384.384 0 0 1-.157.054v.421c0 .085-.088.243-.265.475 0 .209-.036.313-.108.313l.054.108c-.281.3-.421.476-.421.529v.264l.054.103c-.118 0-.188.07-.211.21zm2.544-6.965c.166-.532.289-.814.367-.847a1.2 1.2 0 0 0-.157-.367l.103-.157h-.049c-.059 0-.131.122-.216.367l.054.264c-.016.14-.069.21-.157.21v.054l.054.103h-.108v.264c.013.072.049.108.108.108zm1.312 4.33c.085 0 .137-.176.157-.529a.396.396 0 0 1-.049-.157h.103v-.21c0-.072-.034-.108-.103-.108l.049-.264v-.524c0-.036.018-.054.054-.054l-.054-.108c0-.036.018-.088.054-.157l-.103-.475c.032 0 .049-.018.049-.054h-.103v.372a.41.41 0 0 1-.054.21c0 .036.018.054.054.054l-.054.259v.108l.054.367h-.054l.054.108v.103c0 .072-.036.108-.108.108.072.114.108.22.108.318v.26l-.054.372zm-.375.47c.069-.264.103-.423.103-.475 0-.036-.018-.054-.054-.054l.054-.264v-.578l-.054-.636h.054l-.054-.103v-.367c0-.036.018-.054.054-.054-.036-.046-.054-.17-.054-.372-.069.013-.103.049-.103.108v.367c0 .202-.018.326-.054.372.036.189.054.348.054.475v1.581h.054zm-2.366-1.318c0-.114.123-.359.367-.734l.264-.529v-.108h-.054a2.377 2.377 0 0 0-.475.847c-.023 0-.093.088-.211.264v.259h.108zm-1.219.847c.209-.229.596-.809 1.161-1.743 0-.033.018-.049.054-.049v.157h.103c0-.147.036-.323.108-.528h-.054v.054c-.036 0-.054-.018-.054-.054-.578.212-.911.318-.999.318-.238-.104-.379-.157-.421-.157v.157a.44.44 0 0 0 .049.21c0 .036-.016.054-.049.054.033.16.067.687.103 1.581zm8.327 2.272v-.103l.054-.529c-.036 0-.054-.018-.054-.054a.422.422 0 0 1 .319-.157l.264-.421.211-1.689V28l-.108-.157v-.054c.036 0 .054.018.054.054.072 0 .108-.034.108-.103v-.054a.414.414 0 0 0-.054-.211.41.41 0 0 0 .054-.21v-.949l-.054-.372c.082 0 .186-.65.314-1.948a.395.395 0 0 0-.049-.157.465.465 0 0 0 .049-.216v-.578c0-.127.018-.285.054-.475l-.157-1.106c.036 0 .054-.018.054-.054s-.018-.054-.054-.054c-.091-.493-.162-.739-.211-.739-.026-.49-.114-.734-.264-.734v.103h-.108c0-.046-.034-.308-.103-.788h-.054l-.103.049a.6.6 0 0 1-.108-.313c-.199-.294-.428-.47-.686-.529-.043-.176-.165-.264-.367-.264-.163 0-.322.14-.475.421.14.904.21 1.643.21 2.217 0 .519-.018 1.222-.054 2.11a.38.38 0 0 0-.054.157c.036 0 .054.018.054.054-.026.085-.062.366-.108.842.036 0 .054.018.054.054h-.054l-.049 1.263a.41.41 0 0 0 .049.162c-.033 0-.049.016-.049.049v.475l.049.264c-.033 0-.049.018-.049.054 0 .14.016.21.049.21 0 2.356.264 3.815.793 4.376.212.072.318.142.318.21h.313zm-17.019-10.82c.489-.182.948-.334 1.377-.456h.047v.089c-.154.009-.23.04-.23.094-.276.017-.414.078-.414.183h-.136a.519.519 0 0 0-.32.136h-.324v-.047zm5.24 6.965h.047c0-.065-.045-.158-.136-.277v-.136l.043-.094-.273-.46a9.335 9.335 0 0 0-1.747-1.376c-.639-.378-.96-.592-.963-.643-.253-.108-.926-.52-2.02-1.235-.599-.338-1.011-.69-1.236-1.056.014-.122.06-.183.136-.183 0-.204.936-.535 1.732-.862.46-.125.69-.232.69-.32.793-.264 1.236-.433 1.33-.507.46-.102.69-.179.69-.23.068 0 .129.108.183.324l-.047.089c0 .063.045.093.136.093v.047c-.091 0-.136.046-.136.136.031.153.124.352.277.596h.136l-.047-.094h.136c.134-.398.242-.596.324-.596v-.09a.91.91 0 0 1 .136-.46.361.361 0 0 1-.047-.183c-.014-.105-.258-.304-.733-.596l-.78-.23h-.047c-.21 0-.439.047-.686.14-.861.182-1.412.365-1.654.549l-.094-.047h-.09a1.196 1.196 0 0 1-.597.23l-1.607.732c-.662.341-1.03.693-1.104 1.056 0 .045.077.244.23.596l-.047.094c0 .026.061.162.183.409 0 .082.077.175.23.277 0 .088.138.271.413.549.344.207.604.406.78.596.307.054.46.131.46.23.602.329.939.544 1.01.643.776.429 1.571.932 2.386 1.512.52.267.78.451.78.554-.316.252-1.249.451-2.8.596 0-.031-.016-.047-.047-.047a.361.361 0 0 1-.183.047h-1.79c-.489 0-.733.183-.733.549v.136c.117 0 .193.108.23.324l.273.183c.131.091.223.136.277.136.173.122.295.183.366.183 0 .156.291.264.874.324v.042l-.047.094c.25 0 .403.03.46.09h.136l.277-.043.089.043c.441-.037.822-.082 1.147-.136 0 .031.016.047.047.047a7.963 7.963 0 0 0 1.837-.46c.196-.045.365-.244.507-.596h.32l.094-.32v-.14c0-.071.378-.632.284-.833z"/>
    </symbol>
    <symbol id="menu-close" viewBox="0 0 32 32">
      <path d="M23.733 10.304 22.229 8.8l-5.963 5.963L10.303 8.8l-1.504 1.504 5.963 5.963-5.963 5.963 1.504 1.504 5.963-5.963 5.963 5.963 1.504-1.504-5.963-5.963 5.963-5.963z"/>
    </symbol>
    <symbol id="menu-open" viewBox="0 0 32 32">
      <path d="M6.4 11.733V9.6h19.2v2.133H6.4zm0 5.334h19.2v-2.133H6.4v2.133zm0 5.333h19.2v-2.133H6.4V22.4z"/>
    </symbol>
  </defs>
</svg>
