<svg aria-hidden="true" style="position:absolute;width:0;height:0;overflow:hidden" xmlns="http://www.w3.org/2000/svg">
  <defs>
   <symbol id="privatbank-icon" viewBox="0 0 33 32">
      <path style="fill:var(--color1, #000)" d="M2.906 29.762h10.72v-10.72H2.906v10.72z"/>
      <path fill="#80ba5e" style="fill:var(--color2, #80ba5e)" d="M2.906 2.339v13.344h2.848c7.456 0 11.232 3.776 11.232 11.232v2.848H30.33V2.339H2.906zm21.76 5.664v16.096H22.49c-.928-7.968-5.952-12.96-13.888-13.888V8.035c3.616-.032 12.416-.032 16.064-.032z"/>
    </symbol>
    <symbol id="visa-icon" viewBox="0 0 96 32">
      <path fill="#00579f" style="fill:var(--color3, #00579f)" d="M41.716 30.673h-7.633l4.774-29.256h7.632l-4.773 29.256zM69.382 2.134C67.877 1.542 65.489.888 62.536.888c-7.538 0-12.845 3.984-12.878 9.679-.063 4.202 3.8 6.536 6.689 7.937 2.953 1.432 3.957 2.366 3.957 3.642-.03 1.96-2.386 2.863-4.584 2.863-3.047 0-4.68-.466-7.161-1.556l-1.005-.467-1.068 6.567c1.79.808 5.088 1.526 8.513 1.557 8.009 0 13.223-3.922 13.284-9.991.031-3.331-2.009-5.882-6.407-7.968-2.669-1.339-4.305-2.241-4.305-3.611.031-1.245 1.383-2.52 4.396-2.52 2.481-.062 4.305.529 5.686 1.12l.69.311 1.038-6.317zM79.531 20.308c.629-1.681 3.047-8.186 3.047-8.186-.032.062.627-1.712 1.004-2.801l.533 2.521s1.445 7.003 1.759 8.466H79.53zm9.422-18.891h-5.904c-1.821 0-3.204.529-3.989 2.427L67.723 30.672h8.009l1.602-4.389h9.8c.219 1.027.911 4.389.911 4.389h7.067L88.954 1.416zM27.705 1.417l-7.475 19.95-.817-4.046C18.031 12.652 13.697 7.58 8.86 5.058l6.847 25.584h8.071L35.775 1.417h-8.071z"/>
      <path fill="#faa61a" style="fill:var(--color4, #faa61a)" d="M13.295 1.417H1.015l-.126.591c9.579 2.428 15.924 8.28 18.53 15.314l-2.67-13.446c-.439-1.869-1.79-2.398-3.455-2.459z"/>
    </symbol>
    <symbol id="mastercard-icon" viewBox="0 0 41 32">
      <path fill="#1a1a1a" style="fill:var(--color5, #1a1a1a)" d="M10.309 27.974v-1.595a.934.934 0 0 0-.275-.731.968.968 0 0 0-.737-.279.993.993 0 0 0-.903.452.951.951 0 0 0-.85-.451.853.853 0 0 0-.753.378v-.314h-.559v2.541h.565v-1.398a.598.598 0 0 1 .154-.484.596.596 0 0 1 .475-.191c.371 0 .559.239.559.67v1.414h.565v-1.409c-.012-.087-.004-.175.023-.258a.61.61 0 0 1 .348-.373.618.618 0 0 1 .259-.044c.382 0 .565.239.565.67v1.414l.565-.011zm8.353-2.541h-.919v-.771h-.565v.771h-.511v.505h.521v1.169c0 .59.231.941.893.941.247.001.489-.067.699-.197l-.161-.473a1.05 1.05 0 0 1-.495.144c-.269 0-.371-.17-.371-.425v-1.159h.914l-.005-.505zm4.769-.064a.758.758 0 0 0-.677.372v-.308H22.2v2.541h.559V26.55c0-.42.183-.654.538-.654.12-.002.238.02.349.064l.172-.532a1.199 1.199 0 0 0-.398-.069l.011.011zm-7.21.266a1.948 1.948 0 0 0-1.049-.266c-.651 0-1.075.308-1.075.813 0 .415.312.67.887.749l.269.037c.306.043.452.122.452.266 0 .197-.204.308-.586.308a1.379 1.379 0 0 1-.855-.266l-.269.431c.326.225.716.34 1.113.329.742 0 1.172-.346 1.172-.829s-.339-.68-.898-.76l-.269-.037c-.242-.032-.436-.08-.436-.25s.183-.298.489-.298c.283.003.561.078.806.218l.247-.447zm14.977-.266a.758.758 0 0 0-.677.372v-.308h-.554v2.541h.559V26.55c0-.42.183-.654.538-.654.12-.002.238.02.35.064l.172-.532a1.199 1.199 0 0 0-.398-.069l.011.011zm-7.205 1.329a1.276 1.276 0 0 0 .84 1.248c.169.063.35.09.53.08.336.017.666-.091.925-.303l-.269-.447a1.137 1.137 0 0 1-.672.229c-.207-.017-.399-.109-.54-.26a.81.81 0 0 1 0-1.106.825.825 0 0 1 .54-.26c.243.003.479.083.672.229l.269-.447a1.353 1.353 0 0 0-.925-.303 1.311 1.311 0 0 0-.982.365 1.282 1.282 0 0 0-.388.963v.011zm5.237 0v-1.265h-.559v.308c-.095-.121-.218-.218-.358-.282s-.294-.095-.449-.09c-.357 0-.698.14-.951.389a1.317 1.317 0 0 0 0 1.88c.252.249.594.389.951.389a.98.98 0 0 0 .807-.372v.308h.559v-1.265zm-2.08 0a.764.764 0 0 1 .509-.676.79.79 0 0 1 .83.193.769.769 0 0 1 .151.83.783.783 0 0 1-1.021.406.778.778 0 0 1-.426-.444.756.756 0 0 1-.044-.309zm-6.749-1.329c-.356.005-.696.15-.945.402s-.385.593-.38.945.151.689.407.934c.256.246.599.381.956.376a1.57 1.57 0 0 0 1.067-.345l-.269-.409a1.233 1.233 0 0 1-.747.266.712.712 0 0 1-.769-.622h1.909v-.213c0-.797-.5-1.329-1.221-1.329l-.008-.005zm0 .495a.64.64 0 0 1 .651.616h-1.344c.01-.171.087-.331.214-.446s.296-.177.469-.171h.011zm14.01.839v-2.291h-.538v1.329c-.095-.121-.218-.218-.358-.282s-.294-.095-.449-.09c-.356 0-.698.14-.95.389a1.321 1.321 0 0 0 0 1.88c.252.25.594.389.95.389a.98.98 0 0 0 .807-.372v.308h.538v-1.26zm.933.901a.272.272 0 0 1 .185.072.24.24 0 0 1 0 .356.25.25 0 0 1-.083.053.255.255 0 0 1-.102.021c-.051 0-.101-.015-.144-.042s-.077-.066-.098-.112a.256.256 0 0 1 0-.196c.014-.03.033-.057.056-.08s.052-.041.083-.053a.278.278 0 0 1 .11-.019h-.008zm0 .449a.191.191 0 0 0 .192-.192.198.198 0 0 0-.052-.133.191.191 0 0 0-.14-.059.21.21 0 0 0-.143.059c-.034.036-.052.084-.052.133s.019.097.052.133a.205.205 0 0 0 .151.059h-.008zm.016-.316a.11.11 0 0 1 .07.021.065.065 0 0 1 .024.056.064.064 0 0 1-.018.048.098.098 0 0 1-.056.024l.078.088h-.062l-.073-.088h-.024v.088h-.051v-.234l.113-.003zm-.059.045v.064h.059c.01.003.022.003.032 0l.003-.012a.027.027 0 0 0-.003-.012l.003-.012a.027.027 0 0 0-.003-.012.058.058 0 0 0-.032 0l-.059-.016zm-2.957-1.079a.764.764 0 0 1 .509-.676.79.79 0 0 1 .83.193.769.769 0 0 1 .151.83c-.06.138-.158.255-.285.338a.785.785 0 0 1-1.162-.376.756.756 0 0 1-.044-.309zm-18.881 0v-1.27h-.559v.308c-.095-.121-.218-.218-.358-.282s-.294-.095-.449-.09c-.356 0-.698.14-.95.389a1.321 1.321 0 0 0 0 1.88c.252.25.594.389.95.389a.98.98 0 0 0 .807-.372v.308h.559v-1.26zm-2.081 0a.764.764 0 0 1 .509-.676.79.79 0 0 1 .83.193.769.769 0 0 1 .151.83c-.06.138-.158.255-.285.338s-.274.127-.426.128c-.107.002-.213-.018-.312-.058a.757.757 0 0 1-.429-.445.764.764 0 0 1-.045-.311h.005z"/>
      <path fill="#ff5f00" style="fill:var(--color6, #ff5f00)" d="M16.033 6.071h8.469v15.045h-8.469V6.071z"/>
      <path fill="#eb001b" style="fill:var(--color7, #eb001b)" d="M16.571 13.598c-.002-1.449.33-2.88.971-4.183s1.573-2.446 2.726-3.341c-1.428-1.109-3.143-1.799-4.948-1.99s-3.629.123-5.263.908C8.424 5.777 7.047 7 6.083 8.521a9.48 9.48 0 0 0 0 10.152 9.627 9.627 0 0 0 3.974 3.529 9.778 9.778 0 0 0 10.211-1.082c-1.153-.895-2.085-2.036-2.725-3.339s-.973-2.733-.972-4.182z"/>
      <path fill="#f79e1b" style="fill:var(--color8, #f79e1b)" d="M35.927 13.595c0 1.795-.511 3.554-1.475 5.076s-2.341 2.745-3.974 3.529a9.77 9.77 0 0 1-10.211-1.084c1.152-.895 2.084-2.037 2.725-3.341a9.474 9.474 0 0 0 0-8.364 9.585 9.585 0 0 0-2.725-3.341c1.428-1.11 3.142-1.8 4.948-1.991s3.63.123 5.263.907 3.011 2.008 3.974 3.529 1.475 3.281 1.475 5.076v.003zm-.925 5.926v-.308h.126v-.064h-.32v.064h.137v.308h.056zm.621 0v-.372h-.097l-.113.266-.113-.266h-.086v.372h.07v-.279l.105.242h.073l.105-.242v.282l.056-.003z"/>
    </symbol>
    <symbol id="support-telegram-icon" viewBox="0 0 42 32">
      <path fill="#039be5" style="fill:var(--color9, #039be5)" d="M40.289.338c.562.451.796 1.147.683 2.032-.177 1.385-6.232 28.235-6.464 28.664-.277.512-1.003.975-1.515.967-.78-.012-1.546-.472-5.999-3.605l-4.623-3.253-1.108.959a58.315 58.315 0 0 0-2.184 2.011c-1.412 1.38-2.079 1.842-2.658 1.842-.458 0-.462-.006-.404-.581.032-.32.186-2.333.341-4.474s.331-3.934.39-3.985l8.571-7.38c4.655-4.008 8.464-7.386 8.464-7.507 0-.155-.117-.212-.396-.194-.244.016-4.473 2.472-10.974 6.373-5.818 3.491-10.648 6.385-10.733 6.433s-1.57-.336-3.299-.851l-4.827-1.438c-.99-.294-1.861-.644-2.116-.848-.799-.641-.486-1.45.803-2.073.306-.148 3.494-1.348 7.084-2.667C19.729 6.941 35.967.963 37.298.466c1.543-.577 2.386-.612 2.992-.126z"/>
    </symbol>
    <symbol id="instagram-icon" viewBox="0 0 33 32">
      <path fill="#9e9e9e" style="fill:var(--color10, #9e9e9e)" d="M8 0h17.231a7.385 7.385 0 0 1 7.385 7.385v17.231a7.385 7.385 0 0 1-7.385 7.385H8a7.385 7.385 0 0 1-7.385-7.385V7.385A7.385 7.385 0 0 1 8 0z"/>
      <path fill="#fff" style="fill:var(--color11, #fff)" d="M12.686 16.071a3.963 3.963 0 1 1 7.926 0 3.963 3.963 0 0 1-7.926 0zm-2.143 0a6.104 6.104 0 1 0 12.208-.001 6.104 6.104 0 0 0-12.208 0zm11.024-6.347A1.427 1.427 0 1 0 22.994 8.3a1.429 1.429 0 0 0-1.426 1.426zm-9.722 16.024c-1.159-.053-1.789-.246-2.208-.409-.555-.216-.951-.473-1.367-.889s-.674-.811-.889-1.366c-.163-.418-.356-1.049-.409-2.208-.058-1.253-.069-1.63-.069-4.804s.012-3.55.069-4.804c.053-1.159.247-1.788.409-2.208.216-.555.473-.951.889-1.367s.811-.674 1.367-.889c.418-.163 1.049-.356 2.208-.409 1.253-.058 1.63-.069 4.803-.069s3.55.012 4.804.069c1.159.053 1.788.247 2.208.409.555.215.951.473 1.367.889s.673.812.889 1.367c.163.418.356 1.049.409 2.208.058 1.254.069 1.63.069 4.804s-.011 3.55-.069 4.804c-.053 1.159-.247 1.789-.409 2.208-.216.555-.473.951-.889 1.367s-.812.673-1.367.889c-.418.163-1.049.356-2.208.409-1.253.058-1.63.069-4.804.069s-3.55-.011-4.803-.069zm-.099-21.493c-1.266.058-2.13.258-2.886.552-.782.303-1.444.711-2.106 1.371S5.686 7.501 5.383 8.284c-.294.756-.495 1.62-.552 2.886-.059 1.268-.072 1.673-.072 4.901s.013 3.634.072 4.901c.058 1.266.258 2.13.552 2.886.303.782.71 1.446 1.371 2.106s1.323 1.067 2.106 1.371c.757.294 1.62.495 2.886.552 1.268.058 1.673.072 4.901.072s3.634-.013 4.901-.072c1.266-.058 2.13-.258 2.886-.552.782-.304 1.444-.711 2.106-1.371s1.067-1.324 1.371-2.106c.294-.756.495-1.62.552-2.886.058-1.269.071-1.673.071-4.901s-.013-3.634-.071-4.901c-.058-1.266-.258-2.13-.552-2.886-.304-.782-.711-1.444-1.371-2.106s-1.324-1.068-2.105-1.371c-.757-.294-1.621-.495-2.886-.552-1.268-.058-1.673-.072-4.901-.072s-3.634.013-4.902.072z"/>
    </symbol>
    <symbol id="facebook-icon" viewBox="0 0 33 32">
      <path fill="#9e9e9e" style="fill:var(--color10, #9e9e9e)" d="M8 0h17.231a7.385 7.385 0 0 1 7.385 7.385v17.231a7.385 7.385 0 0 1-7.385 7.385H8a7.385 7.385 0 0 1-7.385-7.385V7.385A7.385 7.385 0 0 1 8 0z"/>
      <path fill="#fff" style="fill:var(--color11, #fff)" d="M16.497 29.899v2.099l4.909.002.041-2.829c.022-1.556.041-4.186.041-5.846v-3.017h2.006c2.195 0 2.277-.012 2.457-.373.053-.105.186-1.015.322-2.204.219-1.904.226-2.035.132-2.198a1.256 1.256 0 0 0-.264-.301c-.155-.122-.274-.129-2.446-.147l-2.283-.019.031-1.928c.033-2.073.064-2.299.379-2.793.169-.265.578-.547.947-.652.126-.036.872-.083 1.658-.105 2.039-.056 1.947.062 1.918-2.466-.018-1.613-.023-1.666-.16-1.865a.707.707 0 0 0-.37-.271c-.294-.085-2.909-.085-3.829-.001-2.547.234-4.247 1.515-5.051 3.806-.328.934-.387 1.493-.42 3.994l-.031 2.279-1.518.02c-1.641.022-1.753.044-1.939.37-.09.158-.103.432-.103 2.233 0 2.254.012 2.333.368 2.524.148.079.466.097 1.734.097h1.554l-.041 3.746c-.023 2.06-.041 4.69-.041 5.845z"/>
    </symbol>
    <symbol id="add-to-cart" viewBox="0 0 32 32">
      <path fill="#00cc2d" style="fill:var(--color12, #00cc2d)" d="M15.998 5.335c.736 0 1.333.597 1.333 1.333v18.667a1.333 1.333 0 0 1-2.666 0V6.668c0-.736.597-1.333 1.333-1.333z"/>
      <path fill="#00cc2d" style="fill:var(--color12, #00cc2d)" d="M5.335 15.998c0-.736.597-1.333 1.333-1.333h18.667a1.333 1.333 0 0 1 0 2.666H6.668a1.333 1.333 0 0 1-1.333-1.333z"/>
    </symbol>
    <symbol id="add-to-favourite" viewBox="0 0 40 32">
      <path fill="#f63" style="fill:var(--color13, #f63)" d="M6.185 6.541c1.101-1.864 2.898-3.173 5.603-3.173 2.707 0 4.356 1.317 5.39 2.695a9.204 9.204 0 0 1 1.343 2.584c.023.072.039.126.048.158l.009.032c0 .001 0 0 0 0a1.685 1.685 0 0 0 3.265-.001s0 .001 0 0l.001-.003-.001.003.008-.03.048-.158a9.16 9.16 0 0 1 1.343-2.584c1.033-1.378 2.683-2.695 5.39-2.695 2.705 0 4.501 1.308 5.603 3.173 1.144 1.936 1.521 4.474 1.157 6.656-.715 4.291-4.437 8.158-8.385 11.082a47.328 47.328 0 0 1-6.796 4.166 47.328 47.328 0 0 1-6.796-4.166c-3.948-2.924-7.67-6.791-8.385-11.082-.364-2.182.013-4.72 1.157-6.656zm14.024 1.88c-1.634.408-1.634.409-1.634.41l.001.003v.002zm0-3.906a11.236 11.236 0 0 0-.337-.473C18.379 2.051 15.818 0 11.788 0 7.756 0 4.921 2.06 3.285 4.827c-1.593 2.695-2.058 6.052-1.58 8.923.946 5.677 5.646 10.231 9.703 13.236a50.74 50.74 0 0 0 7.396 4.524 34.358 34.358 0 0 0 .653.315l.054.025s.002.001.697-1.533l-.695 1.534c.442.2.948.2 1.389 0l-.695-1.534.695 1.534.006-.003.011-.005.039-.018.14-.066a45.219 45.219 0 0 0 2.321-1.199 50.646 50.646 0 0 0 5.588-3.574c4.057-3.005 8.757-7.559 9.703-13.236.478-2.871.013-6.228-1.58-8.923C35.495 2.059 32.659 0 28.627 0c-4.03 0-6.591 2.051-8.084 4.042-.119.158-.231.316-.337.473z"/>
    </symbol>
    <symbol id="category-icon-empty-mobile" viewBox="0 0 33 32">
      <path fill="#86868b" style="fill: var(--color1, #86868b)" d="M16.364 30.4c-7.953 0-14.4-6.447-14.4-14.4s6.447-14.4 14.4-14.4c7.953 0 14.4 6.447 14.4 14.4s-6.447 14.4-14.4 14.4zM16.364 32c8.837 0 16-7.163 16-16s-7.163-16-16-16c-8.837 0-16 7.163-16 16s7.163 16 16 16z"></path>
      <path fill="#86868b" style="fill: var(--color1, #86868b)" d="M16.363 24.8c-4.86 0-8.8-3.94-8.8-8.8s3.94-8.8 8.8-8.8c4.86 0 8.8 3.94 8.8 8.8s-3.94 8.8-8.8 8.8zM16.363 26.4c5.744 0 10.4-4.656 10.4-10.4s-4.656-10.4-10.4-10.4c-5.744 0-10.4 4.656-10.4 10.4s4.656 10.4 10.4 10.4z"></path>
      <path fill="#86868b" style="fill: var(--color1, #86868b)" d="M16.364 20c-2.209 0-4-1.791-4-4s1.791-4 4-4c2.209 0 4 1.791 4 4s-1.791 4-4 4zM16.364 21.6c3.093 0 5.6-2.507 5.6-5.6s-2.507-5.6-5.6-5.6c-3.093 0-5.6 2.507-5.6 5.6s2.507 5.6 5.6 5.6z"></path>
    </symbol>
    <symbol id="category-icon6-mobile" viewBox="0 0 32 32">
      <path fill="#9e9e9e" style="fill:var(--color1, #9e9e9e)" d="M13.747 5.786v1.261c0 .388-1.051 1.1-2.798 1.1s-2.798-.712-2.798-1.1V5.786c.744.372 1.698.598 2.798.598 1.1.016 2.07-.21 2.798-.598z"/>
      <path fill="#86868b" style="fill:var(--color2, #86868b)" d="M17.189 8.859h-1.455v5.385h1.455V8.859zM10.963 26.935c-3.493 0-6.242-1.585-6.242-3.59V8.855h1.455v14.49c0 1.003 2.038 2.135 4.787 2.135v1.455z"/>
      <path fill="#86868b" style="fill:var(--color2, #86868b)" d="M10.963 12.449c-3.509 0-6.242-1.569-6.242-3.59 0-1.148.889-2.199 2.426-2.862l.582 1.342c-.97.42-1.552.986-1.552 1.536 0 1.003 2.038 2.135 4.787 2.135s4.787-1.132 4.787-2.135c0-.534-.582-1.116-1.552-1.536l.582-1.342c1.536.663 2.426 1.714 2.426 2.862-.016 2.021-2.749 3.59-6.242 3.59z"/>
      <path fill="#86868b" style="fill:var(--color2, #86868b)" d="M15.201 3.842V7.06c0 .129-.016.259-.049.388-.291 1.261-2.005 2.151-4.188 2.151-2.021 0-3.622-.76-4.108-1.86a1.73 1.73 0 0 1-.146-.695V3.842h1.455V7.06c0 .388 1.067 1.1 2.798 1.1s2.798-.712 2.798-1.1V3.842H15.2z"/>
      <path fill="#86868b" style="fill:var(--color2, #86868b)" d="M14.828 2.761c-.647-.889-2.102-1.472-3.881-1.472-1.536 0-2.83.437-3.574 1.132-.437.404-.679.889-.679 1.423 0 .809.55 1.488 1.455 1.957.744.372 1.698.598 2.798.598 1.084 0 2.054-.226 2.798-.598.906-.453 1.455-1.148 1.455-1.957 0-.404-.129-.76-.372-1.083zm-3.865 2.183c-1.73 0-2.798-.712-2.798-1.1s1.067-1.1 2.798-1.1c1.73 0 2.798.712 2.798 1.1-.016.388-1.067 1.1-2.798 1.1z"/>
      <path fill="#9e9e9e" style="fill:var(--color1, #9e9e9e)" d="M13.747 3.846c0 .388-1.051 1.1-2.798 1.1s-2.798-.712-2.798-1.1c0-.388 1.067-1.1 2.798-1.1s2.798.712 2.798 1.1z"/>
      <path fill="#86868b" style="fill:var(--color2, #86868b)" d="M17.967 13.516c-5.628 0-10.043 2.442-10.043 5.563s4.415 5.563 10.043 5.563S28.01 22.2 28.01 19.079c0-3.121-4.399-5.563-10.043-5.563zm7.698 7.359c-1.423 1.358-4.366 2.313-7.698 2.313s-6.275-.954-7.698-2.329c-.566-.534-.889-1.148-.889-1.779 0-2.215 3.93-4.108 8.587-4.108 4.641 0 8.587 1.876 8.587 4.108 0 .631-.323 1.245-.889 1.795z"/>
      <path fill="#86868b" style="fill:var(--color2, #86868b)" d="M17.962 30.546c-4.059 0-6.824-1.504-7.617-4.108l-1.569-5.143 1.391-.42 1.569 5.143c.582 1.957 2.846 3.073 6.21 3.073v1.455h.016zM17.967 30.545v-1.456c3.364 0 5.628-1.116 6.21-3.073l1.569-5.159 1.391.42-1.569 5.143c-.776 2.62-3.542 4.124-7.601 4.124z"/>
      <path fill="#9e9e9e" style="fill:var(--color1, #9e9e9e)" d="M25.665 20.873c-1.423 1.358-4.366 2.313-7.698 2.313s-6.275-.954-7.698-2.329c1.035-1.375 3.914-2.604 7.698-2.604 3.8.016 6.679 1.229 7.698 2.62z"/>
    </symbol>
    <symbol id="category-icon5-mobile" viewBox="0 0 32 32">
      <path fill="#86868b" style="fill:var(--color2, #86868b)" d="M8.458 10.515A.728.728 0 0 1 9 10.273h14a.728.728 0 0 1 .723.807l-2 18a.727.727 0 0 1-.723.647H11a.727.727 0 0 1-.723-.647l-2-18a.725.725 0 0 1 .181-.565zm1.355 1.213 1.838 16.545h8.698l1.838-16.545H9.812z"/>
      <path fill="#86868b" style="fill:var(--color2, #86868b)" d="M6.273 6c0-.402.326-.727.727-.727h18c.402 0 .727.326.727.727v5a.727.727 0 0 1-.727.727H7A.727.727 0 0 1 6.273 11V6zm1.455.728v3.545h16.545V6.728H7.728z"/>
      <path fill="#9e9e9e" style="fill:var(--color1, #9e9e9e)" d="M22 19a6 6 0 1 1-12 0 6 6 0 0 1 12 0z"/>
      <path fill="#86868b" style="fill:var(--color2, #86868b)" d="M8.295.824a.726.726 0 0 1 .882-.529l4 1c.206.052.379.19.474.38l2 4a.728.728 0 0 1-1.301.651L12.5 2.625l-3.675-.919a.726.726 0 0 1-.529-.882z"/>
    </symbol>
    <symbol id="category-icon4-mobile" viewBox="0 0 32 32">
      <path fill="#9e9e9e" style="fill:var(--color1, #9e9e9e)" d="M12 11.5a3.5 3.5 0 1 0-7 0zM27 11.5a3.5 3.5 0 1 0-7 0z"/>
      <path fill="#86868b" style="fill:var(--color2, #86868b)" d="M9.283 12.044a6.73 6.73 0 0 1 13.285-.216l-1.433.252a5.274 5.274 0 0 0-10.413.169l-1.44-.205zM23.671 11.89a5.727 5.727 0 0 1 7.192 8.517l-1.169-.866a4.273 4.273 0 0 0-5.366-6.354l-.658-1.297zM.273 17a5.727 5.727 0 0 1 8.55-4.984l-.718 1.265a4.273 4.273 0 0 0-5.495 6.321l-1.153.886A5.702 5.702 0 0 1 .273 17z"/>
      <path fill="#86868b" style="fill:var(--color2, #86868b)" d="M.273 24.862c0-8.057 6.532-14.589 14.589-14.589h2.277c8.057 0 14.589 6.532 14.589 14.589a.866.866 0 0 1-.866.866H1.139a.866.866 0 0 1-.866-.866zm1.468-.589h28.52c-.308-6.981-6.065-12.545-13.121-12.545h-2.277c-7.057 0-12.813 5.565-13.121 12.545z"/>
      <path fill="#9e9e9e" style="fill:var(--color1, #9e9e9e)" d="M14 16a1 1 0 1 1-2 0 1 1 0 0 1 2 0zM18 20a1 1 0 1 1-2 0 1 1 0 0 1 2 0zM25 19a1 1 0 1 1-2 0 1 1 0 0 1 2 0zM8 21a1 1 0 1 1-2 0 1 1 0 0 1 2 0z"/>
    </symbol>
    <symbol id="category-icon3-mobile" viewBox="0 0 32 32">
      <path fill="#86868b" style="fill:var(--color2, #86868b)" d="M16.859 4.092c-1.425.838-2.131 1.891-2.131 2.909s.706 2.07 2.131 2.909c1.408.828 3.401 1.364 5.642 1.364s4.234-.536 5.642-1.364c1.425-.838 2.131-1.891 2.131-2.909s-.706-2.07-2.131-2.909c-1.408-.828-3.401-1.364-5.642-1.364s-4.234.536-5.642 1.364zm-.738-1.254c1.668-.981 3.925-1.565 6.379-1.565s4.711.584 6.379 1.565c1.651.971 2.848 2.419 2.848 4.162s-1.197 3.191-2.848 4.162c-1.668.981-3.925 1.565-6.379 1.565s-4.711-.584-6.379-1.565C14.47 10.191 13.273 8.743 13.273 7s1.197-3.191 2.848-4.162z"/>
      <path fill="#9e9e9e" style="fill:var(--color1, #9e9e9e)" d="M27 7c0 1.105-2.015 2-4.5 2S18 8.105 18 7s2.015-2 4.5-2 4.5.895 4.5 2z"/>
      <path fill="#86868b" style="fill:var(--color2, #86868b)" d="M13.273 7h1.454v10c0 1.018.706 2.07 2.131 2.909 1.408.828 3.401 1.364 5.642 1.364s4.234-.536 5.642-1.364c1.425-.838 2.131-1.891 2.131-2.909V7h1.455v10c0 1.744-1.197 3.191-2.848 4.162-1.668.981-3.925 1.565-6.379 1.565s-4.711-.584-6.379-1.565c-1.651-.971-2.848-2.419-2.848-4.162V7zM2.787 19.305a.727.727 0 0 1 .909.481l1.434 4.66a2.907 2.907 0 0 0 1.925 1.925l9.668 2.975a2.911 2.911 0 0 0 2.282-.245l6.64-3.735a.726.726 0 1 1 .713 1.267l-6.64 3.735a4.364 4.364 0 0 1-3.423.367L6.627 27.76a4.363 4.363 0 0 1-2.887-2.887l-1.434-4.66a.727.727 0 0 1 .481-.909z"/>
      <path fill="#9e9e9e" style="fill:var(--color1, #9e9e9e)" d="M27.456 27.578c-1.795-2.055-9.141-4.342-15.07-5.528-7.5-1.5-15 0-11.5-5.5 3.364-5.287 23.638-6.602 27.584 9.935.322 1.348-.625 1.538-1.013 1.093z"/>
      <path fill="#86868b" style="fill:var(--color2, #86868b)" d="M14.246 12.824a.728.728 0 0 1-.529.882c-1.054.264-2.081 1.033-2.997 2.172-.911 1.133-1.668 2.577-2.194 4.081-.526 1.505-.808 3.031-.797 4.317.011 1.316.324 2.232.814 2.698a.727.727 0 1 1-1.003 1.053c-.918-.874-1.253-2.283-1.265-3.74-.012-1.487.31-3.182.879-4.809.569-1.628 1.399-3.227 2.433-4.513 1.029-1.279 2.305-2.303 3.778-2.672.39-.097.785.14.882.529zm6.011 2.047a.727.727 0 0 1-.586.845c-.804.145-1.733.677-2.658 1.553-.916.867-1.778 2.027-2.457 3.335-1.372 2.644-1.907 5.718-.85 8.101a.728.728 0 0 1-1.33.59c-1.309-2.952-.586-6.519.889-9.361.744-1.435 1.701-2.73 2.747-3.721 1.037-.982 2.212-1.714 3.4-1.929a.727.727 0 0 1 .845.586z"/>
    </symbol>
    <symbol id="category-icon2-mobile" viewBox="0 0 32 32">
      <path fill="#86868b" style="fill:var(--color2, #86868b)" d="M4.514 13.305a.727.727 0 0 1 .909.481l1.434 4.66a2.907 2.907 0 0 0 1.925 1.925l9.668 2.975a2.911 2.911 0 0 0 2.282-.245l6.64-3.735a.727.727 0 1 1 .713 1.267l-6.64 3.735a4.364 4.364 0 0 1-3.423.367L8.354 21.76a4.363 4.363 0 0 1-2.887-2.887l-1.434-4.66a.727.727 0 0 1 .481-.909z"/>
      <path fill="#9e9e9e" style="fill:var(--color1, #9e9e9e)" d="M29.183 21.578c-1.795-2.055-9.141-4.342-15.07-5.528-7.5-1.5-15 0-11.5-5.5 3.364-5.287 23.638-6.602 27.584 9.935.322 1.348-.625 1.538-1.013 1.093z"/>
      <path fill="#86868b" style="fill:var(--color2, #86868b)" d="M15.972 6.824a.727.727 0 0 1-.529.882c-1.054.263-2.081 1.033-2.998 2.172-.911 1.133-1.668 2.577-2.194 4.081-.526 1.505-.808 3.031-.797 4.317.011 1.316.324 2.232.814 2.698a.727.727 0 1 1-1.003 1.053c-.918-.874-1.253-2.283-1.265-3.74-.012-1.487.31-3.182.879-4.809.569-1.628 1.399-3.227 2.433-4.513 1.029-1.279 2.305-2.303 3.778-2.672a.727.727 0 0 1 .882.529zm6.012 2.047a.727.727 0 0 1-.586.845c-.804.145-1.733.677-2.658 1.553-.916.867-1.778 2.027-2.457 3.335-1.372 2.644-1.907 5.718-.85 8.101a.728.728 0 0 1-1.33.59c-1.309-2.952-.586-6.519.888-9.361.745-1.435 1.701-2.73 2.748-3.721 1.037-.982 2.212-1.714 3.399-1.929a.727.727 0 0 1 .845.586z"/>
    </symbol>
    <symbol id="category-icon1-mobile" viewBox="0 0 32 32">
      <path fill="#86868b" style="fill:var(--color2, #86868b)" d="M9.303 6.381C7.61 7.397 6.727 8.699 6.727 10s.883 2.603 2.576 3.619c1.679 1.007 4.045 1.654 6.697 1.654s5.018-.646 6.697-1.654c1.693-1.016 2.576-2.318 2.576-3.619s-.883-2.603-2.576-3.619C21.018 5.374 18.652 4.727 16 4.727s-5.018.647-6.697 1.654zm-.748-1.247C10.496 3.97 13.13 3.273 16 3.273s5.505.697 7.445 1.861C25.371 6.29 26.727 7.988 26.727 10s-1.356 3.711-3.282 4.866C21.504 16.03 18.87 16.727 16 16.727s-5.505-.697-7.445-1.861C6.629 13.71 5.273 12.012 5.273 10s1.356-3.711 3.282-4.866z"/>
      <path fill="#9e9e9e" style="fill:var(--color1, #9e9e9e)" d="M22 10c0 1.657-2.686 3-6 3s-6-1.343-6-3 2.686-3 6-3 6 1.343 6 3z"/>
      <path fill="#86868b" style="fill:var(--color2, #86868b)" d="M5.273 10h1.454v12c0 1.301.883 2.603 2.576 3.619 1.679 1.007 4.045 1.654 6.697 1.654s5.018-.647 6.697-1.654c1.693-1.016 2.576-2.318 2.576-3.619V10h1.455v12c0 2.013-1.356 3.711-3.282 4.866-1.941 1.164-4.575 1.861-7.445 1.861s-5.505-.697-7.445-1.861C6.63 25.71 5.274 24.012 5.274 22V10z"/>
    </symbol>
    <symbol id="menu-btn-mobile" viewBox="0 0 32 32">
      <path d="M2.669 16.002c0-0.736 0.597-1.333 1.333-1.333h24c0.736 0 1.333 0.597 1.333 1.333s-0.597 1.333-1.333 1.333h-24c-0.736 0-1.333-0.597-1.333-1.333z"></path>
      <path d="M2.669 8.002c0-0.736 0.597-1.333 1.333-1.333h24c0.736 0 1.333 0.597 1.333 1.333s-0.597 1.333-1.333 1.333h-24c-0.736 0-1.333-0.597-1.333-1.333z"></path>
      <path d="M2.669 24.002c0-0.736 0.597-1.333 1.333-1.333h24c0.736 0 1.333 0.597 1.333 1.333s-0.597 1.333-1.333 1.333h-24c-0.736 0-1.333-0.597-1.333-1.333z"></path>
    </symbol>
    <symbol id="user-mobile" viewBox="0 0 32 32">
      <path fill="#686870" style="fill: var(--color1, #686870)" d="M5.953 20.619c1.25-1.25 2.946-1.953 4.714-1.953h10.667c1.768 0 3.464 0.702 4.714 1.953s1.953 2.946 1.953 4.714v2.667c0 0.736-0.597 1.333-1.333 1.333s-1.333-0.597-1.333-1.333v-2.667c0-1.061-0.421-2.078-1.172-2.828s-1.768-1.172-2.828-1.172h-10.667c-1.061 0-2.078 0.421-2.828 1.172s-1.172 1.768-1.172 2.828v2.667c0 0.736-0.597 1.333-1.333 1.333s-1.333-0.597-1.333-1.333v-2.667c0-1.768 0.702-3.464 1.953-4.714z"></path>
      <path fill="#686870" style="fill: var(--color1, #686870)" d="M16 5.333c-2.209 0-4 1.791-4 4s1.791 4 4 4c2.209 0 4-1.791 4-4s-1.791-4-4-4zM9.333 9.333c0-3.682 2.985-6.667 6.667-6.667s6.667 2.985 6.667 6.667c0 3.682-2.985 6.667-6.667 6.667s-6.667-2.985-6.667-6.667z"></path>
    </symbol>
    <symbol id="favourite-mobile" viewBox="0 0 32 32">
      <path fill="#686870" style="fill: var(--color1, #686870)" d="M4.896 9.178c0.872-1.476 2.294-2.512 4.435-2.512 2.143 0 3.449 1.043 4.267 2.133 0.417 0.556 0.7 1.12 0.878 1.546 0.088 0.211 0.148 0.384 0.185 0.499 0.018 0.057 0.031 0.1 0.038 0.125l0.007 0.025c0 0-0-0 0 0 0.15 0.591 0.682 1.005 1.292 1.005s1.142-0.415 1.292-1.006c0-0-0 0 0 0s0-0.001 0.001-0.002l-0.001 0.002 0.007-0.024c0.007-0.025 0.020-0.067 0.038-0.125 0.037-0.115 0.097-0.288 0.185-0.499 0.178-0.427 0.46-0.99 0.878-1.546 0.818-1.091 2.124-2.133 4.267-2.133 2.141 0 3.563 1.036 4.435 2.512 0.906 1.533 1.204 3.542 0.916 5.269-0.566 3.397-3.512 6.459-6.638 8.774-1.525 1.129-3.015 2.025-4.126 2.638-0.513 0.283-0.942 0.505-1.254 0.661-0.311-0.156-0.741-0.377-1.254-0.661-1.111-0.614-2.602-1.509-4.126-2.638-3.126-2.315-6.072-5.377-6.638-8.774-0.288-1.727 0.010-3.736 0.916-5.269zM15.999 10.667c-1.294 0.323-1.293 0.324-1.293 0.325l0.001 0.003 0 0.002zM15.999 7.575c-0.084-0.124-0.173-0.249-0.267-0.375-1.182-1.576-3.21-3.2-6.4-3.2-3.192 0-5.437 1.631-6.731 3.822-1.261 2.134-1.629 4.791-1.25 7.064 0.749 4.494 4.47 8.099 7.682 10.478 1.644 1.218 3.241 2.176 4.424 2.83 0.593 0.327 1.085 0.58 1.432 0.752 0.173 0.086 0.311 0.152 0.406 0.197 0.048 0.023 0.085 0.040 0.111 0.052l0.043 0.020c0 0 0.002 0.001 0.552-1.214l-0.55 1.215c0.35 0.158 0.75 0.158 1.1 0l-0.55-1.215c0.55 1.215 0.55 1.215 0.55 1.215l0.005-0.002 0.009-0.004 0.031-0.014c0.026-0.012 0.063-0.029 0.111-0.052 0.095-0.045 0.233-0.111 0.406-0.197 0.347-0.172 0.839-0.424 1.432-0.752 1.183-0.653 2.78-1.612 4.424-2.83 3.212-2.379 6.933-5.984 7.682-10.478 0.379-2.273 0.010-4.93-1.251-7.064-1.295-2.191-3.539-3.822-6.731-3.822-3.191 0-5.218 1.624-6.4 3.2-0.094 0.125-0.183 0.25-0.267 0.375z"></path>
    </symbol>
    <symbol id="bell-mobile" viewBox="0 0 32 32">
      <path fill="#686870" style="fill: var(--color1, #686870)" d="M9.4 4.067c1.75-1.75 4.124-2.734 6.6-2.734s4.849 0.983 6.6 2.734c1.75 1.75 2.734 4.124 2.734 6.6 0 4.47 0.956 7.246 1.837 8.861 0.442 0.811 0.873 1.343 1.172 1.659 0.15 0.158 0.268 0.263 0.339 0.322 0.035 0.030 0.059 0.048 0.069 0.055 0.002 0.001 0.003 0.002 0.004 0.003 0.478 0.328 0.689 0.929 0.521 1.485-0.17 0.562-0.689 0.947-1.276 0.947h-24c-0.588 0-1.106-0.385-1.276-0.947-0.168-0.556 0.043-1.157 0.521-1.485 0.001-0.001 0.002-0.002 0.004-0.003 0.010-0.008 0.034-0.026 0.070-0.055 0.071-0.059 0.189-0.164 0.339-0.322 0.299-0.316 0.73-0.848 1.172-1.659 0.881-1.615 1.837-4.391 1.837-8.861 0-2.475 0.983-4.849 2.734-6.6zM3.259 21.559c0-0 0-0 0-0s0 0 0 0l-0 0zM6.866 21.333h18.269c-0.101-0.166-0.203-0.342-0.305-0.528-1.119-2.051-2.163-5.275-2.163-10.139 0-1.768-0.702-3.464-1.953-4.714s-2.946-1.953-4.714-1.953c-1.768 0-3.464 0.702-4.714 1.953s-1.953 2.946-1.953 4.714c0 4.863-1.044 8.087-2.163 10.139-0.101 0.186-0.203 0.362-0.305 0.528z"></path>
      <path fill="#686870" style="fill: var(--color1, #686870)" d="M13.029 26.847c0.637-0.37 1.453-0.153 1.822 0.484 0.117 0.202 0.285 0.37 0.488 0.486s0.432 0.178 0.665 0.178 0.463-0.061 0.665-0.178c0.202-0.117 0.371-0.284 0.488-0.486 0.369-0.637 1.185-0.854 1.822-0.484s0.854 1.185 0.484 1.822c-0.352 0.606-0.856 1.109-1.464 1.459s-1.296 0.534-1.996 0.534-1.389-0.184-1.996-0.534c-0.607-0.35-1.112-0.853-1.464-1.459-0.37-0.637-0.153-1.453 0.484-1.822z"></path>
    </symbol>
    <symbol id="ninja-sushi-logo-mobile" viewBox="0 0 77 32">
      <path fill="#1d1d1f" style="fill:var(--color9, #1d1d1f)" d="M30.484 11.133c-.41-.957-.865-2.021-2.765-1.37V4.597c0-2.668-4.51-4.598-10.004-4.598S7.711 1.929 7.711 4.597v22.805c0 2.668 4.51 4.598 10.004 4.598s10.004-1.93 10.004-4.598V13.64c1.695.222 2.06 1.551 1.744 2.925l1.744.276c.391-2.52-.468-4.196-3.488-4.327v-1.051c1.16-.557 1.869.354 2.597 1.288.596.766 1.205 1.547 2.084 1.547 1.285 0 2.295-.644 3.029-1.931l-1.56-2.115c-.306 1.41-1.04 2.115-2.203 2.115-.653 0-.907-.593-1.181-1.234zm-10.103 6.025c-.889-.216-1.804-.438-2.704-.438-.915 0-1.838.227-2.734.446-2.338.573-4.481 1.099-5.755-2.58-1.554-4.488 1.993-3.499 5.228-2.598 1.255.35 2.463.687 3.307.685.812-.001 1.977-.317 3.195-.647 3.207-.868 6.782-1.836 5.248 2.559-1.279 3.666-3.446 3.14-5.786 2.572zm-7.168-3.327c-.394-.18-.784-.346-1.152-.465-.051.65.23 1.254.857 1.843.547.514 1.063.574 1.616.13.182-.2.34-.426.474-.678a18.98 18.98 0 0 1-.699-.313.736.736 0 0 1-.725.854.735.735 0 0 1-.371-1.371zm-3.3.175c.237-.712.762-.898 1.427-.812-.112.916.252 1.778 1.075 2.552.237.223.478.386.719.491a5.105 5.105 0 0 1-1.294.252c1.866.35 3.203-.162 4.014-1.536.778.188 1.31.004 1.31-1.038-.271 1.086-1.505.34-2.882-.492-1.89-1.142-4.05-2.447-4.369.584zm11.201.327c-.241.124-.478.241-.706.338.134.254.293.481.476.683.553.444 1.069.384 1.616-.13.657-.617.934-1.25.847-1.935-.396.118-.809.307-1.223.516a.736.736 0 0 1-.291 1.412.735.735 0 0 1-.719-.884zm-2.684.148c.277.407.663.516 1.115.454.808 1.399 2.152 1.922 4.033 1.569a5.113 5.113 0 0 1-1.294-.252 2.56 2.56 0 0 0 .719-.491c.838-.787 1.2-1.665 1.07-2.598.56-.013 1.058.213 1.433.858-.357-3.294-2.401-1.96-4.308-.715-1.074.701-2.105 1.374-2.767 1.175zm-.367-1.379c0 .513.275.92.734 1.012-.459.092-1.01-.276-.734-1.012zm8.371-8.504c0 1.801-3.874 3.494-8.719 3.494s-8.72-1.693-8.72-3.494c0-1.801 3.874-3.494 8.72-3.494s8.719 1.693 8.719 3.494z"/>
      <path fill="#f63" style="fill:var(--color7, #f63)" d="M22.029 4.598c0 1.016-1.931 1.839-4.314 1.839s-4.314-.823-4.314-1.839 1.931-1.839 4.314-1.839 4.314.823 4.314 1.839z"/>
      <path fill="#1d1d1f" style="fill:var(--color9, #1d1d1f)" d="M52.6 3.045c.362.138.568.337.619.598l.09-.07.145-.029.01.051-.027.105.485-.097.596.191.064.088-.145.029.01.05c.133.333.334.671.6 1.013a5.26 5.26 0 0 1 .851 2.042l.134.695c.1-.02.297.473.591 1.478l.048.249c.007.034-.007.054-.04.06l.069.087c.029.153.013.415-.051.784.171.189.284.423.338.702l.02.101.095-.019c.066-.013.106-.244.12-.693l.05-.01-.069-.091-.029-.147c.132-.272.165-1.068.098-2.389.056-.161.096-.476.118-.946.151-.68.302-1.123.453-1.328l.05-.01a.403.403 0 0 0 .012-.208L58 5.312l.003.257c.106-.021.194-.262.265-.722l-.01-.051.105.032-.01-.051c-.033.007-.053-.007-.06-.041.051-.01.112-.056.181-.136.006.031.024.043.054.037.153-.441.326-.681.519-.72l.05-.01.038.198-.343.584-.105-.032-.149.03.01.051.195-.039.019.101c-.19.232-.281.37-.273.413-.109.49-.236 1.579-.379 3.267l.01.051.045-.009c.129-.341.195-.784.199-1.33l.16-.753.054-.011c.006-.138.035-.212.087-.222l.05-.01a.401.401 0 0 0 .148.229l.012.063a.215.215 0 0 1 .059-.025l.01.051a8.74 8.74 0 0 0-.113.997l.05-.01c.076-.015.123-.298.141-.85.196-.039.317-.372.362-.999l.1-.02c.014.071-.01.298-.07.683.081-.016.142.04.183.169l-.002.258c.052.091.095.134.128.127l.027.921c.02.101.078.142.174.123l.009.046a47.53 47.53 0 0 1-.121 4.09c-.108.576-.319 1.408-.632 2.496-.241.666-.378 1.002-.411 1.009l-.276.155c-.014-.074-.105-.107-.273-.098.015.08-.137.161-.456.244a1.115 1.115 0 0 0-.526-.359c-.009-.046-.068-.085-.178-.118l-.045.009.02.101c-.278-.206-.422-.331-.43-.377-.656-.946-1.028-1.644-1.115-2.095a15.364 15.364 0 0 0-.413-1.36l.031-.106-.272-.873.05-.01-.069-.091-.173-.893-.14-.483-.199.04c.016.08-.018.257-.099.531l.099-.02c-.025.39-.028.631-.01.724.03-.006.048.008.055.042-.106.021-.126.265-.06.733l.098.239a1.016 1.016 0 0 1-.118.434c.006.034.026.047.06.04.025.486.017.796-.022.931a.376.376 0 0 1 .074.138c-.097.211-.154.701-.171 1.472-.033.351-.066.529-.099.536l-.145.029c-.071.393-.183.605-.334.635-.074-.122-.135-.179-.183-.169l-.1.02-.236.095c-.029-.147-.194-.216-.496-.207l.002-.258c-.032-.166-.113-.235-.243-.21l-.058-.299c-.031-.163-.128-.228-.291-.195-.145-.748-.123-2.039.064-3.873-.006-.034-.026-.047-.06-.041l-.001-.516.109.031-.058-.299c.112-.022.148-.184.108-.485l-.067-.345c.075-.015.102-.14.078-.374l-.084-.193c.011-.104.033-.159.066-.166-.006-.034-.026-.047-.06-.041-.02-.28-.014-.52.016-.72a.363.363 0 0 1-.079-.142.402.402 0 0 1 .136-.075c-.049-.076-.113-.235-.191-.478.042-.009.088-.121.137-.338a.353.353 0 0 1-.078-.137l.05-.01-.069-.091c.034-.879-.002-1.85-.107-2.912a.812.812 0 0 1 .371-.174l.145-.029c.033-.007.053.007.06.041l.09-.07zm6.141 2.701.029.152c-.063.013-.086.068-.067.166l-.05.01a.367.367 0 0 0-.078-.137c.1-.02.14-.081.12-.182l.045-.009zm-.849-.208.02.101-.031.106.109.031.05-.01-.01-.051-.1.02.031-.106-.01-.051c-.007-.034-.026-.047-.06-.041z"/>
      <path fill="#1d1d1f" style="fill:var(--color9, #1d1d1f)" d="m60.873 2.376.27.056.011-.056.365.133-.01.051c-.107-.022-.168.004-.183.079l.121-.034.05.01-.011.056-.138.142c-.011.054.032.119.128.196l.11.022c.02-.099.088-.16.204-.186l.01-.051.216.044c-.011.058.186.287.594.688.321.398.619.972.895 1.724.266 1.117.373 1.805.322 2.063l-.055-.011c.065.621.108 1.352.129 2.193a.404.404 0 0 0-.088.157c.11.022.139.351.086.987l-.076.095-.068 1.475c-.124.257-.191.413-.202.467l-.01.342.05.01.121-.034-.022.112-.076.096c.037.007.051.03.044.067-.037-.007-.059.007-.066.045l.108.022c.465-.671.802-1.212 1.009-1.623 0-.08.111-.209.332-.39l.823-1.844c-.037-.021-.056-.152-.056-.395.259-.557.424-.836.496-.836.269-.596.711-1.865 1.324-3.807l.496-1.174a.417.417 0 0 1-.056-.166c.136 0 .337-.168.603-.504h.225l.051.223h.056c.075 0 .112-.038.112-.114l.547.057h.112c0 .111.036.166.107.166h.056c0-.111.037-.166.113-.166h.056c.072.01.107.048.107.114l.112-.057h.051v.223h.112c.072 0 .107-.038.107-.114v-.052l-.051-.114.276-.057h.107l-.056.114v.166c.075 0 .112.074.112.223h.44c0 .038-.019.057-.056.057.017.187.073.28.169.28v.332c.02.398.129.679.327.842 0 .017.056.204.169.561l.107-.057h.056l.22.841c.101 0 .155.094.162.283l.001.049h.169c.003.211.113.622.327 1.231a2.722 2.722 0 0 0-.056.446l.112.057c0-.038.019-.057.056-.057 0 .076.109.319.327.727 1.135-.111 1.815-.166 2.04-.166v.114h-.113l.056.275-1.099.337.051.114c0 .177-.164.287-.491.332v.057h.107v.114l-.107.166v.109c.293.945.532 1.785.716 2.519 0 .059.036.133.107.223v.057c0 .038-.019.057-.056.057l.496 1.454c-.034 0-.051.019-.051.057.157 0 .32.577.491 1.73-.123 0-.213.093-.271.28h-.332c0 .114-.092.172-.276.172-.129-.128-.46-.279-.992-.452 0-.059-.275-.17-.823-.332 0-.042-.111-.135-.332-.281v-.114l.384.057h.169c.072 0 .107-.036.107-.109 0-.118-.347-1.032-1.043-2.742 0-.229-.184-.807-.552-1.735a13.4 13.4 0 0 1-2.311.504c0-.038-.019-.057-.056-.057 0 .111-.111.185-.332.223-.624.145-.936.351-.936.618-.232.748-.452 1.269-.66 1.564v.171c.109 0 .164.036.164.109v.057l-.107-.057h-.112c-.109.291-.164.478-.164.561l-.112-.057c0 .097-.111.209-.332.338 0 .069-.201.405-.603 1.008l-.113.052h-.107l-.22-.166h-.056c-.072.01-.107.048-.107.114a.404.404 0 0 1 .051.166l-.107.057c-.048-.038-.14-.057-.276-.057 0 .111-.073.166-.22.166l-.884-.613c-.227 0-.447-.27-.662-.81-.018.244-.076.614-.175 1.111l-.087.438c-.05.255-.111.375-.181.361l-.054.561-.064.326c-.197.61-.439.979-.725 1.107-.076.06-.212.106-.407.138l-.024.008c-.153.128-.044.093-.169.22-.042.019-.139.028-.288.03v.001a.622.622 0 0 1-.345.029c-.167.199-.296.319-.386.36l-.545-.006c-.496.059-1.113.07-1.851.033-.568-.28-1.241-.488-2.018-.624-.387-.3-.731-.451-1.033-.452-.073-.168-.59-.529-1.552-1.082-.321-.182-.514-.259-.58-.229-.242-.259-.41-.367-.504-.325l-.088-.204c.918.366 1.411.533 1.479.502l-.023-.052-.461-.226-.021-.047.052-.023c.01.022.302.138.877.348s1.06.316 1.455.317c.32.061.526.071.616.031l.051-.023c.056-.025.074-.073.055-.144-1.352-.345-2.07-.616-2.156-.812l-.076.096c-.103.046-.206-.05-.309-.288l-.098.044.043.1-.052.023a1.76 1.76 0 0 0-.228-.386l.103-.046.023.052c1.758.637 2.966.973 3.625 1.007 0 0 1.853.414 2.714-.086 1.551-.901 1.153-7.005 1.153-7.005l.121-1.745c.017-1.229-.098-2.545-.345-3.949-.118-.314-.596-1.547-.545-1.802.08-.174.151-.255.215-.242l.16.033c.014-.071.04-.103.076-.096zm12.764 9.004c.222.859.387 1.288.496 1.288v-.057c0-.045-.019-.23-.056-.556l.056-.28c-.037 0-.056-.019-.056-.057l-.107.057h-.113c0-.263-.073-.395-.22-.395zm-3.384-4.502c-.174.232-.358.642-.552 1.231a6.211 6.211 0 0 1-.44 1.506h-.056v.223c.188 0 .794-.149 1.82-.447v-.057c0-.08-.257-.881-.772-2.405v-.052zM68.59 4.176h-.22v.114h.113c-.552 1.188-.828 2.008-.828 2.462.078-.017.152-.111.22-.28a.479.479 0 0 1-.051-.223c.085 0 .25-.317.496-.95l-.056-.114v-.057c.201-.232.31-.549.327-.95zM45.067 15.586c-.661-.038-.992-.187-.992-.446a.434.434 0 0 1-.276-.114c0 .038-.019.057-.056.057 0-.045-.147-.194-.44-.447 0-.159-.147-.327-.44-.504-.337-.201-.796-1.002-1.375-2.405-.12-.172-.192-.19-.214-.054.034.284.051.61.051.977 0 .055-.017.083-.051.083l.051.114v.338c0 .073-.036.258-.107.556l.107-.052c.038.384.056.608.056.67h-.056l.056.109v.395l.056.28c-.075 0-.112.055-.112.166 0 .031.019.18.056.447l-.603.223c-.222 0-.332-.185-.332-.556h-.113a1.727 1.727 0 0 0-.051.39h-.056c0-.236-.184-.385-.552-.447 0-.249-.092-.549-.276-.898a.396.396 0 0 1-.164.057v.057h.112v.057c0 .035-.019.052-.056.052l.056.114v.114c-.296-.27-.445-.774-.445-1.512.075-.769.113-1.319.113-1.652a4.26 4.26 0 0 0-.113-1.034c0-.034.019-.184.056-.447 0-.048-.019-.236-.056-.561l.056-.28a.551.551 0 0 1-.056-.28h.056c-.072-.197-.126-.476-.164-.836h.056c-.453-2.351-.857-3.527-1.211-3.527l-.113-.39v-.057c.01-.076.048-.114.113-.114h.051l.113.057c0-.038.019-.057.056-.057l-.056-.109c.01-.076.046-.114.107-.114a.4.4 0 0 0 .169.057c0-.055.054-.111.164-.166.221.156.332.324.332.504.106 0 .271-.093.496-.28l.155-.005c0 .149.146.223.44.223v.114h-.112v.052c.198 0 .344.057.44.172l-.051-.114v-.057h.107c0 .066.111.234.332.504.658 1.645 2.554 4.406 3.475 7.834.078 0 .152.168.22.504.368-.405.699-1.655.992-3.75 0-.035-.019-.052-.056-.052.065-.897.157-1.345.276-1.345 0 .042.019.097.056.166-.075.149-.113.355-.113.618 0 .083.019.158.056.223-.037.433-.092.769-.163 1.008.037.26.092.389.163.389h.056c0-.149.036-.223.107-.223v-.556a.4.4 0 0 0 .169-.057c-.038-.079-.075-.247-.113-.504a.396.396 0 0 1 .164-.057l-.051-.28c.034 0 .051-.019.051-.057h-.107v-.109c.147 0 .22-.43.22-1.288.051-.253.106-.421.164-.504-.071 0-.107-.055-.107-.166v-.618h-.056v-.052c0-.038.019-.057.056-.057l-.056-.114c.085-.083.158-.325.22-.727l-.056-.109a.922.922 0 0 0 .113-.447l-.056-.114h.113v-.057h-.113V4.4c.174-.381.431-.681.772-.899.331.063.496.137.496.224v.114c-.409.166-.74.483-.992.95l.056.114-.169 1.231h.113l-.113.166c0 .083.019.158.056.223l-.107.28.051.28-.051.109.051.338v.166c-.071.364-.107.57-.107.618 0 .083.019.158.056.223-.075.187-.131.28-.169.28l.056.109c0 .187-.036.28-.107.28l.051.114-.107.166c.037.204.056.353.056.446-.038 0-.056.019-.056.057h.107c0-.374.092-.729.276-1.065l-.056-.332v-.057c.15 0 .225-.149.225-.447h.051l-.051-.114c.085-.121.14-.289.164-.504a.549.549 0 0 1-.056-.28h.056l-.056-.109.112-.171v-.052a.43.43 0 0 0-.056-.223c.072-.263.126-.395.164-.395-.038-.049-.056-.142-.056-.28.038 0 .056-.017.056-.052l-.056-.229c.051-.17.125-.261.22-.275l-.051-.114a.479.479 0 0 0 .051-.223h.112c-.037.502-.056.874-.056 1.117v.395c-.109 0-.164.036-.164.109.109 0 .164.187.164.561h.056c.147-.287.22-.455.22-.504a.402.402 0 0 1-.056-.166l.056-.561a.402.402 0 0 1-.056-.166c.112 0 .169-.074.169-.224h.107v.052c-.147.769-.22 2.038-.22 3.807h-.056c0 .038.019.057.056.057l-.056.28v.109l.22-.109v.052c-.072.758-.237 1.915-.496 3.47 0 .447-.274 1.063-.823 1.849 0 .228-.331.358-.992.389zM49.922 14.279h-.327c0-.073-.111-.147-.332-.223-.552-.596-.828-2.143-.828-4.644-.034 0-.051-.074-.051-.223 0-.038.017-.057.051-.057l-.051-.28v-.504c0-.035.017-.052.051-.052a.444.444 0 0 1-.051-.172l.051-1.34h.056c0-.038-.019-.057-.056-.057.048-.505.085-.803.113-.894 0-.038-.019-.057-.056-.057 0-.038.019-.094.056-.166.038-.942.056-1.688.056-2.239 0-.609-.073-1.394-.22-2.353.16-.298.325-.447.496-.447.211 0 .339.094.384.281.269.063.508.249.716.561 0 .1.037.211.112.332l.108-.052h.056c.072.509.107.788.107.836h.112V2.42c.157 0 .249.26.276.779.051 0 .125.261.22.784.038 0 .056.019.056.057s-.019.057-.056.057l.164 1.174a2.882 2.882 0 0 0-.056.504v.613a.492.492 0 0 1-.051.229.408.408 0 0 1 .051.166c-.133 1.378-.242 2.067-.327 2.067l.056.395v1.007a.445.445 0 0 1-.056.223c.038.066.056.14.056.224v.057c0 .073-.038.109-.112.109 0-.038-.019-.057-.056-.057v.057l.112.166v.114l-.22 1.792-.276.447a.437.437 0 0 0-.332.166c0 .038.019.057.056.057l-.056.561v.109z"/>
      <path fill="#1d1d1f" style="fill:var(--color9, #1d1d1f)" d="m40.93 30.063.054-.108.103.054a.417.417 0 0 0 .211-.054l.108.054a.412.412 0 0 1 .211-.054h.103l.319.054c.271-.052.464-.158.578-.318.072 0 .108.054.108.161.669-.238 1.004-.485 1.004-.739l.103.054h.054c0-.065.052-.119.157-.162.457-.352.686-.563.686-.631.565-.316.847-.563.847-.739.317-.238.475-.414.475-.529.421-.154.632-.364.632-.632l-.054-.475c0-.059.036-.093.108-.103-.176-.271-.265-.429-.265-.475-.333-.134-.58-.416-.74-.847v-.049h.108c.385.258.578.432.578.524h.108c0-.28-.529-.684-1.587-1.209-.33-.352-1.226-.705-2.689-1.057-1.616-.317-2.777-.633-3.482-.95 0-.065.106-.258.318-.578.353-.294.529-.47.529-.529.428-.254.656-.465.686-.631.131-.105.5-.281 1.107-.529.411.281.674.421.789.421l.264-.049-.054-.108v-.054h.108v-.421c0-.378-.405-.783-1.215-1.214-.366-.199-.945-.339-1.739-.421-.094 0-.411.194-.95.582a1.135 1.135 0 0 1-.319.524 3.497 3.497 0 0 0-.74.896 2.372 2.372 0 0 0-.524 1.532c0 .352.07.529.211.529.092.245.18.367.264.367.294.447.487.676.578.685.379.353.643.529.793.529.203.264.923.545 2.16.842.072 0 .108-.036.108-.108.153.108 1.208.372 3.164.793 0 .166-.088.343-.264.529-.206.382-.416.662-.632.842-.758.551-1.391.868-1.9.949l-.367-.054a4.363 4.363 0 0 1-.686.162v-.054l-.897.103c-.313-.104-.508-.157-.583-.157v-.054c.248-.421.372-.702.372-.842v-.054c-.228 0-.651.228-1.269.685l.054.264c-.245.176-.367.282-.367.318v.157c.163.281.268.421.313.421l-.054.108v.049c.072.251.108.393.108.426 0 .186.228.467.686.842.202.209.519.367.95.475l.103-.054 1.058.108zm10.188-.584c0-.078.122-.218.367-.421.398-.095.645-.201.74-.318l-.054-.103c.284-.388.46-.582.529-.582.092-.317.162-.475.211-.475h.103c.141.565.265.951.372 1.16.036 0 .054-.016.054-.049l.103.049v-.157l-.054-.103c.036 0 .054-.018.054-.054h-.103v-.318h-.108v-.054l.054-.103h.054c.189.737.312 1.106.368 1.106 0-.036.018-.088.054-.157a11.263 11.263 0 0 1-.265-1.111c.036 0 .054-.016.054-.049h.049c.098.349.186.524.265.524a.384.384 0 0 0-.054-.157.41.41 0 0 0 .054-.21v-.264l-.054-.103h.054c-.14-.659-.211-1.046-.211-1.16h.054c0-.284.07-.426.211-.426l-.054-.524v-.475c0-.036.018-.054.054-.054.203-.476.413-1.426.632-2.849l-.054-.259c.036-.476.054-.881.054-1.214v-.739c0-.059.036-.095.108-.108l.103.318h.054c0-.163.052-.285.157-.367 0-.059-.034-.095-.103-.108 0-.036.018-.054.054-.054a1.1 1.1 0 0 0-.372-.842.384.384 0 0 0-.157.054.384.384 0 0 1-.157-.054v.108h-.211v-.162l-.318-.21-.265.054h-.054v-.157h-.103l-.108.049-.054-.103c-.137 0-.295.122-.475.367h-.157v-.103h-.103v.157a1.59 1.59 0 0 0-.475.421c0 .274.052 1.1.157 2.477a.421.421 0 0 0-.054.215l.054.103h-.054l.054.367v.739c-.385 1.595-.772 2.721-1.161 3.378-.669.842-1.091 1.263-1.264 1.263-.085-.209-.157-.313-.215-.313 0-.352-.087-.528-.26-.528l.049-.108a.614.614 0 0 0-.103-.313l.054-.264c-.108-.483-.18-.765-.216-.847h.054c-.104-1.472-.157-2.49-.157-3.054v-.054l-.054-.108h.054l-.054-.524v-.054c0-.186.018-.485.054-.896-.059 0-.095-.036-.108-.108l.161-.788-.161-.108.108-.157v-.372h-.157c-.248.072-.39.108-.426.108h-.049c0-.072-.036-.108-.108-.108l.054-.103v-.054c-.212-.023-.318-.075-.318-.157-.127 0-.216.018-.264.054-.033 0-.049-.054-.049-.162l-.265.054v-.108a.387.387 0 0 1-.162.054c-.134.212-.238.318-.313.318l-.157-.108h-.054v.054c0 .072-.07.108-.211.108-.042.317-.096.475-.162.475l.318 1.527c-.046 0-.081.106-.108.318 0 .065.036.188.108.367h-.054c.082 1.018.136 1.527.162 1.527 0 1.579.299 2.986.896 4.219 0 .202.369.607 1.107 1.214h.103l.108-.054c.212.366.441.576.686.632l.108-.049c.153.14.258.211.313.211l.211-.054c.131.104.377.157.74.157h.108zm3.102.849v-.054c0-.059-.034-.095-.103-.108l.103-.157v-.054a.384.384 0 0 1-.157-.054l.054-.103v-.21h-.108a.51.51 0 0 1-.054.264c.036.059.072.217.108.475h.157zm12.362 1.097-.211-.103a.41.41 0 0 1-.162.049l-.211-.049a.4.4 0 0 1-.157.049c0-.091-.124-.162-.372-.21a1.136 1.136 0 0 0-.421-.524c-.209-.378-.367-.906-.475-1.581l.054-.108a.384.384 0 0 1-.054-.157h.054c-.062-.114-.132-.607-.211-1.478h.054c-.065-.212-.242-1.863-.529-4.954-.036 0-.088-.282-.157-.847 0-.036.018-.088.054-.157 0-.365-.212-.77-.637-1.214 0-.023-.088-.27-.265-.739.039-.157.163-.279.372-.367h.054v.103c.248-.069.389-.103.421-.103h.054v.318h.103l-.054.103v.054c.072 0 .108.018.108.054l.421-.264h.054v.054a.35.35 0 0 0-.054.157c.036 0 .054.018.054.054a.384.384 0 0 1 .157-.054c.307.02.624.3.95.842 0 .232.123.584.368 1.057.248 2.255.372 3.485.372 3.691h.054c.8-.108 1.398-.162 1.793-.162h.211c.317 0 .475-.192.475-.578h.054l-.054-.108v-.049c.176 0 .353-1.056.529-3.167-.072 0-.108-.034-.108-.103v-.318c.189 0 .33-.052.421-.157h.108l.049.264c-.033 0-.049.016-.049.049l.103.054c0-.036.018-.054.054-.054l-.054-.103v-.054c.232 0 .372-.106.421-.318h.108c0 .039.018.093.054.162l.103-.054h.054c0 .117.018.205.054.264l.103-.054c.072.01.108.046.108.108v.049h-.108v.054h.162l.049-.103a.422.422 0 0 1-.049-.162h.103c.212.186.318.344.318.475h.157l.108-.054-.054-.103c.01-.072.044-.108.103-.108.261 0 .403.054.426.162v.103c0 .072-.054.108-.162.108.141.366.211.594.211.685-.173.698-.259 1.576-.259 2.634l.103.054c0-.036.018-.054.054-.054 0 .072.018.107.054.107l.21-.107v.054c0 .104-.14.174-.421.21v.318h.367l.686-.157c0 .033.018.049.054.049 0-.068.141-.12.421-.157v.054c0 .046-.229.168-.686.367 0 .14-.317.299-.95.475v.108l.265-.054c.036 0 .054.018.054.054a.384.384 0 0 1 .157-.054h.108v.054c-.424.052-.637.122-.637.21 0 .105-.018.157-.054.157l.054.108a4.063 4.063 0 0 0-.103.524l.049.318c0 .323-.104 1.131-.313 2.423h-.108v-.103h-.049v.685h-.162l-.211-.157c0 .059-.088.217-.264.475 0 .375-.104.586-.313.632 0 .104-.176.157-.529.157h-.054c0-.104-.052-.157-.157-.157h-.054v-.421a.393.393 0 0 0-.054-.21c0-.036.018-.054.054-.054 0-.072-.018-.108-.054-.108.082-1.335.152-2.002.211-2.002l-.049-.108c.069-.242.103-.452.103-.631v-.421l.054-.264c-.085-.068-.155-.103-.21-.103-.519.104-.872.191-1.058.259v.318c-.091 0-.214.194-.367.583l-.475 1.052a.384.384 0 0 1-.157.054v.421c0 .085-.088.243-.265.475 0 .209-.036.313-.108.313l.054.108c-.281.3-.421.476-.421.529v.264l.054.103c-.118 0-.188.07-.211.21zm2.544-6.965c.166-.532.289-.814.367-.847a1.2 1.2 0 0 0-.157-.367l.103-.157h-.049c-.059 0-.131.122-.216.367l.054.264c-.016.14-.069.21-.157.21v.054l.054.103h-.108v.264c.013.072.049.108.108.108zm1.312 4.33c.085 0 .137-.176.157-.529a.396.396 0 0 1-.049-.157h.103v-.21c0-.072-.034-.108-.103-.108l.049-.264v-.524c0-.036.018-.054.054-.054l-.054-.108c0-.036.018-.088.054-.157l-.103-.475c.032 0 .049-.018.049-.054h-.103v.372a.41.41 0 0 1-.054.21c0 .036.018.054.054.054l-.054.259v.108l.054.367h-.054l.054.108v.103c0 .072-.036.108-.108.108.072.114.108.22.108.318v.26l-.054.372zm-.375.47c.069-.264.103-.423.103-.475 0-.036-.018-.054-.054-.054l.054-.264v-.578l-.054-.636h.054l-.054-.103v-.367c0-.036.018-.054.054-.054-.036-.046-.054-.17-.054-.372-.069.013-.103.049-.103.108v.367c0 .202-.018.326-.054.372.036.189.054.348.054.475v1.581h.054zm-2.366-1.318c0-.114.123-.359.367-.734l.264-.529v-.108h-.054a2.377 2.377 0 0 0-.475.847c-.023 0-.093.088-.211.264v.259h.108zm-1.219.847c.209-.229.596-.809 1.161-1.743 0-.033.018-.049.054-.049v.157h.103c0-.147.036-.323.108-.528h-.054v.054c-.036 0-.054-.018-.054-.054-.578.212-.911.318-.999.318-.238-.104-.379-.157-.421-.157v.157a.44.44 0 0 0 .049.21c0 .036-.016.054-.049.054.033.16.067.687.103 1.581zm8.327 2.272v-.103l.054-.529c-.036 0-.054-.018-.054-.054a.422.422 0 0 1 .319-.157l.264-.421.211-1.689V28l-.108-.157v-.054c.036 0 .054.018.054.054.072 0 .108-.034.108-.103v-.054a.414.414 0 0 0-.054-.211.41.41 0 0 0 .054-.21v-.949l-.054-.372c.082 0 .186-.65.314-1.948a.395.395 0 0 0-.049-.157.465.465 0 0 0 .049-.216v-.578c0-.127.018-.285.054-.475l-.157-1.106c.036 0 .054-.018.054-.054s-.018-.054-.054-.054c-.091-.493-.162-.739-.211-.739-.026-.49-.114-.734-.264-.734v.103h-.108c0-.046-.034-.308-.103-.788h-.054l-.103.049a.6.6 0 0 1-.108-.313c-.199-.294-.428-.47-.686-.529-.043-.176-.165-.264-.367-.264-.163 0-.322.14-.475.421.14.904.21 1.643.21 2.217 0 .519-.018 1.222-.054 2.11a.38.38 0 0 0-.054.157c.036 0 .054.018.054.054-.026.085-.062.366-.108.842.036 0 .054.018.054.054h-.054l-.049 1.263a.41.41 0 0 0 .049.162c-.033 0-.049.016-.049.049v.475l.049.264c-.033 0-.049.018-.049.054 0 .14.016.21.049.21 0 2.356.264 3.815.793 4.376.212.072.318.142.318.21h.313zm-17.019-10.82c.489-.182.948-.334 1.377-.456h.047v.089c-.154.009-.23.04-.23.094-.276.017-.414.078-.414.183h-.136a.519.519 0 0 0-.32.136h-.324v-.047zm5.24 6.965h.047c0-.065-.045-.158-.136-.277v-.136l.043-.094-.273-.46a9.335 9.335 0 0 0-1.747-1.376c-.639-.378-.96-.592-.963-.643-.253-.108-.926-.52-2.02-1.235-.599-.338-1.011-.69-1.236-1.056.014-.122.06-.183.136-.183 0-.204.936-.535 1.732-.862.46-.125.69-.232.69-.32.793-.264 1.236-.433 1.33-.507.46-.102.69-.179.69-.23.068 0 .129.108.183.324l-.047.089c0 .063.045.093.136.093v.047c-.091 0-.136.046-.136.136.031.153.124.352.277.596h.136l-.047-.094h.136c.134-.398.242-.596.324-.596v-.09a.91.91 0 0 1 .136-.46.361.361 0 0 1-.047-.183c-.014-.105-.258-.304-.733-.596l-.78-.23h-.047c-.21 0-.439.047-.686.14-.861.182-1.412.365-1.654.549l-.094-.047h-.09a1.196 1.196 0 0 1-.597.23l-1.607.732c-.662.341-1.03.693-1.104 1.056 0 .045.077.244.23.596l-.047.094c0 .026.061.162.183.409 0 .082.077.175.23.277 0 .088.138.271.413.549.344.207.604.406.78.596.307.054.46.131.46.23.602.329.939.544 1.01.643.776.429 1.571.932 2.386 1.512.52.267.78.451.78.554-.316.252-1.249.451-2.8.596 0-.031-.016-.047-.047-.047a.361.361 0 0 1-.183.047h-1.79c-.489 0-.733.183-.733.549v.136c.117 0 .193.108.23.324l.273.183c.131.091.223.136.277.136.173.122.295.183.366.183 0 .156.291.264.874.324v.042l-.047.094c.25 0 .403.03.46.09h.136l.277-.043.089.043c.441-.037.822-.082 1.147-.136 0 .031.016.047.047.047a7.963 7.963 0 0 0 1.837-.46c.196-.045.365-.244.507-.596h.32l.094-.32v-.14c0-.071.378-.632.284-.833z"/>
    </symbol>
    <symbol id="menu-close" viewBox="0 0 32 32">
      <path d="M23.733 10.304 22.229 8.8l-5.963 5.963L10.303 8.8l-1.504 1.504 5.963 5.963-5.963 5.963 1.504 1.504 5.963-5.963 5.963 5.963 1.504-1.504-5.963-5.963 5.963-5.963z"/>
    </symbol>
    <symbol id="menu-open" viewBox="0 0 32 32">
      <path d="M6.4 11.733V9.6h19.2v2.133H6.4zm0 5.334h19.2v-2.133H6.4v2.133zm0 5.333h19.2v-2.133H6.4V22.4z"/>
    </symbol>
     <symbol id="cart-icon" viewBox="0 0 33 32">
      <path d="M7.6 1.867a1.333 1.333 0 0 1 1.067-.533h16c.42 0 .815.198 1.067.533l4 5.333c.173.231.267.511.267.8v18.667a4.001 4.001 0 0 1-4 4H7.334a4.001 4.001 0 0 1-4-4V8c0-.288.094-.569.267-.8l4-5.333zM9.333 4 6 8.444v18.222A1.335 1.335 0 0 0 7.334 28h18.667a1.334 1.334 0 0 0 1.334-1.334V8.444L24.002 4H9.335z"/>
      <path d="M3.333 8c0-.736.597-1.333 1.333-1.333h24a1.333 1.333 0 0 1 0 2.666h-24A1.333 1.333 0 0 1 3.333 8zM11.333 12c.736 0 1.333.597 1.333 1.333a4.003 4.003 0 0 0 4 4 4.001 4.001 0 0 0 4-4 1.333 1.333 0 0 1 2.666 0 6.67 6.67 0 0 1-11.381 4.714 6.668 6.668 0 0 1-1.953-4.714c0-.736.597-1.333 1.333-1.333z"/>
    </symbol>
    <symbol id="phone" viewBox="0 0 32 32">
      <path fill="#f63" style="fill:var(--color2, #f63)" d="M28.537 16.297c.554 0 1.003-.449 1.003-1.003 0-7.205-5.625-12.83-12.83-12.83a1.003 1.003 0 1 0 0 2.006c6.096 0 10.823 4.726 10.823 10.823 0 .554.449 1.003 1.003 1.003zm-15.374-3.606a3.01 3.01 0 0 0 0-4.257l-2.838-2.838a3.01 3.01 0 0 0-4.257 0L3.346 8.318a3.008 3.008 0 0 0-.879 2.249c.17 4.248 2.335 8.428 6.439 12.532s8.284 6.27 12.532 6.439a3.01 3.01 0 0 0 2.249-.879l2.722-2.722a3.01 3.01 0 0 0 0-4.257l-2.838-2.838a3.01 3.01 0 0 0-4.257 0l-1.53 1.53a.334.334 0 0 1-.442.027l-1.196-.931a20.535 20.535 0 0 1-3.608-3.608l-.931-1.196a.334.334 0 0 1 .027-.442l1.53-1.53zM4.765 9.737l2.722-2.722a1.003 1.003 0 0 1 1.419 0l2.838 2.838a1.003 1.003 0 0 1 0 1.419l-1.53 1.53a2.341 2.341 0 0 0-.193 3.093l.931 1.196a22.59 22.59 0 0 0 3.96 3.96l1.196.931a2.341 2.341 0 0 0 3.093-.193l1.53-1.53a1.003 1.003 0 0 1 1.419 0l2.838 2.838a1.003 1.003 0 0 1 0 1.419l-2.722 2.722c-.198.198-.47.304-.75.293-3.69-.147-7.419-2.079-11.193-5.853S4.617 14.175 4.47 10.485c-.011-.28.095-.552.293-.75zm20.518 6.029a1.003 1.003 0 1 1-2.007 0c0-3.51-3.528-7.038-7.038-7.038a1.003 1.003 0 1 1 0-2.006c4.618 0 9.045 4.427 9.045 9.045z"/>
    </symbol>
    <symbol id="ninja-sushi-logo-desktop" viewBox="0 0 147 32">
      <path fill="#1d1d1f" style="fill:var(--color3, #1d1d1f)" d="M30.403 11.133c-.409-.957-.863-2.021-2.758-1.37V4.597c0-2.668-4.498-4.598-9.978-4.598s-9.978 1.93-9.978 4.598v22.805c0 2.668 4.498 4.598 9.978 4.598s9.978-1.93 9.978-4.598V13.64c1.69.222 2.055 1.551 1.739 2.925l1.739.276c.39-2.52-.467-4.196-3.478-4.327v-1.051c1.157-.557 1.865.354 2.59 1.288.595.766 1.202 1.547 2.078 1.547 1.282 0 2.288-.644 3.021-1.931l-1.556-2.115c-.305 1.41-1.037 2.115-2.197 2.115-.651 0-.905-.593-1.178-1.234zm-10.075 6.025c-.887-.216-1.799-.438-2.697-.438-.912 0-1.834.227-2.727.446-2.332.573-4.469 1.099-5.74-2.58-1.55-4.488 1.988-3.499 5.214-2.597 1.252.35 2.456.687 3.298.685.809-.001 1.972-.317 3.187-.647 3.198-.868 6.763-1.836 5.234 2.559-1.276 3.666-3.437 3.14-5.77 2.572zm-7.15-3.327c-.393-.18-.782-.346-1.149-.465-.051.65.229 1.254.855 1.843.546.514 1.06.574 1.612.13.182-.2.339-.426.472-.678a18.931 18.931 0 0 1-.697-.313.734.734 0 0 1-.723.854.734.734 0 0 1-.732-.736c0-.271.145-.507.362-.635zm-3.291.175c.236-.712.76-.898 1.423-.812-.112.916.251 1.778 1.073 2.552.237.223.476.386.717.491a5.072 5.072 0 0 1-1.29.252c1.861.35 3.195-.162 4.003-1.536.776.188 1.306.004 1.306-1.038-.27 1.086-1.501.34-2.875-.492-1.885-1.142-4.039-2.447-4.357.584zm11.172.327c-.241.124-.477.241-.705.338.134.254.292.481.475.683.552.444 1.066.384 1.612-.13.655-.617.931-1.25.845-1.935-.395.118-.807.307-1.22.516a.736.736 0 0 1-.29 1.412.734.734 0 0 1-.717-.884zm-2.677.148c.277.407.661.516 1.112.454.806 1.399 2.147 1.922 4.022 1.569a5.072 5.072 0 0 1-1.29-.252c.241-.105.48-.268.717-.491.835-.787 1.196-1.665 1.067-2.598.559-.013 1.055.213 1.429.858-.356-3.294-2.394-1.96-4.296-.715-1.071.701-2.1 1.374-2.759 1.175zm-.366-1.379c0 .513.275.92.732 1.012-.458.092-1.007-.276-.732-1.012zm8.348-8.504c0 1.801-3.863 3.494-8.696 3.494S8.972 6.399 8.972 4.598s3.863-3.494 8.696-3.494 8.696 1.693 8.696 3.494z"/>
      <path fill="#f63" style="fill:var(--color2, #f63)" d="M21.969 4.597c0 1.016-1.926 1.839-4.302 1.839s-4.302-.823-4.302-1.839 1.926-1.839 4.302-1.839 4.302.823 4.302 1.839z"/>
      <path fill="#1d1d1f" style="fill:var(--color3, #1d1d1f)" d="M53.911 21.336v-.141l.072-.725c-.048 0-.072-.025-.072-.074.127-.143.269-.215.427-.215l.354-.577.282-2.316v-.148l-.144-.215v-.074c.048 0 .072.025.072.074.096 0 .144-.047.144-.141v-.074a.577.577 0 0 0-.072-.289.577.577 0 0 0 .072-.289V14.83l-.072-.51c.109 0 .249-.891.42-2.672a.528.528 0 0 0-.066-.215.636.636 0 0 0 .066-.296v-.792c0-.175.024-.391.072-.651l-.21-1.517c.048 0 .072-.025.072-.074s-.024-.074-.072-.074c-.122-.676-.216-1.013-.282-1.013-.035-.672-.153-1.007-.354-1.007v.141h-.145c0-.063-.046-.423-.138-1.081h-.072l-.138.067a.84.84 0 0 1-.144-.429c-.267-.403-.573-.645-.919-.725-.057-.241-.221-.363-.492-.363-.219 0-.431.193-.636.578.188 1.24.282 2.253.282 3.041 0 .712-.024 1.676-.072 2.894a.53.53 0 0 0-.072.215c.048 0 .072.024.072.074-.035.117-.083.502-.144 1.155.048 0 .072.025.072.074h-.072l-.065 1.732c0 .054.022.128.065.222-.044 0-.065.022-.065.067v.651l.065.362c-.044 0-.065.025-.065.074 0 .193.022.289.065.289 0 3.231.354 5.232 1.063 6.002.284.098.426.195.426.289h.42zm4.855 2.559c2.256.823 3.807 1.257 4.653 1.302 0 0 2.379.535 3.483-.111 1.991-1.164 1.481-9.054 1.481-9.054l.155-2.255c.023-1.588-.125-3.29-.443-5.104l-.031-.084c-.191-.506-.73-1.935-.669-2.245.102-.225.194-.33.275-.313l.206.042c.018-.092.051-.133.098-.124l.347.072.015-.072.468.171-.013.066c-.138-.029-.215.006-.235.102l.156-.043.064.013-.014.072-.177.183c-.014.07.041.154.165.253l.141.029c.025-.127.112-.207.261-.241l.013-.066.277.057c-.015.074.239.371.762.89.412.514.795 1.257 1.148 2.229.341 1.444.479 2.333.413 2.667l-.071-.015c.083.803.139 1.747.166 2.835a.529.529 0 0 0-.113.203c.141.029.179.454.111 1.276l-.098.123-.087 1.906c-.159.333-.245.534-.259.604l-.013.443.064.013.156-.043-.029.145-.097.124c.047.01.066.039.057.087-.047-.01-.076.009-.085.058l.139.029c.597-.867 1.029-1.566 1.295-2.097 0-.103.142-.271.427-.503l1.056-2.383c-.048-.027-.072-.197-.072-.51.333-.72.545-1.081.637-1.081.345-.77.912-2.41 1.699-4.921l.636-1.517a.535.535 0 0 1-.072-.215c.175 0 .433-.217.775-.651h.289l.065.289h.072c.097 0 .145-.049.145-.148l.702.074h.144c0 .143.046.215.138.215h.073c0-.143.048-.215.144-.215h.072c.092.013.138.063.138.148l.144-.074h.066v.289h.144c.092 0 .138-.049.138-.148v-.067l-.065-.148.354-.074h.138l-.072.148v.215c.096 0 .144.096.144.289h.565c0 .049-.025.074-.073.074.022.242.094.362.217.362v.429c.026.515.166.877.42 1.088 0 .022.072.264.217.725l.138-.074h.072l.282 1.087c.14 0 .21.143.21.43-.048 0-.072.025-.072.074l.144.074v-.074c-.048 0-.072-.024-.072-.074h.217c.004.273.144.803.42 1.591a3.55 3.55 0 0 0-.073.577l.145.074c0-.049.024-.074.072-.074 0 .099.14.412.42.94 1.457-.143 2.329-.215 2.618-.215v.148h-.145l.073.356-1.411.436.065.148c0 .228-.21.372-.63.43v.074h.138v.148l-.138.215v.141c.377 1.222.683 2.307.919 3.256 0 .076.046.172.138.289v.074c0 .049-.024.074-.073.074l.637 1.88c-.044 0-.066.024-.066.074.201 0 .411.745.63 2.236-.157 0-.273.121-.348.362h-.427c0 .148-.118.222-.354.222-.166-.166-.591-.36-1.273-.584 0-.076-.353-.219-1.057-.429 0-.054-.142-.175-.427-.363v-.148l.492.074h.217c.092 0 .138-.047.138-.141 0-.152-.446-1.334-1.339-3.544 0-.296-.237-1.043-.709-2.242-.905.291-1.894.508-2.966.651 0-.049-.024-.074-.072-.074 0 .143-.142.239-.427.289-.8.188-1.201.454-1.201.799-.297.967-.579 1.64-.847 2.021v.221c.141 0 .211.047.211.141v.074l-.138-.074h-.145c-.139.376-.209.617-.209.725l-.145-.074c0 .125-.142.271-.427.436 0 .09-.258.524-.774 1.302l-.145.067h-.137l-.283-.215H74.1c-.092.013-.137.063-.137.148a.535.535 0 0 1 .065.215l-.138.074c-.061-.049-.179-.074-.354-.074 0 .143-.095.215-.283.215l-1.135-.792c-.291 0-.574-.349-.85-1.047-.023.315-.098.794-.224 1.436l-.111.566c-.065.329-.142.484-.232.466l-.069.725-.083.421c-.253.788-.563 1.265-.931 1.431-.097.078-.273.137-.523.178l-.016.006-.009.003-.005.002c-.105.088-.114.116-.124.149-.009.028-.019.059-.093.135-.054.024-.178.037-.369.038v.002a.79.79 0 0 1-.442.038c-.215.258-.379.413-.496.465l-.699-.008c-.636.076-1.428.091-2.376.043-.729-.362-1.592-.63-2.591-.807-.497-.388-.938-.582-1.326-.584-.093-.217-.757-.683-1.992-1.399-.412-.235-.66-.334-.744-.296-.311-.334-.526-.475-.647-.42l-.113-.264c1.178.472 1.811.688 1.899.649l-.029-.067-.591-.292-.026-.061.066-.03c.012.029.387.179 1.126.45s1.361.408 1.868.409c.411.079.675.092.791.04l.066-.03c.072-.032.096-.094.071-.186-1.735-.446-2.657-.796-2.767-1.05l-.097.124c-.132.06-.264-.064-.396-.372l-.126.057.055.129-.066.03a2.263 2.263 0 0 0-.293-.499l.132-.059.029.067zm12.749-3.647-.002-.002-.003-.003.009.001-.003.004zm-25.11 2.199a.552.552 0 0 1-.354-.148c0 .049-.024.074-.072.074 0-.059-.188-.251-.564-.578 0-.206-.188-.423-.564-.651-.433-.26-1.022-1.295-1.765-3.108-.154-.222-.246-.245-.275-.069.044.367.066.788.066 1.262 0 .072-.022.107-.066.107l.066.148v.436c0 .094-.046.333-.138.718l.138-.067c.048.497.072.785.072.866h-.072l.072.141v.51l.072.363c-.096 0-.144.072-.144.215 0 .04.024.233.072.577l-.774.289c-.284 0-.426-.24-.426-.718h-.144a2.238 2.238 0 0 0-.066.504h-.072c0-.305-.236-.497-.708-.578 0-.322-.118-.709-.354-1.161a.51.51 0 0 1-.21.074v.074h.144v.074c0 .045-.024.067-.072.067l.072.148v.148c-.381-.349-.571-1-.571-1.954.096-.993.144-1.705.144-2.135 0-.505-.048-.951-.144-1.336 0-.045.024-.237.072-.577 0-.063-.024-.304-.072-.725l.072-.363c-.048-.081-.072-.202-.072-.363h.072c-.092-.255-.162-.615-.21-1.081h.072c-.582-3.039-1.1-4.558-1.555-4.558l-.144-.504v-.074c.013-.098.061-.147.144-.147h.065l.144.074c0-.049.024-.074.072-.074l-.072-.141c.013-.099.059-.148.138-.148a.51.51 0 0 0 .216.074c0-.072.07-.143.21-.215.284.201.426.418.426.651.136 0 .348-.121.636-.362l.199-.007c0 .192.188.289.564.289v.148h-.144v.067c.254 0 .442.074.564.222l-.066-.148v-.074h.138c0 .085.142.302.426.652.277.697.724 1.548 1.242 2.534 1.063 2.023 2.424 4.613 3.218 7.591.101 0 .195.217.282.651.473-.524.897-2.139 1.273-4.847 0-.045-.024-.067-.072-.067.083-1.159.201-1.739.354-1.739 0 .054.024.125.072.215-.096.192-.144.459-.144.799a.58.58 0 0 0 .072.289c-.048.56-.118.993-.21 1.302.048.335.118.503.21.503h.072c0-.192.046-.289.138-.289v-.718a.496.496 0 0 0 .217-.074c-.048-.103-.096-.32-.144-.651a.51.51 0 0 1 .21-.074l-.066-.363c.044 0 .066-.024.066-.074h-.138v-.141c.188 0 .282-.555.282-1.665.066-.327.136-.544.21-.651-.092 0-.138-.072-.138-.215v-.799h-.072v-.067c0-.049.024-.074.072-.074l-.072-.148c.11-.107.203-.42.282-.94l-.072-.141c.096-.179.144-.372.144-.577l-.072-.148h.144v-.074h-.144v-.141c.223-.492.553-.88.991-1.162.424.081.636.177.636.289v.148c-.525.215-.949.624-1.273 1.229l.072.148-.217 1.591h.145l-.145.215a.58.58 0 0 0 .072.289l-.138.362.065.363-.065.141.065.436v.215c-.092.47-.138.736-.138.799a.58.58 0 0 0 .072.289c-.096.242-.168.363-.217.363l.072.141c0 .242-.046.363-.138.363l.065.148-.138.215c.048.264.072.456.072.577-.048 0-.072.025-.072.074h.138c0-.483.118-.942.354-1.376l-.072-.43v-.074c.193 0 .289-.192.289-.577h.066l-.066-.148c.109-.157.179-.374.21-.651-.048-.08-.072-.201-.072-.363h.072l-.072-.141.145-.221v-.067a.55.55 0 0 0-.072-.288c.092-.34.162-.51.21-.51-.048-.063-.072-.184-.072-.363.048 0 .072-.022.072-.067l-.072-.296c.066-.219.16-.338.282-.356l-.065-.148a.618.618 0 0 0 .065-.289h.144c-.048.649-.072 1.13-.072 1.443v.51c-.14 0-.21.047-.21.141.14 0 .21.242.21.725h.072c.188-.372.282-.589.282-.651a.535.535 0 0 1-.072-.215l.072-.725a.535.535 0 0 1-.072-.215c.144 0 .216-.096.216-.289h.138v.067c-.188.994-.282 2.634-.282 4.921h-.072c0 .049.024.074.072.074l-.072.362v.141l.282-.141v.067c-.092.98-.304 2.475-.636 4.485 0 .577-.352 1.374-1.056 2.39 0 .295-.424.463-1.273.503-.849-.049-1.273-.241-1.273-.577zm18.504.744.354-.201c.043-.009.219-.443.528-1.304.402-1.406.672-2.481.811-3.226.135-2.003.186-3.765.156-5.286l-.011-.059c-.124.025-.199-.028-.224-.159l-.035-1.191c-.043.009-.098-.046-.164-.164l.002-.334c-.052-.167-.13-.24-.235-.218.078-.497.108-.791.09-.883l-.128.026c-.058.81-.212 1.241-.464 1.291-.024.713-.084 1.079-.181 1.098l-.064.013c.034-.517.082-.947.145-1.289l-.013-.065a.25.25 0 0 0-.075.032l-.015-.081a.524.524 0 0 1-.19-.296l-.064.013c-.066.013-.103.109-.111.287l-.07.014-.205.974c-.006.705-.091 1.278-.256 1.719l-.058.012-.013-.065c.185-2.182.347-3.59.487-4.223-.011-.055.106-.233.35-.533l-.025-.131-.25.05-.013-.065.192-.039.135.041.44-.755-.049-.256-.064.013c-.248.05-.47.36-.666.931-.039.008-.062-.008-.07-.048-.088.104-.166.163-.232.176.009.043.034.061.077.052l.013.065-.135-.041.013.065c-.091.595-.205.906-.34.933l-.003-.333-.122.025a.524.524 0 0 1-.015.268c.043-.009.068.009.077.052l.013.066-.04.137.128-.026.012.065-.064.013-.14-.04.04-.137-.025-.131-.064.013c-.195.265-.388.837-.582 1.716-.028.607-.079 1.014-.152 1.222.086 1.708.045 2.737-.125 3.088l.037.19.089.118-.064.013c-.017.58-.069.878-.154.895l-.122.024-.025-.131a1.838 1.838 0 0 0-.434-.907c.082-.477.103-.815.065-1.013l-.088-.112c.043-.008.06-.035.051-.078l-.062-.321c-.378-1.299-.631-1.936-.759-1.91l-.172-.898a6.828 6.828 0 0 0-1.092-2.639 5.436 5.436 0 0 1-.77-1.309l-.013-.065.186-.037-.082-.113-.766-.247-.622.125.034-.136-.013-.066-.186.038-.115.091c-.065-.337-.329-.594-.794-.773l-.115.091c-.008-.044-.034-.061-.076-.053l-.186.038a1.057 1.057 0 0 0-.476.225 27.74 27.74 0 0 1 .137 3.764l.089.118-.064.013a.492.492 0 0 0 .1.178c-.063.28-.121.426-.176.437.1.313.182.519.245.618a.483.483 0 0 0-.175.097.471.471 0 0 0 .102.183 4.343 4.343 0 0 0-.021.931c.043-.009.068.009.077.052-.042.009-.071.081-.085.215l.108.25c.03.303-.004.464-.1.483l.086.446c.051.389.004.598-.139.627l.074.387-.141-.04.001.667c.043-.008.068.009.076.053-.241 2.37-.268 4.039-.083 5.006.209-.042.334.042.374.252l.074.386c.167-.033.27.057.311.271l-.002.334c.388-.012.6.077.637.267l.302-.123.128-.026c.062-.013.14.06.235.218.194-.039.336-.313.428-.821l.186-.037c.043-.008.085-.239.127-.693.022-.996.095-1.631.22-1.903a.472.472 0 0 0-.095-.178c.051-.175.06-.576.028-1.204-.043.009-.068-.009-.077-.052.079-.132.13-.319.152-.562l-.125-.308c-.084-.605-.058-.921.077-.948-.008-.044-.032-.062-.071-.054-.023-.119-.018-.431.013-.935l-.128.026c.105-.355.148-.583.128-.686l.256-.051.18.624.222 1.154.089.118-.064.013.349 1.128-.04.138c.192.538.369 1.124.531 1.758.112.583.589 1.485 1.431 2.708.011.059.195.222.552.488l-.025-.131.058-.012c.141.042.217.093.228.152.257.08.482.235.675.464.41-.107.605-.212.585-.315.215-.01.332.032.35.127zm.225-11.686-.035-.182c.022 0 .045.002.067.005l.032.164-.064.013zm-.016-.769a.483.483 0 0 0-.1-.177c.128-.026.179-.104.154-.235l.058-.012.038.196c-.081.017-.11.088-.086.215l-.064.013zm-17.238 2.62c-.065 0-.135-.072-.21-.215V13c0-.049.024-.074.072-.074l-.072-.148a.84.84 0 0 0 .144-.429h.138v.067l-.072.363c.048.188.072.381.072.577h-.072zm28.799-1.751c.101-.022.195-.143.282-.363a.618.618 0 0 1-.065-.289c.109 0 .321-.41.636-1.228l-.072-.148v-.074c.258-.3.398-.709.42-1.229h-.282v.148h.144c-.709 1.535-1.063 2.596-1.063 3.182zm-12.742 7.341c.001.235-.042.463-.128.686-.074.015-.124-.018-.152-.099l-.061-.321.064-.013.278-1.254a.483.483 0 0 0-.1-.177c.066-.013.141-.074.225-.181l.013.065-.086.215.025.131.122-.024-.036-.191.064-.013.073.38c-.119.514-.219.779-.3.795zm14.732-3.352c.241 0 1.019-.192 2.336-.577v-.074c0-.103-.331-1.139-.991-3.109v-.067c-.223.3-.459.83-.708 1.591a8.084 8.084 0 0 1-.565 1.947h-.072v.289zm6.325 3.584c0-.058-.024-.298-.073-.718l.073-.362c-.048 0-.073-.025-.073-.074l-.137.074h-.145c0-.34-.094-.51-.282-.51.285 1.11.497 1.665.637 1.665v-.074zm-20.815-2.986c-.039.008-.062-.008-.069-.048l-.019.014.008.04c.006.032-.038.483-.132 1.354l-.064.013-.011-.06-.01-.399c.095-.461.143-.761.145-.9l-.032.023-.064.013-.049-.255.192-.039c.08-.633.146-.956.201-.967l.064-.013.024.125a.669.669 0 0 1-.002.334c-.151.347-.21.602-.179.765zM99.545 23.384l.073-.145.139.073a.55.55 0 0 0 .283-.073l.145.073a.557.557 0 0 1 .283-.073h.138l.429.073c.364-.07.623-.213.777-.428.097 0 .145.072.145.217.901-.32 1.351-.652 1.351-.994l.139.072h.072c0-.088.071-.16.211-.217.615-.474.922-.757.922-.849.759-.426 1.139-.757 1.139-.994.427-.32.639-.557.639-.711.567-.207.85-.489.85-.85l-.073-.639c0-.079.048-.125.145-.138-.237-.364-.356-.577-.356-.638-.448-.18-.779-.56-.995-1.139v-.066h.145c.519.347.777.582.777.705h.145c0-.377-.712-.919-2.135-1.626-.444-.474-1.649-.948-3.617-1.422-2.174-.426-3.735-.852-4.684-1.277 0-.088.143-.347.429-.777.474-.395.711-.632.711-.711.575-.342.883-.625.922-.849.176-.141.672-.378 1.489-.711.553.378.907.566 1.061.566l.356-.066-.073-.145v-.072h.145v-.566c0-.509-.545-1.053-1.633-1.633-.492-.268-1.272-.456-2.339-.566-.127 0-.553.261-1.278.783-.061.246-.204.481-.428.705-.378.32-.709.722-.995 1.205-.471.584-.705 1.271-.705 2.061 0 .474.095.711.283.711.123.33.242.494.356.494.395.601.654.909.777.922.509.474.865.711 1.067.711.272.356 1.241.733 2.905 1.132.097 0 .145-.049.145-.145.207.145 1.625.5 4.256 1.066 0 .224-.119.461-.355.711-.277.513-.56.891-.85 1.132-1.019.742-1.871 1.168-2.557 1.277l-.494-.072a5.918 5.918 0 0 1-.922.217v-.072l-1.206.138c-.421-.14-.683-.211-.784-.211v-.072c.334-.566.501-.944.501-1.132v-.073c-.307 0-.876.307-1.706.922l.073.355c-.33.237-.494.38-.494.428v.211c.219.378.36.566.421.566l-.073.145v.066c.097.338.145.529.145.573 0 .25.307.628.922 1.133.272.281.698.494 1.278.638l.139-.073 1.423.145zm13.696-.783c0-.105.165-.294.494-.566.536-.128.868-.27.995-.428l-.073-.138c.382-.522.619-.783.711-.783.123-.426.217-.639.283-.639h.138c.189.759.356 1.279.501 1.56.048 0 .072-.022.072-.066l.139.066v-.211l-.073-.138c.048 0 .073-.024.073-.072h-.139v-.428h-.145v-.073l.073-.138h.072c.255.992.419 1.488.495 1.488 0-.048.023-.118.072-.211a14.985 14.985 0 0 1-.355-1.494c.048 0 .072-.022.072-.066h.066c.132.469.251.704.356.704a.512.512 0 0 0-.073-.211.547.547 0 0 0 .073-.283v-.356l-.073-.138h.073c-.189-.887-.283-1.407-.283-1.56h.073c0-.382.094-.573.283-.573l-.072-.705v-.639c0-.048.024-.072.072-.072.273-.641.556-1.918.85-3.832l-.073-.349c.049-.641.073-1.185.073-1.633v-.994c0-.079.049-.127.145-.145l.138.428h.073c0-.22.07-.384.211-.494 0-.079-.046-.127-.139-.145 0-.048.025-.072.073-.072 0-.447-.167-.825-.501-1.132a.517.517 0 0 0-.211.072.517.517 0 0 1-.211-.072v.145h-.283v-.217l-.428-.283-.356.072h-.073v-.211h-.138l-.145.066-.073-.138c-.184 0-.397.165-.639.494h-.211v-.138h-.139v.211a2.137 2.137 0 0 0-.639.566c0 .369.07 1.479.211 3.331a.56.56 0 0 0-.073.289l.073.138h-.073l.073.494v.995c-.519 2.146-1.039 3.66-1.561 4.543-.901 1.132-1.467 1.699-1.7 1.699-.114-.281-.211-.422-.289-.422 0-.474-.117-.711-.349-.711l.065-.145a.833.833 0 0 0-.138-.421l.073-.356c-.145-.65-.242-1.029-.29-1.139h.072c-.14-1.979-.211-3.349-.211-4.108v-.073l-.072-.145h.072l-.072-.704v-.072c0-.25.024-.652.072-1.205-.079 0-.127-.048-.145-.145l.217-1.06-.217-.145.145-.211v-.5h-.211c-.334.096-.525.145-.573.145h-.066c0-.096-.048-.145-.145-.145l.073-.138v-.072c-.286-.031-.429-.101-.429-.211-.171 0-.29.024-.355.072-.044 0-.066-.072-.066-.217l-.356.073v-.145a.52.52 0 0 1-.217.072c-.18.285-.321.428-.421.428l-.211-.145h-.073v.072c0 .096-.095.145-.283.145-.057.426-.13.639-.217.639l.428 2.054c-.061 0-.109.143-.145.428 0 .088.048.252.145.494h-.073c.11 1.369.183 2.054.218 2.054 0 2.124.401 4.016 1.205 5.675 0 .272.496.816 1.489 1.633h.139l.145-.072c.286.492.593.775.923.85l.145-.066c.207.189.347.283.422.283l.283-.072c.176.14.508.211.995.211h.145zm4.184 1.139v-.073c0-.079-.046-.127-.138-.145l.138-.211v-.073a.522.522 0 0 1-.211-.072l.073-.138v-.283h-.145c0 .158-.024.277-.072.355.048.079.096.292.145.639h.211zm16.628 1.474-.283-.138a.553.553 0 0 1-.217.066l-.283-.066a.55.55 0 0 1-.211.066c0-.123-.167-.217-.5-.283a1.53 1.53 0 0 0-.567-.705c-.281-.509-.494-1.218-.639-2.127l.073-.145a.503.503 0 0 1-.073-.211h.073c-.084-.154-.178-.816-.283-1.988h.072c-.087-.285-.325-2.506-.711-6.663-.048 0-.119-.38-.211-1.139 0-.048.024-.119.073-.211 0-.491-.286-1.036-.857-1.633 0-.031-.119-.362-.356-.995.053-.211.22-.375.501-.493h.073v.138c.334-.092.523-.138.567-.138h.073v.428h.138l-.072.138v.072c.096 0 .145.024.145.072l.567-.356h.072v.073a.48.48 0 0 0-.072.211c.048 0 .072.024.072.072a.522.522 0 0 1 .211-.072c.413.027.839.404 1.278 1.133 0 .312.165.786.494 1.422.333 3.033.501 4.688.501 4.964h.073c1.076-.145 1.88-.217 2.411-.217h.283c.426 0 .639-.259.639-.777h.073l-.073-.145v-.066c.237 0 .475-1.42.712-4.26-.097 0-.145-.046-.145-.138v-.428c.255 0 .444-.07.567-.211h.145l.066.356c-.044 0-.066.022-.066.066l.139.072c0-.048.024-.072.072-.072l-.072-.138v-.072c.311 0 .501-.142.566-.428h.145c0 .053.024.125.073.217l.138-.072h.073c0 .158.024.276.073.355l.138-.072c.097.013.145.062.145.145v.066h-.145v.072h.217l.066-.138a.548.548 0 0 1-.066-.217h.139c.285.25.428.463.428.638h.211l.145-.072-.073-.138c.013-.096.059-.145.138-.145.352 0 .543.072.574.217v.138c0 .097-.073.145-.218.145.189.492.283.799.283.922-.233.939-.349 2.12-.349 3.542l.138.073c0-.049.024-.073.073-.073 0 .096.024.144.073.144l.283-.144v.073c0 .14-.189.235-.566.283v.428h.494l.922-.211c0 .044.025.066.073.066 0-.092.189-.162.567-.211v.072c0 .061-.308.226-.923.494 0 .189-.426.402-1.278.639v.145l.356-.072c.048 0 .073.024.073.072a.513.513 0 0 1 .211-.072h.145v.072c-.571.07-.857.165-.857.283 0 .141-.024.211-.073.211l.073.145c-.092.4-.138.634-.138.705l.065.428c0 .435-.14 1.521-.421 3.259h-.145v-.138h-.066v.921h-.217l-.283-.211c0 .079-.119.292-.356.639 0 .505-.141.788-.421.85 0 .14-.237.211-.711.211h-.073c0-.14-.071-.211-.211-.211h-.073v-.566a.525.525 0 0 0-.073-.283c0-.048.024-.073.073-.073 0-.096-.024-.145-.073-.145.11-1.795.205-2.692.283-2.692l-.066-.145c.093-.325.139-.608.139-.849v-.566l.073-.356c-.115-.092-.209-.138-.283-.138-.699.14-1.173.257-1.423.349v.428c-.123 0-.287.261-.494.784l-.639 1.415a.513.513 0 0 1-.211.072v.566c0 .114-.119.327-.356.638 0 .281-.048.422-.145.422l.073.145c-.378.404-.567.641-.567.711v.355l.073.138c-.159 0-.253.094-.283.283zm3.406-9.36c.224-.715.389-1.095.494-1.139a1.656 1.656 0 0 0-.211-.494l.138-.211h-.065c-.079 0-.176.165-.291.494l.073.356c-.022.189-.092.283-.211.283v.072l.073.139h-.145v.355c.018.097.066.145.145.145zm1.772 5.814c.114 0 .185-.237.211-.711a.54.54 0 0 1-.065-.211h.138v-.283c0-.097-.046-.145-.138-.145l.065-.356v-.705c0-.048.025-.072.073-.072l-.073-.145c0-.048.025-.119.073-.211l-.138-.639c.043 0 .065-.024.065-.072h-.138v.501a.56.56 0 0 1-.073.283c0 .048.024.072.073.072l-.073.349v.145l.073.494h-.073l.073.145v.138c0 .096-.049.145-.145.145a.813.813 0 0 1 .145.428v.349l-.073.501zm-.494.638c.092-.356.138-.568.138-.639 0-.048-.024-.072-.072-.072l.072-.356v-.777l-.072-.856h.072l-.072-.138v-.494c0-.048.024-.072.072-.072-.048-.061-.072-.228-.072-.5-.093.018-.139.066-.139.145v.494c0 .272-.024.439-.073.5.049.255.073.467.073.639v2.127h.073zm-3.195-1.778c0-.154.165-.483.494-.988l.356-.711v-.145h-.073a3.226 3.226 0 0 0-.639 1.139c-.031 0-.125.118-.283.356v.349h.145zm-1.634 1.14c.281-.308.801-1.089 1.561-2.344 0-.044.025-.066.073-.066v.211h.139c0-.197.048-.434.145-.711h-.073v.073c-.048 0-.072-.024-.072-.073-.778.285-1.226.428-1.344.428-.321-.14-.509-.211-.567-.211v.211c0 .105.022.2.065.283 0 .048-.021.073-.065.073.044.215.09.924.138 2.127zm11.202 3.062v-.138l.073-.711c-.049 0-.073-.024-.073-.072.128-.141.271-.211.429-.211l.355-.566.283-2.272v-.145l-.145-.211v-.072c.048 0 .072.024.072.072.097 0 .145-.046.145-.138v-.072c0-.106-.024-.2-.073-.283a.547.547 0 0 0 .073-.283v-1.277l-.073-.5c.11 0 .251-.874.422-2.621a.526.526 0 0 0-.066-.211.623.623 0 0 0 .066-.29v-.777c0-.171.024-.384.072-.639l-.211-1.488c.048 0 .073-.024.073-.072s-.025-.072-.073-.072c-.123-.663-.217-.994-.283-.994-.035-.659-.154-.988-.356-.988v.138h-.145c0-.061-.046-.415-.138-1.06h-.073l-.139.066a.814.814 0 0 1-.145-.421c-.268-.395-.575-.632-.923-.711-.057-.237-.221-.356-.494-.356-.219 0-.433.189-.639.566.189 1.216.283 2.21.283 2.982 0 .698-.024 1.644-.073 2.838a.503.503 0 0 0-.073.211c.049 0 .073.024.073.072-.035.114-.083.492-.145 1.132.048 0 .072.024.072.072h-.072l-.066 1.699c0 .053.022.125.066.217-.044 0-.066.022-.066.066v.639l.066.355c-.044 0-.066.024-.066.073 0 .189.022.283.066.283 0 3.169.355 5.131 1.067 5.886.286.096.429.191.429.283h.421zm-22.895-14.554a25.077 25.077 0 0 1 1.851-.613h.063v.12c-.207.012-.309.054-.309.126-.371.023-.557.105-.557.246h-.183c-.137 0-.281.061-.429.183h-.436v-.063zm7.054 9.367h.063c0-.088-.061-.212-.183-.372v-.183l.057-.126-.367-.618a12.484 12.484 0 0 0-2.35-1.85c-.86-.508-1.292-.796-1.295-.865-.34-.145-1.246-.699-2.717-1.661-.806-.455-1.36-.928-1.662-1.421.019-.164.08-.246.183-.246 0-.275 1.259-.72 2.329-1.159.619-.168.929-.311.929-.43 1.066-.355 1.662-.582 1.788-.681.619-.138.929-.241.929-.309.092 0 .174.145.247.436l-.063.12c0 .084.061.126.183.126v.063c-.122 0-.183.061-.183.184.042.206.167.473.373.802h.183l-.063-.126h.183c.179-.535.325-.802.435-.802v-.12c0-.202.061-.408.183-.619a.482.482 0 0 1-.063-.246c-.019-.141-.348-.409-.986-.802l-1.049-.309h-.063c-.283 0-.59.063-.923.189-1.158.244-1.899.491-2.224.739l-.126-.063h-.121c-.21.164-.477.267-.802.309l-2.161.985c-.89.458-1.385.932-1.485 1.421 0 .061.103.328.309.802l-.063.126c0 .035.082.218.247.55 0 .111.103.235.309.372 0 .118.185.365.556.739.463.279.812.546 1.049.802.413.072.619.176.619.309.81.443 1.263.731 1.359.865a33.427 33.427 0 0 1 3.209 2.034c.699.359 1.049.607 1.049.745-.424.34-1.679.607-3.766.802 0-.042-.021-.063-.063-.063a.484.484 0 0 1-.246.063h-2.407c-.657 0-.986.246-.986.739v.183c.157 0 .26.145.309.435l.367.247c.176.122.3.183.373.183.233.164.397.246.493.246 0 .21.391.356 1.175.436v.057l-.063.126c.336 0 .542.04.619.12h.183l.373-.057.121.057a19.4 19.4 0 0 0 1.542-.183c0 .042.021.063.063.063a10.652 10.652 0 0 0 2.471-.619c.263-.061.491-.328.682-.802h.43l.126-.43v-.189c0-.096.508-.85.382-1.121z"/>
    </symbol>
    <symbol id="ukraine-flag" viewBox="0 0 38 32">
      <path fill="#155db9" style="fill: var(--color1, #155db9)" d="M0 0.809h37.647v15.059h-37.647v-15.059z"></path>
      <path fill="#fcd330" style="fill: var(--color2, #fcd330)" d="M0 15.868h37.647v15.059h-37.647v-15.059z"></path>
    </symbol>
    <symbol id="plus" viewBox="0 0 32 32">
      <path d="M16 5.333c0.736 0 1.333 0.597 1.333 1.333v18.667c0 0.736-0.597 1.333-1.333 1.333s-1.333-0.597-1.333-1.333v-18.667c0-0.736 0.597-1.333 1.333-1.333z"></path>
      <path d="M5.333 16c0-0.736 0.597-1.333 1.333-1.333h18.667c0.736 0 1.333 0.597 1.333 1.333s-0.597 1.333-1.333 1.333h-18.667c-0.736 0-1.333-0.597-1.333-1.333z"></path>
    </symbol>
    <symbol id="minus" viewBox="0 0 32 32">
      <path d="M5.333 16c0-0.736 0.597-1.333 1.333-1.333h18.667c0.736 0 1.333 0.597 1.333 1.333s-0.597 1.333-1.333 1.333h-18.667c-0.736 0-1.333-0.597-1.333-1.333z"></path>
    </symbol>
    <symbol id="google-play" viewBox="0 0 106 32">
      <path fill="#1d1d1f" style="fill: var(--color1, #1d1d1f)" d="M102.438 0h-98.498c-2.176 0-3.94 1.791-3.94 4v24c0 2.209 1.764 4 3.94 4h98.498c2.176 0 3.94-1.791 3.94-4v-24c0-2.209-1.764-4-3.94-4z"></path>
      <path fill="#fff" style="fill: var(--color2, #fff)" d="M53.696 14.575c-0.664 0.002-1.312 0.203-1.864 0.579s-0.98 0.909-1.233 1.532c-0.253 0.623-0.318 1.309-0.186 1.969s0.452 1.267 0.923 1.743c0.471 0.476 1.069 0.799 1.721 0.929s1.326 0.061 1.939-0.199c0.613-0.259 1.136-0.697 1.504-1.259s0.563-1.221 0.561-1.895c0.007-0.45-0.076-0.896-0.243-1.313s-0.415-0.795-0.729-1.112c-0.314-0.317-0.688-0.567-1.099-0.735s-0.851-0.25-1.294-0.241zM53.696 20.039c-0.407 0.029-0.813-0.067-1.166-0.276s-0.635-0.52-0.811-0.894c-0.176-0.374-0.237-0.792-0.175-1.202s0.243-0.791 0.521-1.094c0.278-0.303 0.639-0.515 1.037-0.607s0.814-0.060 1.193 0.091c0.38 0.151 0.706 0.415 0.936 0.756s0.354 0.746 0.355 1.16c0.013 0.262-0.027 0.525-0.115 0.772s-0.225 0.473-0.402 0.665c-0.176 0.192-0.389 0.347-0.625 0.455s-0.491 0.166-0.75 0.172zM46.351 14.575c-0.664 0.002-1.312 0.203-1.864 0.579s-0.98 0.909-1.233 1.532-0.318 1.309-0.186 1.969c0.131 0.661 0.452 1.267 0.923 1.743s1.069 0.799 1.721 0.929c0.651 0.13 1.326 0.061 1.939-0.199s1.136-0.697 1.504-1.259c0.368-0.561 0.563-1.221 0.561-1.895 0.006-0.45-0.076-0.896-0.243-1.313s-0.415-0.795-0.729-1.112c-0.314-0.317-0.688-0.567-1.099-0.735s-0.851-0.25-1.294-0.241zM46.351 20.039c-0.407 0.029-0.813-0.067-1.165-0.276s-0.635-0.52-0.811-0.894c-0.176-0.374-0.237-0.792-0.175-1.202s0.243-0.791 0.521-1.094c0.278-0.303 0.639-0.515 1.037-0.607s0.813-0.060 1.193 0.091c0.38 0.151 0.706 0.415 0.936 0.756s0.354 0.746 0.355 1.16c0.013 0.262-0.026 0.525-0.115 0.772s-0.225 0.473-0.401 0.665c-0.176 0.192-0.389 0.347-0.625 0.455s-0.491 0.166-0.75 0.172zM37.621 15.623v1.44h3.404c-0.053 0.678-0.331 1.318-0.788 1.816-0.341 0.353-0.752 0.63-1.206 0.812s-0.939 0.265-1.426 0.244c-1.003 0-1.965-0.405-2.675-1.125s-1.108-1.697-1.108-2.715c0-1.018 0.398-1.995 1.108-2.715s1.671-1.125 2.675-1.125c0.962-0.015 1.89 0.356 2.585 1.032l1.001-1.016c-0.47-0.472-1.027-0.843-1.64-1.093s-1.269-0.373-1.929-0.363c-0.7-0.028-1.399 0.089-2.055 0.342s-1.253 0.638-1.759 1.131c-0.505 0.493-0.907 1.085-1.182 1.74s-0.416 1.359-0.416 2.071c0 0.712 0.142 1.416 0.416 2.071s0.676 1.247 1.182 1.74c0.505 0.493 1.103 0.878 1.759 1.131s1.354 0.369 2.055 0.342c0.674 0.027 1.346-0.090 1.972-0.346s1.192-0.642 1.66-1.135c0.827-0.923 1.268-2.137 1.229-3.384 0.003-0.3-0.021-0.6-0.071-0.896h-4.791zM73.324 16.743c-0.206-0.614-0.59-1.15-1.102-1.537s-1.128-0.607-1.766-0.631c-0.431-0.001-0.858 0.088-1.253 0.261s-0.753 0.427-1.048 0.746c-0.295 0.319-0.523 0.695-0.67 1.107s-0.208 0.849-0.181 1.286c-0.007 0.73 0.219 1.443 0.645 2.032s1.027 1.023 1.715 1.236c0.688 0.213 1.425 0.195 2.102-0.052s1.257-0.71 1.653-1.32l-1.143-0.8c-0.17 0.288-0.412 0.526-0.701 0.69s-0.615 0.249-0.946 0.246c-0.342 0.014-0.679-0.077-0.969-0.261s-0.518-0.453-0.654-0.771l4.484-1.88-0.165-0.352zM68.754 17.879c-0.016-0.248 0.017-0.497 0.097-0.732s0.206-0.451 0.37-0.636c0.164-0.185 0.362-0.335 0.584-0.44s0.462-0.166 0.707-0.176c0.253-0.016 0.505 0.043 0.725 0.171s0.398 0.319 0.512 0.549l-2.994 1.264zM65.114 21.175h1.474v-10h-1.474v10zM62.702 15.335h-0.055c-0.224-0.247-0.497-0.443-0.801-0.574s-0.633-0.194-0.964-0.186c-0.861 0.042-1.673 0.42-2.268 1.053s-0.926 1.475-0.926 2.351 0.332 1.717 0.926 2.351c0.595 0.634 1.407 1.011 2.268 1.053 0.334 0.007 0.666-0.061 0.971-0.2s0.576-0.343 0.794-0.6h0.055v0.488c0 1.304-0.686 2-1.789 2-0.369-0.008-0.726-0.127-1.028-0.343s-0.534-0.516-0.666-0.865l-1.277 0.536c0.236 0.602 0.646 1.117 1.177 1.477s1.156 0.548 1.794 0.539c1.726 0 3.152-1.032 3.152-3.544v-6.096h-1.363v0.56zM61.008 20.039c-0.516-0.033-1.001-0.264-1.355-0.647s-0.551-0.888-0.551-1.413 0.197-1.031 0.551-1.413c0.354-0.383 0.839-0.614 1.355-0.647 0.252 0.011 0.5 0.073 0.728 0.184s0.432 0.266 0.6 0.458c0.168 0.192 0.296 0.416 0.376 0.659s0.112 0.5 0.093 0.756c0.022 0.257-0.008 0.515-0.088 0.759s-0.207 0.47-0.375 0.663-0.373 0.349-0.602 0.46c-0.229 0.11-0.478 0.172-0.731 0.182zM80.227 11.175h-3.53v10h1.474v-3.792h2.057c0.42 0.031 0.842-0.027 1.239-0.169s0.761-0.366 1.069-0.657c0.308-0.291 0.554-0.644 0.722-1.036s0.255-0.815 0.255-1.242c0-0.428-0.087-0.85-0.255-1.242s-0.414-0.744-0.722-1.036c-0.308-0.291-0.672-0.515-1.069-0.657s-0.819-0.2-1.239-0.169zM80.227 15.975h-2.057v-3.408h2.088c0.447 0 0.876 0.18 1.192 0.501s0.494 0.757 0.494 1.211-0.178 0.889-0.494 1.211c-0.316 0.321-0.745 0.501-1.192 0.501l-0.031-0.016zM89.321 14.543c-0.537-0.034-1.072 0.093-1.538 0.365s-0.844 0.676-1.086 1.163l1.3 0.552c0.131-0.24 0.329-0.437 0.568-0.566s0.509-0.185 0.779-0.162c0.187-0.022 0.377-0.006 0.558 0.047s0.349 0.142 0.496 0.262c0.146 0.12 0.268 0.268 0.358 0.436s0.145 0.353 0.163 0.543v0.096c-0.474-0.253-1.001-0.385-1.536-0.384-1.403 0-2.837 0.8-2.837 2.256 0.014 0.31 0.088 0.613 0.221 0.892s0.317 0.529 0.546 0.734 0.496 0.362 0.784 0.46c0.29 0.098 0.596 0.137 0.899 0.113 0.37 0.021 0.739-0.059 1.068-0.23s0.608-0.429 0.808-0.746h0.047v0.8h1.418v-3.848c0-1.752-1.308-2.768-2.986-2.768l-0.031-0.016zM89.139 20.023c-0.481 0-1.15-0.248-1.15-0.848 0-0.8 0.835-1.072 1.576-1.072 0.469-0.012 0.931 0.104 1.34 0.336-0.049 0.434-0.253 0.836-0.571 1.13s-0.732 0.461-1.162 0.47l-0.032-0.016zM97.507 14.775l-1.686 4.336h-0.047l-1.75-4.336h-1.576l2.624 6.064-1.497 3.368h1.576l3.995-9.432h-1.639zM84.269 21.175h1.466v-10h-1.466v10z"></path>
      <path fill="#5bc9f4" style="fill: var(--color3, #5bc9f4)" d="M8.225 6.043c-0.258 0.327-0.38 0.743-0.339 1.16v17.68c-0.024 0.407 0.106 0.807 0.362 1.12l0.063 0.064 9.732-9.944v-0.24l-9.755-9.896-0.063 0.056z"></path>
      <path fill="#000" style="fill: var(--color4, #000)" d="M21.273 19.416l-3.246-3.296v-0.24l3.246-3.296h0.079l3.861 2.264c1.095 0.632 1.095 1.672 0 2.304l-3.853 2.224-0.087 0.040z"></path>
      <path fill="#000" style="fill: var(--color4, #000)" d="M21.367 19.376l-3.325-3.376-9.818 9.96c0.224 0.202 0.511 0.318 0.811 0.326s0.593-0.090 0.828-0.279l11.505-6.632z"></path>
      <path fill="#000" style="fill: var(--color4, #000)" d="M21.367 12.624l-11.505-6.632c-0.235-0.189-0.528-0.287-0.828-0.279s-0.587 0.124-0.811 0.327l9.818 9.96 3.325-3.376z"></path>
      <path fill="#1d1d1f" style="fill: var(--color1, #1d1d1f)" d="M102.438 0.64c0.878 0 1.72 0.354 2.34 0.984s0.969 1.485 0.969 2.376v24c0 0.891-0.349 1.746-0.969 2.376s-1.463 0.984-2.34 0.984h-98.498c-0.878 0-1.72-0.354-2.34-0.984s-0.969-1.485-0.969-2.376v-24c0-0.891 0.349-1.746 0.969-2.376s1.462-0.984 2.34-0.984h98.498zM102.438 0h-98.498c-1.045 0-2.047 0.421-2.786 1.172s-1.154 1.768-1.154 2.828v24c0 1.061 0.415 2.078 1.154 2.828s1.741 1.172 2.786 1.172h98.498c1.046 0 2.047-0.421 2.787-1.172s1.154-1.768 1.154-2.828v-24c0-1.061-0.415-2.078-1.154-2.828s-1.741-1.172-2.787-1.172v0z"></path>
    </symbol>
    <symbol id="appstore" viewBox="0 0 95 32">
      <path fill="#1d1d1f" style="fill: var(--color1, #1d1d1f)" d="M7.581 0c-0.292 0-0.58 0-0.87 0.002-0.244 0.002-0.486 0.006-0.732 0.010-0.534 0.006-1.066 0.054-1.593 0.142-0.793 0.132-1.545 0.45-2.194 0.93s-1.177 1.108-1.541 1.833c-0.242 0.483-0.41 1.001-0.497 1.535s-0.136 1.073-0.142 1.614c-0.008 0.247-0.008 0.495-0.012 0.742v18.384c0.004 0.25 0.005 0.492 0.012 0.743 0.006 0.541 0.054 1.080 0.142 1.614 0.087 0.535 0.255 1.053 0.497 1.536 0.241 0.482 0.557 0.922 0.936 1.302 0.376 0.385 0.81 0.706 1.287 0.95s0.985 0.417 1.511 0.509c0.527 0.088 1.060 0.136 1.593 0.142 0.246 0.006 0.487 0.009 0.731 0.009 0.291 0.002 0.579 0.002 0.87 0.002h79.979c0.286 0 0.576 0 0.861-0.002 0.242 0 0.49-0.003 0.733-0.008 0.533-0.007 1.064-0.055 1.59-0.143 0.528-0.092 1.040-0.264 1.518-0.509 0.476-0.245 0.91-0.566 1.285-0.95 0.379-0.381 0.695-0.821 0.939-1.302 0.24-0.484 0.406-1.002 0.492-1.536 0.089-0.533 0.138-1.073 0.148-1.614 0.003-0.251 0.003-0.494 0.003-0.744 0.006-0.293 0.006-0.584 0.006-0.882v-16.621c0-0.296 0-0.589-0.006-0.881 0-0.248 0-0.496-0.003-0.742-0.010-0.541-0.059-1.081-0.148-1.614-0.087-0.534-0.252-1.052-0.492-1.535-0.49-0.969-1.268-1.759-2.224-2.258-0.478-0.244-0.989-0.415-1.518-0.506-0.526-0.089-1.057-0.136-1.59-0.142-0.242-0.004-0.49-0.009-0.733-0.010-0.285-0.002-0.575-0.002-0.861-0.002h-79.978z"></path>
      <path fill="#1d1d1f" style="fill: var(--color1, #1d1d1f)" d="M6.862 31.133c-0.241 0-0.477-0.003-0.716-0.008-0.496-0.006-0.991-0.050-1.48-0.129-0.456-0.079-0.899-0.225-1.312-0.433-0.409-0.207-0.783-0.479-1.107-0.805-0.328-0.322-0.601-0.695-0.809-1.106-0.209-0.412-0.354-0.854-0.43-1.311-0.082-0.491-0.126-0.987-0.132-1.484-0.005-0.166-0.012-0.722-0.012-0.722v-18.281c0 0 0.008-0.547 0.012-0.708 0.006-0.497 0.050-0.992 0.131-1.482 0.076-0.457 0.221-0.901 0.431-1.315 0.422-0.824 1.092-1.494 1.914-1.916 0.412-0.208 0.854-0.353 1.309-0.43 0.491-0.080 0.988-0.124 1.486-0.13l0.715-0.009 82.129 0.010c0.493 0.006 0.986 0.048 1.473 0.128 0.46 0.078 0.906 0.224 1.323 0.433 0.821 0.423 1.489 1.092 1.912 1.915 0.208 0.412 0.35 0.851 0.425 1.305 0.082 0.494 0.128 0.993 0.138 1.493 0.003 0.224 0.003 0.465 0.003 0.705 0.006 0.296 0.006 0.579 0.006 0.864v16.562c0 0.288 0 0.568-0.006 0.851 0 0.258 0 0.493-0.003 0.735-0.009 0.491-0.055 0.981-0.135 1.466-0.074 0.46-0.218 0.906-0.428 1.322-0.208 0.406-0.48 0.776-0.804 1.097-0.324 0.327-0.698 0.601-1.109 0.808-0.416 0.211-0.861 0.358-1.321 0.436-0.49 0.079-0.985 0.123-1.481 0.129-0.233 0.005-0.475 0.008-0.712 0.008l-0.858 0.002-80.551-0.002z"></path>
      <path fill="#fff" style="fill: var(--color2, #fff)" d="M19.172 15.739c0.002 1.57 0.886 2.988 2.247 3.6-0.261 0.901-0.655 1.755-1.169 2.53-0.688 1.095-1.409 2.165-2.556 2.185-1.113 0.027-1.487-0.696-2.763-0.696-1.288 0-1.688 0.677-2.755 0.724-1.091 0.043-1.925-1.168-2.638-2.253-1.426-2.214-2.536-6.242-1.048-8.982 0.7-1.335 2.006-2.183 3.443-2.233 1.091-0.023 2.105 0.785 2.777 0.785 0.659 0 1.911-0.967 3.204-0.823 0.61 0.022 1.206 0.194 1.739 0.501s0.99 0.74 1.332 1.265c-0.551 0.364-1.005 0.866-1.322 1.46s-0.486 1.26-0.491 1.938zM17.623 9.186c-0.646 0.88-1.624 1.386-2.655 1.374-0.068-1.093 0.268-2.172 0.938-3.017 0.658-0.832 1.601-1.366 2.63-1.49 0.082 1.126-0.244 2.244-0.915 3.133l0.001-0.001z"></path>
      <path fill="#fff" style="fill: var(--color2, #fff)" d="M59.52 20.143c-1.307 0-2.264-0.673-2.373-1.7h-1.521c0.095 1.871 1.583 3.055 3.784 3.055 2.354 0 3.834-1.212 3.834-3.147 0-1.512-0.847-2.365-2.883-2.867l-1.095-0.279c-1.28-0.33-1.802-0.76-1.802-1.491 0-0.917 0.818-1.548 2.015-1.548s2.016 0.623 2.106 1.655h1.5c-0.049-1.785-1.487-3.010-3.585-3.010-2.12 0-3.613 1.225-3.613 3.010 0 1.442 0.846 2.329 2.669 2.789l1.287 0.322c1.286 0.33 1.83 0.811 1.83 1.613 0 0.925-0.901 1.599-2.154 1.599z"></path>
      <path fill="#fff" style="fill: var(--color2, #fff)" d="M66.451 13.785v-1.785h-1.493v1.785h-1.053v1.226h1.053v4.321c0 1.462 0.571 2.036 2.037 2.036 0.277 0.006 0.553-0.018 0.826-0.071v-1.219c-0.163 0.021-0.326 0.033-0.489 0.036-0.605 0-0.88-0.301-0.88-0.946v-4.158h1.376v-1.225h-1.376z"></path>
      <path fill="#fff" style="fill: var(--color2, #fff)" d="M78.133 13.785h-1.417l-0.001 7.541h1.487v-4.473c-0.024-0.223-0.002-0.45 0.065-0.664s0.179-0.41 0.326-0.575c0.147-0.165 0.326-0.294 0.526-0.38s0.415-0.126 0.631-0.117c0.226-0.007 0.452 0.025 0.668 0.094v-1.448c-0.167-0.039-0.338-0.058-0.509-0.058-0.397-0.015-0.786 0.112-1.103 0.36s-0.542 0.602-0.638 1.002h-0.035v-1.283z"></path>
      <path fill="#fff" style="fill: var(--color2, #fff)" d="M51.882 17.556c0-2.338-1.211-3.85-3.049-3.85-0.464-0.015-0.924 0.101-1.33 0.336s-0.743 0.58-0.975 0.998h-0.027v-1.254h-1.438v10.035h1.486v-3.735h0.034c0.222 0.42 0.553 0.767 0.956 1s0.861 0.344 1.321 0.319c1.817 0 3.022-1.506 3.022-3.849zM48.441 15.026c1.156 0 1.914 1.004 1.914 2.531 0 1.54-0.758 2.537-1.914 2.537-1.135 0-1.899-1.018-1.899-2.537 0-1.506 0.764-2.531 1.899-2.531z"></path>
      <path fill="#fff" style="fill: var(--color2, #fff)" d="M43.913 17.556c0-2.338-1.211-3.85-3.048-3.85-0.464-0.015-0.924 0.101-1.33 0.336s-0.743 0.58-0.975 0.998h-0.027v-1.254h-1.438v10.035h1.486v-3.735h0.034c0.222 0.42 0.553 0.767 0.956 1s0.861 0.344 1.321 0.319c1.817 0 3.021-1.506 3.021-3.849zM40.474 15.026c1.156 0 1.913 1.004 1.913 2.531 0 1.54-0.757 2.537-1.913 2.537-1.135 0-1.899-1.018-1.899-2.537 0-1.506 0.764-2.531 1.899-2.531z"></path>
      <path fill="#fff" style="fill: var(--color2, #fff)" d="M33.634 18.531l0.907 2.795h1.631l-3.585-10.342h-1.666l-3.584 10.342h1.603l0.909-2.795h3.784zM33.241 17.241l-2.999-0.001 1.479-4.536h0.041l1.479 4.537z"></path>
      <path fill="#fff" style="fill: var(--color2, #fff)" d="M68.624 17.556c0 2.379 1.327 3.863 3.433 3.863s3.434-1.484 3.434-3.863c0-2.373-1.335-3.864-3.434-3.864-2.092 0-3.433 1.491-3.433 3.864zM72.057 14.968c1.204 0 1.92 0.961 1.92 2.589 0 1.633-0.716 2.586-1.92 2.586s-1.919-0.953-1.919-2.586c0-1.62 0.715-2.589 1.919-2.589z"></path>
      <path fill="#fff" style="fill: var(--color2, #fff)" d="M87.269 19.112h-1.411c-0.131 0.34-0.365 0.627-0.667 0.818s-0.654 0.276-1.005 0.242c-0.267 0.010-0.534-0.039-0.781-0.144s-0.471-0.264-0.655-0.466c-0.184-0.202-0.325-0.443-0.414-0.706s-0.121-0.543-0.098-0.82v-0.093h5.112v-0.53c0-2.286-1.259-3.72-3.262-3.72-2.037 0-3.35 1.534-3.35 3.9 0 2.358 1.307 3.827 3.412 3.827 1.638 0 2.918-0.939 3.118-2.308zM85.865 16.861h-3.619c-0.001-0.252 0.047-0.502 0.139-0.735s0.228-0.445 0.4-0.623c0.171-0.178 0.375-0.319 0.599-0.414s0.464-0.144 0.706-0.143c0.24-0.005 0.479 0.041 0.7 0.137s0.422 0.237 0.589 0.417c0.167 0.18 0.296 0.394 0.379 0.628s0.12 0.484 0.106 0.733z"></path>
    </symbol>
  </defs>
</svg>
